<svg width="78" height="179" viewBox="0 0 78 179" fill="none" xmlns="http://www.w3.org/2000/svg">
<path d="M31.4768 41.3776L44.8383 2.90659L62.1817 47.2741L31.4768 41.3776Z" stroke="#51FB81" stroke-width="2.01258"/>
<path d="M26.1114 103.386L62.8478 58.142L40.1818 125.484L26.1114 103.386Z" stroke="#51FB81" stroke-width="2.01258"/>
<path d="M26.1554 53.4073L27.6814 49.7587C30.0966 59.9574 32.3768 69.5858 34.7994 79.8202L7.44539 67.5407C12.0342 59.2112 16.5155 51.0761 21.3538 42.2851C22.4344 46.3755 23.3346 49.7882 24.254 53.2756L25.0104 56.1449L26.1554 53.4073Z" stroke="#51FB81" stroke-width="2.01258"/>
<path d="M31.9097 46.7115L61.6899 52.3116L39.6389 79.6779C38.9583 76.7747 38.288 73.9156 37.6228 71.0778C35.7202 62.9616 33.8582 55.0188 31.9097 46.7115Z" stroke="#51FB81" stroke-width="2.01258"/>
<path d="M34.5237 85.5104L23.6935 99.0764C21.9729 96.2347 20.2806 93.4382 18.6072 90.673C15.173 84.998 11.8187 79.4551 8.464 73.9248L34.5237 85.5104Z" stroke="#51FB81" stroke-width="2.01258"/>
<path d="M17.2241 141.74V152.379C17.2241 154.237 16.7286 155.693 15.7375 156.746C14.762 157.799 13.3063 158.325 11.3707 158.325C9.435 158.325 7.97164 157.799 6.98058 156.746C6.005 155.693 5.51721 154.237 5.51721 152.379V141.74H8.58331V152.379C8.58331 153.339 8.80785 154.09 9.25692 154.632C9.706 155.174 10.4106 155.445 11.3707 155.445C12.3308 155.445 13.0353 155.174 13.4844 154.632C13.9335 154.09 14.158 153.339 14.158 152.379V141.74H17.2241ZM19.0895 141.74H24.9894C27.0025 141.74 28.4968 142.213 29.4724 143.157C30.448 144.086 30.9357 145.534 30.9357 147.501V152.239C30.9357 154.206 30.448 155.662 29.4724 156.606C28.4968 157.535 27.0025 158 24.9894 158H19.0895V155.05H20.6225V144.667H19.0895V141.74ZM24.9894 155.073C26.0579 155.073 26.8012 154.826 27.2193 154.33C27.6529 153.819 27.8696 153.029 27.8696 151.961V147.501C27.8696 146.572 27.6529 145.867 27.2193 145.387C26.8012 144.907 26.0579 144.667 24.9894 144.667H23.6886V155.073H24.9894ZM37.8183 149.777H44.7867V158H41.9994V156.188H41.5813C41.3954 156.792 41.0393 157.303 40.5128 157.721C39.9863 158.124 39.1965 158.325 38.1435 158.325C37.4002 158.325 36.7034 158.186 36.053 157.907C35.4026 157.628 34.8374 157.218 34.3573 156.676C33.8773 156.119 33.4979 155.437 33.2192 154.632C32.9404 153.811 32.8011 152.859 32.8011 151.775V147.965C32.8011 146.912 32.9482 145.983 33.2424 145.178C33.5521 144.357 33.9702 143.668 34.4967 143.111C35.0387 142.553 35.6813 142.135 36.4246 141.857C37.1679 141.562 37.9887 141.415 38.8868 141.415C39.8159 141.415 40.6444 141.57 41.3722 141.88C42.1 142.174 42.7194 142.592 43.2304 143.134C43.7415 143.661 44.1286 144.288 44.3918 145.016C44.6551 145.728 44.7867 146.494 44.7867 147.315V147.594H41.7206V147.315C41.7206 146.34 41.4651 145.604 40.9541 145.108C40.4586 144.597 39.754 144.342 38.8404 144.342C37.9732 144.342 37.2608 144.636 36.7034 145.225C36.1459 145.798 35.8672 146.789 35.8672 148.198V151.636C35.8672 154.144 36.8892 155.398 38.9333 155.398C39.8469 155.398 40.536 155.158 41.0006 154.678C41.4806 154.183 41.7206 153.525 41.7206 152.704H37.8183V149.777ZM55.409 154.516H49.8807L49.091 158H45.8855L49.7646 141.74H55.5251L59.4042 158H56.1988L55.409 154.516ZM50.5311 151.589H54.7354L52.8539 143.273H52.4358L50.5311 151.589ZM59.8062 141.74H65.1951L66.1242 153.958V156.328H66.6817V153.958L67.6108 141.74H72.9997V158H70.2123V147.129L70.4911 143.413H69.9336L68.7257 158H64.1266L62.8723 143.413H62.3148L62.5935 147.129V158H59.8062V141.74ZM23.8477 175.073V178H12.4195V174.795C12.4195 173.943 12.5434 173.215 12.7911 172.611C13.0544 172.007 13.4183 171.496 13.8828 171.078C14.3629 170.66 14.9358 170.319 15.6017 170.056C16.2676 169.777 17.0186 169.545 17.8548 169.359C18.4742 169.22 18.9775 169.065 19.3647 168.895C19.7673 168.709 20.0847 168.507 20.317 168.291C20.5493 168.058 20.7041 167.811 20.7816 167.547C20.8745 167.269 20.9209 166.959 20.9209 166.618C20.9209 165.968 20.6809 165.426 20.2009 164.992C19.7363 164.559 19.0859 164.342 18.2497 164.342C17.367 164.342 16.6625 164.613 16.136 165.155C15.6095 165.681 15.3462 166.417 15.3462 167.362V168.384H12.2801V167.083C12.2801 166.324 12.4117 165.604 12.675 164.923C12.9537 164.226 13.3409 163.622 13.8364 163.111C14.3474 162.584 14.9668 162.174 15.6946 161.88C16.4224 161.57 17.2432 161.415 18.1568 161.415C19.1324 161.415 19.9841 161.562 20.7119 161.857C21.4397 162.135 22.0436 162.507 22.5237 162.971C23.0192 163.436 23.3831 163.978 23.6154 164.597C23.8631 165.201 23.987 165.829 23.987 166.479V166.758C23.987 168.12 23.5999 169.251 22.8256 170.149C22.0668 171.047 20.8203 171.697 19.0859 172.1C18.3581 172.27 17.7542 172.449 17.2741 172.634C16.8096 172.805 16.4457 172.998 16.1824 173.215C15.9192 173.432 15.7333 173.672 15.6249 173.935C15.532 174.183 15.4856 174.469 15.4856 174.795V175.073H23.8477ZM29.8243 169.87C29.8243 169.344 30.0179 168.887 30.405 168.5C30.7922 168.113 31.249 167.919 31.7755 167.919C32.302 167.919 32.7588 168.113 33.1459 168.5C33.5331 168.887 33.7266 169.344 33.7266 169.87C33.7266 170.397 33.5331 170.854 33.1459 171.241C32.7588 171.628 32.302 171.821 31.7755 171.821C31.249 171.821 30.7922 171.628 30.405 171.241C30.0179 170.854 29.8243 170.397 29.8243 169.87ZM25.7827 168.058C25.7827 165.952 26.3092 164.319 27.3622 163.157C28.4307 161.996 29.9018 161.415 31.7755 161.415C33.6492 161.415 35.1126 161.996 36.1656 163.157C37.2341 164.319 37.7683 165.952 37.7683 168.058V171.682C37.7683 173.85 37.2341 175.499 36.1656 176.63C35.1126 177.76 33.6492 178.325 31.7755 178.325C29.9018 178.325 28.4307 177.76 27.3622 176.63C26.3092 175.499 25.7827 173.85 25.7827 171.682V168.058ZM31.7755 175.538C32.333 175.538 32.7975 175.453 33.1692 175.282C33.5408 175.096 33.8428 174.841 34.0751 174.516C34.3073 174.191 34.4699 173.803 34.5629 173.354C34.6558 172.905 34.7022 172.41 34.7022 171.868V167.873C34.7022 167.362 34.648 166.882 34.5396 166.432C34.4312 165.983 34.2609 165.596 34.0286 165.271C33.7963 164.946 33.4944 164.69 33.1227 164.505C32.7511 164.303 32.302 164.203 31.7755 164.203C31.249 164.203 30.7999 164.303 30.4283 164.505C30.0566 164.69 29.7547 164.946 29.5224 165.271C29.2901 165.596 29.1198 165.983 29.0114 166.432C28.903 166.882 28.8488 167.362 28.8488 167.873V171.868C28.8488 172.41 28.8952 172.905 28.9881 173.354C29.081 173.803 29.2436 174.191 29.4759 174.516C29.7082 174.841 30.0102 175.096 30.3818 175.282C30.7535 175.453 31.218 175.538 31.7755 175.538ZM51.3638 175.073V178H39.9356V174.795C39.9356 173.943 40.0595 173.215 40.3073 172.611C40.5705 172.007 40.9344 171.496 41.399 171.078C41.879 170.66 42.452 170.319 43.1178 170.056C43.7837 169.777 44.5348 169.545 45.371 169.359C45.9904 169.22 46.4937 169.065 46.8808 168.895C47.2834 168.709 47.6009 168.507 47.8331 168.291C48.0654 168.058 48.2203 167.811 48.2977 167.547C48.3906 167.269 48.4371 166.959 48.4371 166.618C48.4371 165.968 48.197 165.426 47.717 164.992C47.2524 164.559 46.602 164.342 45.7658 164.342C44.8832 164.342 44.1786 164.613 43.6521 165.155C43.1256 165.681 42.8623 166.417 42.8623 167.362V168.384H39.7962V167.083C39.7962 166.324 39.9279 165.604 40.1911 164.923C40.4699 164.226 40.857 163.622 41.3525 163.111C41.8635 162.584 42.4829 162.174 43.2108 161.88C43.9386 161.57 44.7593 161.415 45.6729 161.415C46.6485 161.415 47.5002 161.562 48.228 161.857C48.9558 162.135 49.5598 162.507 50.0398 162.971C50.5353 163.436 50.8992 163.978 51.1315 164.597C51.3793 165.201 51.5032 165.829 51.5032 166.479V166.758C51.5032 168.12 51.116 169.251 50.3418 170.149C49.583 171.047 48.3364 171.697 46.602 172.1C45.8742 172.27 45.2703 172.449 44.7903 172.634C44.3257 172.805 43.9618 172.998 43.6985 173.215C43.4353 173.432 43.2495 173.672 43.1411 173.935C43.0482 174.183 43.0017 174.469 43.0017 174.795V175.073H51.3638ZM58.3161 175.073V163.273H57.8979L56.3649 168.848H53.4382V168.569L55.3893 161.74H61.3822V175.073H65.4238V178H53.7169V175.073H58.3161Z" fill="#51FB81"/>
</svg>
