<svg width="914" height="320" viewBox="0 0 914 320" fill="none" xmlns="http://www.w3.org/2000/svg">
<path d="M20.412 29.644V34H2.664V8.44H20.088V12.796H7.632V18.952H18.396V22.984H7.632V29.644H20.412ZM23.0001 21.04C23.0001 19.48 23.2761 17.944 23.8281 16.432C24.4041 14.92 25.2321 13.552 26.3121 12.328C27.3921 11.104 28.7121 10.132 30.2721 9.412C31.8321 8.668 33.6081 8.296 35.6001 8.296C37.9281 8.296 39.9561 8.812 41.6841 9.844C43.4121 10.876 44.6961 12.22 45.5361 13.876L41.7201 16.504C41.2881 15.544 40.7241 14.788 40.0281 14.236C39.3321 13.684 38.5761 13.288 37.7601 13.048C36.9681 12.808 36.2001 12.688 35.4561 12.688C34.2081 12.688 33.1161 12.94 32.1801 13.444C31.2681 13.948 30.5001 14.608 29.8761 15.424C29.2521 16.24 28.7841 17.152 28.4721 18.16C28.1841 19.168 28.0401 20.176 28.0401 21.184C28.0401 22.696 28.3521 24.112 28.9761 25.432C29.6001 26.728 30.4761 27.784 31.6041 28.6C32.7321 29.416 34.0401 29.824 35.5281 29.824C36.2961 29.824 37.0881 29.692 37.9041 29.428C38.7441 29.164 39.5121 28.744 40.2081 28.168C40.9041 27.592 41.4441 26.848 41.8281 25.936L45.8961 28.276C45.3681 29.548 44.5401 30.628 43.4121 31.516C42.2841 32.38 41.0121 33.052 39.5961 33.532C38.1801 33.988 36.7761 34.216 35.3841 34.216C33.5601 34.216 31.8921 33.844 30.3801 33.1C28.8921 32.332 27.5961 31.324 26.4921 30.076C25.3881 28.804 24.5241 27.388 23.9001 25.828C23.3001 24.244 23.0001 22.648 23.0001 21.04ZM67.6957 29.644V34H49.9477V8.44H67.3717V12.796H54.9157V18.952H65.6797V22.984H54.9157V29.644H67.6957ZM72.2888 34V8.44H77.2568V29.644H90.2888V34H72.2888ZM94.0323 34V8.44H99.0003V29.644H112.032V34H94.0323ZM115.74 38.14L116.712 33.856H115.2V28.816H119.376V33.856L117.9 38.14H115.74ZM134.231 34V8.44H139.199V34H134.231ZM145.252 34V8.44H150.22V34H145.252ZM175.389 12.796H167.217V34H162.285V12.796H154.113V8.44H175.389V12.796ZM198.216 34.18C196.536 34.18 194.964 33.844 193.5 33.172C192.036 32.5 190.74 31.576 189.612 30.4C188.508 29.2 187.644 27.808 187.02 26.224C186.396 24.64 186.084 22.924 186.084 21.076C186.084 19.324 186.396 17.68 187.02 16.144C187.644 14.584 188.52 13.216 189.648 12.04C190.776 10.864 192.096 9.94 193.608 9.268C195.12 8.596 196.764 8.26 198.54 8.26C200.916 8.26 202.968 8.776 204.696 9.808C206.424 10.816 207.72 12.16 208.584 13.84L204.876 16.576C204.228 15.328 203.316 14.368 202.14 13.696C200.988 13 199.728 12.652 198.36 12.652C196.92 12.652 195.648 13.048 194.544 13.84C193.464 14.632 192.612 15.676 191.988 16.972C191.388 18.268 191.088 19.684 191.088 21.22C191.088 22.828 191.412 24.28 192.06 25.576C192.708 26.872 193.596 27.904 194.724 28.672C195.876 29.416 197.184 29.788 198.648 29.788C201.12 29.788 203.352 28.624 205.344 26.296V24.496H200.196V20.86H209.448V34H205.344V31.12C203.28 33.16 200.904 34.18 198.216 34.18ZM225.238 34.18C223.198 34.18 221.458 33.844 220.018 33.172C218.602 32.476 217.45 31.528 216.562 30.328C215.698 29.128 215.062 27.772 214.654 26.26C214.246 24.724 214.042 23.128 214.042 21.472V8.44H219.01V21.472C219.01 22.888 219.202 24.232 219.586 25.504C219.97 26.776 220.618 27.808 221.53 28.6C222.442 29.392 223.666 29.788 225.202 29.788C226.786 29.788 228.034 29.392 228.946 28.6C229.858 27.784 230.506 26.74 230.89 25.468C231.274 24.196 231.466 22.864 231.466 21.472V8.44H236.398V21.472C236.398 23.224 236.182 24.868 235.75 26.404C235.342 27.94 234.682 29.296 233.77 30.472C232.882 31.624 231.73 32.536 230.314 33.208C228.898 33.856 227.206 34.18 225.238 34.18ZM250.87 8.512H255.478L258.394 16.972L261.346 8.512H265.918L261.526 20.14L264.766 28.276L272.002 8.44H277.402L267.178 34H262.894L258.394 23.272L253.93 34H249.646L239.458 8.44H244.786L252.058 28.276L255.226 20.14L250.87 8.512ZM285.579 8.44H290.619L300.015 34H294.903L292.527 27.628H283.599L281.259 34H276.147L285.579 8.44ZM291.627 24.136L288.099 13.588L284.427 24.136H291.627ZM325.03 8.44V34H320.098V23.092H308.506V34H303.538V8.44H308.506V18.772H320.098V8.44H325.03ZM338.03 8.44H343.07L352.466 34H347.354L344.978 27.628H336.05L333.71 34H328.598L338.03 8.44ZM344.078 24.136L340.55 13.588L336.878 24.136H344.078ZM372.715 12.796H364.543V34H359.611V12.796H351.439V8.44H372.715V12.796ZM376.608 34V8.44H381.576V34H376.608Z" fill="white"/>
<path d="M8.184 62.24C7.144 62.24 6.208 61.968 5.376 61.424C4.56 60.88 3.912 60.208 3.432 59.408V67.112H1.8V49.496H3.264V51.92C3.76 51.136 4.416 50.504 5.232 50.024C6.064 49.528 6.96 49.28 7.92 49.28C8.784 49.28 9.576 49.464 10.296 49.832C11.016 50.184 11.64 50.664 12.168 51.272C12.712 51.88 13.128 52.576 13.416 53.36C13.704 54.128 13.848 54.928 13.848 55.76C13.848 56.928 13.608 58.008 13.128 59C12.664 59.976 12 60.76 11.136 61.352C10.288 61.944 9.304 62.24 8.184 62.24ZM7.728 60.8C8.64 60.8 9.424 60.56 10.08 60.08C10.752 59.584 11.272 58.952 11.64 58.184C12.008 57.416 12.192 56.608 12.192 55.76C12.192 54.864 11.984 54.032 11.568 53.264C11.152 52.496 10.592 51.88 9.888 51.416C9.2 50.952 8.416 50.72 7.536 50.72C6.992 50.72 6.416 50.864 5.808 51.152C5.216 51.424 4.688 51.8 4.224 52.28C3.776 52.744 3.512 53.256 3.432 53.816V57.656C3.8 58.536 4.376 59.28 5.16 59.888C5.944 60.496 6.8 60.8 7.728 60.8ZM23.3325 50.936C22.2445 50.968 21.2845 51.272 20.4525 51.848C19.6365 52.424 19.0605 53.216 18.7245 54.224V62H17.0925V49.496H18.6285V52.496C19.0605 51.616 19.6285 50.904 20.3325 50.36C21.0525 49.816 21.8125 49.512 22.6125 49.448C22.7725 49.432 22.9085 49.424 23.0205 49.424C23.1325 49.424 23.2365 49.432 23.3325 49.448V50.936ZM31.0116 62.24C29.8116 62.24 28.7396 61.944 27.7956 61.352C26.8516 60.76 26.1076 59.968 25.5636 58.976C25.0196 57.984 24.7476 56.896 24.7476 55.712C24.7476 54.544 25.0116 53.472 25.5396 52.496C26.0836 51.52 26.8276 50.744 27.7716 50.168C28.7156 49.576 29.7876 49.28 30.9876 49.28C32.2196 49.28 33.2996 49.576 34.2276 50.168C35.1556 50.76 35.8756 51.544 36.3876 52.52C36.9156 53.48 37.1796 54.536 37.1796 55.688C37.1796 55.944 37.1716 56.16 37.1556 56.336H26.4516C26.5316 57.232 26.7876 58.032 27.2196 58.736C27.6516 59.424 28.2036 59.976 28.8756 60.392C29.5476 60.792 30.2836 60.992 31.0836 60.992C31.8996 60.992 32.6676 60.784 33.3876 60.368C34.1076 59.952 34.6196 59.408 34.9236 58.736L36.3396 59.12C36.0836 59.728 35.6836 60.272 35.1396 60.752C34.6116 61.216 33.9956 61.584 33.2916 61.856C32.5876 62.112 31.8276 62.24 31.0116 62.24ZM26.4036 55.16H35.6436C35.5796 54.264 35.3316 53.472 34.8996 52.784C34.4676 52.08 33.9156 51.536 33.2436 51.152C32.5716 50.752 31.8276 50.552 31.0116 50.552C30.1956 50.552 29.4516 50.752 28.7796 51.152C28.1076 51.536 27.5556 52.08 27.1236 52.784C26.7076 53.472 26.4676 54.264 26.4036 55.16ZM44.2815 62.24C43.2575 62.24 42.3055 62.072 41.4255 61.736C40.5615 61.384 39.8015 60.872 39.1455 60.2L39.8175 59.048C40.5215 59.704 41.2255 60.184 41.9295 60.488C42.6495 60.776 43.4095 60.92 44.2095 60.92C45.1695 60.92 45.9535 60.728 46.5615 60.344C47.1855 59.944 47.4975 59.376 47.4975 58.64C47.4975 58.144 47.3455 57.768 47.0415 57.512C46.7535 57.24 46.3295 57.024 45.7695 56.864C45.2255 56.704 44.5695 56.52 43.8015 56.312C42.9375 56.072 42.2095 55.824 41.6175 55.568C41.0415 55.296 40.6015 54.96 40.2975 54.56C40.0095 54.144 39.8655 53.608 39.8655 52.952C39.8655 52.152 40.0655 51.48 40.4655 50.936C40.8815 50.392 41.4415 49.984 42.1455 49.712C42.8655 49.424 43.6655 49.28 44.5455 49.28C45.5055 49.28 46.3535 49.432 47.0895 49.736C47.8255 50.04 48.4255 50.464 48.8895 51.008L48.0975 52.112C47.6655 51.6 47.1295 51.224 46.4895 50.984C45.8655 50.728 45.1855 50.6 44.4495 50.6C43.9375 50.6 43.4495 50.672 42.9855 50.816C42.5215 50.944 42.1375 51.168 41.8335 51.488C41.5455 51.792 41.4015 52.216 41.4015 52.76C41.4015 53.432 41.6495 53.896 42.1455 54.152C42.6415 54.408 43.3935 54.68 44.4015 54.968C45.3455 55.224 46.1695 55.48 46.8735 55.736C47.5775 55.992 48.1215 56.336 48.5055 56.768C48.8895 57.184 49.0815 57.768 49.0815 58.52C49.0815 59.688 48.6415 60.6 47.7615 61.256C46.8815 61.912 45.7215 62.24 44.2815 62.24ZM57.6591 62.24C56.4591 62.24 55.3871 61.944 54.4431 61.352C53.4991 60.76 52.7551 59.968 52.2111 58.976C51.6671 57.984 51.3951 56.896 51.3951 55.712C51.3951 54.544 51.6591 53.472 52.1871 52.496C52.7311 51.52 53.4751 50.744 54.4191 50.168C55.3631 49.576 56.4351 49.28 57.6351 49.28C58.8671 49.28 59.9471 49.576 60.8751 50.168C61.8031 50.76 62.5231 51.544 63.0351 52.52C63.5631 53.48 63.8271 54.536 63.8271 55.688C63.8271 55.944 63.8191 56.16 63.8031 56.336H53.0991C53.1791 57.232 53.4351 58.032 53.8671 58.736C54.2991 59.424 54.8511 59.976 55.5231 60.392C56.1951 60.792 56.9311 60.992 57.7311 60.992C58.5471 60.992 59.3151 60.784 60.0351 60.368C60.7551 59.952 61.2671 59.408 61.5711 58.736L62.9871 59.12C62.7311 59.728 62.3311 60.272 61.7871 60.752C61.2591 61.216 60.6431 61.584 59.9391 61.856C59.2351 62.112 58.4751 62.24 57.6591 62.24ZM53.0511 55.16H62.2911C62.2271 54.264 61.9791 53.472 61.5471 52.784C61.1151 52.08 60.5631 51.536 59.8911 51.152C59.2191 50.752 58.4751 50.552 57.6591 50.552C56.8431 50.552 56.0991 50.752 55.4271 51.152C54.7551 51.536 54.2031 52.08 53.7711 52.784C53.3551 53.472 53.1151 54.264 53.0511 55.16ZM77.337 62H75.705V55.016C75.705 53.544 75.481 52.472 75.033 51.8C74.601 51.112 73.929 50.768 73.017 50.768C72.377 50.768 71.745 50.928 71.121 51.248C70.497 51.552 69.945 51.976 69.465 52.52C69.001 53.048 68.665 53.656 68.457 54.344V62H66.825V49.496H68.313V52.328C68.809 51.416 69.537 50.68 70.497 50.12C71.457 49.56 72.497 49.28 73.617 49.28C74.545 49.28 75.281 49.504 75.825 49.952C76.369 50.384 76.753 51.008 76.977 51.824C77.217 52.624 77.337 53.576 77.337 54.68V62ZM87.18 61.4C86.988 61.48 86.636 61.624 86.124 61.832C85.612 62.04 85.02 62.144 84.348 62.144C83.644 62.144 83.028 61.944 82.5 61.544C81.972 61.144 81.708 60.544 81.708 59.744V50.792H79.98V49.496H81.708V45.272H83.34V49.496H86.22V50.792H83.34V59.288C83.372 59.752 83.532 60.096 83.82 60.32C84.124 60.528 84.468 60.632 84.852 60.632C85.3 60.632 85.7 60.56 86.052 60.416C86.42 60.256 86.652 60.144 86.748 60.08L87.18 61.4ZM93.8031 62.24C92.7791 62.24 91.8271 62.072 90.9471 61.736C90.0831 61.384 89.3231 60.872 88.6671 60.2L89.3391 59.048C90.0431 59.704 90.7471 60.184 91.4511 60.488C92.1711 60.776 92.9311 60.92 93.7311 60.92C94.6911 60.92 95.4751 60.728 96.0831 60.344C96.7071 59.944 97.0191 59.376 97.0191 58.64C97.0191 58.144 96.8671 57.768 96.5631 57.512C96.2751 57.24 95.8511 57.024 95.2911 56.864C94.7471 56.704 94.0911 56.52 93.3231 56.312C92.4591 56.072 91.7311 55.824 91.1391 55.568C90.5631 55.296 90.1231 54.96 89.8191 54.56C89.5311 54.144 89.3871 53.608 89.3871 52.952C89.3871 52.152 89.5871 51.48 89.9871 50.936C90.4031 50.392 90.9631 49.984 91.6671 49.712C92.3871 49.424 93.1871 49.28 94.0671 49.28C95.0271 49.28 95.8751 49.432 96.6111 49.736C97.3471 50.04 97.9471 50.464 98.4111 51.008L97.6191 52.112C97.1871 51.6 96.6511 51.224 96.0111 50.984C95.3871 50.728 94.7071 50.6 93.9711 50.6C93.4591 50.6 92.9711 50.672 92.5071 50.816C92.0431 50.944 91.6591 51.168 91.3551 51.488C91.0671 51.792 90.9231 52.216 90.9231 52.76C90.9231 53.432 91.1711 53.896 91.6671 54.152C92.1631 54.408 92.9151 54.68 93.9231 54.968C94.8671 55.224 95.6911 55.48 96.3951 55.736C97.0991 55.992 97.6431 56.336 98.0271 56.768C98.4111 57.184 98.6031 57.768 98.6031 58.52C98.6031 59.688 98.1631 60.6 97.2831 61.256C96.4031 61.912 95.2431 62.24 93.8031 62.24Z" fill="#FFFF00"/>
<path d="M37.9437 133.869L56.7127 74.6042L81.075 142.953L37.9437 133.869Z" stroke="#51FB81" stroke-width="4.21265"/>
<path d="M30.06 233.484L81.3268 164.241L49.6957 267.305L30.06 233.484Z" stroke="#51FB81" stroke-width="4.21265"/>
<path d="M30.0277 153.604L31.4686 149.826C34.7475 165.011 37.8696 179.469 41.1655 194.739L2.89099 175.896C9.26558 163.206 15.5036 150.787 22.1905 137.464C23.5881 143.267 24.7883 148.257 26.0117 153.346L27.6025 159.964L30.0277 153.604Z" stroke="#51FB81" stroke-width="4.21265"/>
<path d="M38.6018 143.431L80.3116 152.033L49.4271 194.067C48.5334 189.886 47.6513 185.76 46.7752 181.661C44.0521 168.922 41.386 156.449 38.6018 143.431Z" stroke="#51FB81" stroke-width="4.21265"/>
<path d="M40.7767 205.02L25.899 225.457C23.5633 221.226 21.2625 217.057 18.9858 212.931C14.2459 204.341 9.61018 195.94 4.97972 187.566L40.7767 205.02Z" stroke="#51FB81" stroke-width="4.21265"/>
<path d="M221.625 102.034H203.376L203.311 165.152C203.267 168.247 202.94 170.973 202.33 173.327C201.719 175.682 200.804 177.644 199.583 179.214C198.449 180.74 197.01 181.896 195.266 182.68C193.565 183.422 191.603 183.792 189.379 183.792C187.33 183.792 185.52 183.444 183.951 182.746C182.381 182.005 181.051 180.915 179.961 179.476C178.784 177.906 177.89 175.922 177.279 173.524C176.712 171.125 176.407 168.335 176.364 165.152L176.298 102.034H157.919L157.854 165.152C157.854 170.471 158.595 175.224 160.077 179.41C161.603 183.553 163.74 187.041 166.487 189.875C169.234 192.709 172.526 194.868 176.364 196.35C180.244 197.833 184.583 198.574 189.379 198.574C194.481 198.574 199.016 197.833 202.984 196.35C206.996 194.868 210.397 192.688 213.187 189.81C215.934 186.976 218.027 183.487 219.466 179.345C220.949 175.202 221.69 170.471 221.69 165.152L221.625 102.034ZM232.03 161.358V162.732C232.03 167.877 232.662 172.652 233.926 177.056C235.191 181.416 237.022 185.188 239.421 188.371C241.775 191.554 244.653 194.061 248.054 195.893C251.499 197.68 255.38 198.574 259.697 198.574C263.664 198.574 267.153 197.811 270.162 196.285C273.17 194.759 275.786 192.622 278.01 189.875L278.926 197.266H295.343V96.8019H277.095V132.841C274.914 130.399 272.407 128.524 269.573 127.216C266.782 125.864 263.534 125.188 259.827 125.188C255.423 125.188 251.499 126.06 248.054 127.805C244.653 129.549 241.753 132.012 239.355 135.195C236.957 138.379 235.125 142.194 233.861 146.642C232.64 151.089 232.03 155.995 232.03 161.358ZM250.213 162.732V161.358C250.213 158.393 250.474 155.624 250.997 153.051C251.521 150.435 252.349 148.146 253.483 146.184C254.617 144.265 256.077 142.761 257.865 141.671C259.697 140.537 261.899 139.97 264.471 139.97C267.567 139.97 270.14 140.646 272.189 141.998C274.239 143.306 275.874 145.159 277.095 147.557V176.205C275.874 178.56 274.217 180.413 272.124 181.765C270.074 183.117 267.48 183.792 264.34 183.792C261.768 183.792 259.587 183.247 257.8 182.157C256.012 181.067 254.551 179.563 253.417 177.644C252.284 175.769 251.455 173.567 250.932 171.038C250.452 168.465 250.213 165.697 250.213 162.732ZM307.187 161.358V162.732C307.187 167.877 307.841 172.652 309.149 177.056C310.501 181.416 312.419 185.188 314.905 188.371C317.39 191.554 320.377 194.061 323.865 195.893C327.397 197.68 331.365 198.574 335.769 198.574C337.993 198.574 340.064 198.334 341.983 197.855C343.945 197.375 345.733 196.699 347.346 195.827C348.436 195.217 349.461 194.519 350.42 193.734C351.38 192.949 352.295 192.077 353.167 191.118V195.173C353.167 197.571 352.819 199.73 352.121 201.648C351.467 203.567 350.508 205.18 349.243 206.488C347.848 207.927 346.104 209.017 344.011 209.759C341.961 210.5 339.607 210.871 336.947 210.871C335.29 210.871 333.676 210.696 332.107 210.347C330.58 210.042 329.098 209.563 327.659 208.908C326.176 208.254 324.759 207.404 323.408 206.358C322.056 205.355 320.791 204.177 319.614 202.826L311.438 213.879C312.964 215.842 314.796 217.52 316.932 218.916C319.069 220.355 321.336 221.532 323.735 222.448C326.133 223.363 328.553 224.039 330.995 224.475C333.437 224.911 335.726 225.129 337.862 225.129C342.833 225.129 347.368 224.453 351.467 223.102C355.609 221.794 359.163 219.853 362.128 217.28C365.05 214.708 367.317 211.547 368.93 207.797C370.587 204.047 371.416 199.773 371.416 194.977V126.496H354.868L354.149 133.233C353.276 132.143 352.317 131.162 351.271 130.29C350.224 129.374 349.09 128.589 347.87 127.935C346.256 127.02 344.447 126.344 342.441 125.908C340.479 125.428 338.298 125.188 335.9 125.188C331.453 125.188 327.463 126.06 323.931 127.805C320.399 129.549 317.39 132.012 314.905 135.195C312.419 138.379 310.501 142.194 309.149 146.642C307.841 151.089 307.187 155.995 307.187 161.358ZM325.435 162.732V161.358C325.435 158.393 325.74 155.624 326.351 153.051C326.961 150.435 327.899 148.146 329.163 146.184C330.384 144.265 331.932 142.761 333.807 141.671C335.682 140.537 337.906 139.97 340.479 139.97C341.874 139.97 343.16 140.101 344.338 140.363C345.559 140.624 346.67 140.995 347.673 141.474C348.851 142.041 349.897 142.783 350.813 143.698C351.729 144.614 352.513 145.682 353.167 146.903V176.859C352.557 177.949 351.838 178.931 351.009 179.803C350.181 180.675 349.221 181.416 348.131 182.026C347.085 182.593 345.907 183.029 344.599 183.335C343.335 183.64 341.918 183.792 340.348 183.792C337.775 183.792 335.551 183.247 333.676 182.157C331.801 181.067 330.253 179.563 329.033 177.644C327.812 175.769 326.896 173.567 326.285 171.038C325.719 168.465 325.435 165.697 325.435 162.732ZM428.325 197.266H446.769V196.154C445.854 194.366 445.156 192.23 444.676 189.744C444.197 187.259 443.957 184.119 443.957 180.326V149.977C443.957 145.878 443.194 142.281 441.668 139.185C440.141 136.046 438.027 133.451 435.323 131.402C432.62 129.352 429.415 127.805 425.708 126.758C422.046 125.712 418.078 125.188 413.804 125.188C409.052 125.188 404.822 125.799 401.116 127.02C397.453 128.197 394.357 129.81 391.828 131.86C389.255 133.909 387.293 136.286 385.941 138.989C384.633 141.692 383.979 144.549 383.979 147.557H402.162C402.162 146.293 402.337 145.137 402.685 144.091C403.078 143.044 403.666 142.15 404.451 141.409C405.323 140.581 406.457 139.948 407.852 139.512C409.248 139.033 410.905 138.793 412.823 138.793C415.004 138.793 416.9 139.076 418.514 139.643C420.171 140.166 421.544 140.929 422.634 141.932C423.681 142.892 424.466 144.047 424.989 145.399C425.512 146.707 425.774 148.19 425.774 149.846V154.032H415.636C410.403 154.032 405.759 154.512 401.704 155.471C397.693 156.387 394.313 157.739 391.566 159.527C388.514 161.489 386.225 163.996 384.699 167.048C383.172 170.057 382.409 173.524 382.409 177.448C382.409 180.5 383.02 183.335 384.241 185.951C385.462 188.523 387.162 190.747 389.342 192.622C391.523 194.497 394.117 195.958 397.126 197.004C400.178 198.051 403.514 198.574 407.133 198.574C409.357 198.574 411.428 198.356 413.347 197.92C415.265 197.528 417.031 196.961 418.645 196.22C420.214 195.522 421.653 194.693 422.961 193.734C424.269 192.775 425.425 191.75 426.428 190.66C426.646 191.925 426.908 193.124 427.213 194.257C427.518 195.391 427.889 196.394 428.325 197.266ZM410.992 184.512C409.291 184.512 407.787 184.316 406.479 183.923C405.214 183.487 404.146 182.92 403.274 182.223C402.402 181.481 401.726 180.587 401.246 179.541C400.81 178.451 400.592 177.274 400.592 176.009C400.592 174.396 400.898 172.913 401.508 171.561C402.118 170.166 403.056 168.967 404.321 167.964C405.585 167.005 407.22 166.263 409.226 165.74C411.232 165.173 413.652 164.89 416.486 164.89H425.774V177.056C425.251 177.971 424.531 178.887 423.615 179.803C422.7 180.675 421.61 181.46 420.345 182.157C419.081 182.855 417.663 183.422 416.094 183.858C414.524 184.294 412.823 184.512 410.992 184.512ZM470.517 126.496H454.885V197.266H471.433V144.287C471.651 143.72 471.891 143.197 472.152 142.717C472.414 142.238 472.719 141.823 473.068 141.474C473.548 140.995 474.093 140.624 474.703 140.363C475.313 140.101 476.011 139.97 476.796 139.97C477.494 139.97 478.148 140.079 478.758 140.297C479.369 140.472 479.914 140.799 480.393 141.278C480.829 141.758 481.178 142.434 481.44 143.306C481.702 144.178 481.832 145.29 481.832 146.642V197.266H497.857V145.072C497.857 144.549 497.857 144.134 497.857 143.829C497.857 143.524 497.857 143.328 497.857 143.24C498.075 142.761 498.337 142.347 498.642 141.998C498.947 141.605 499.296 141.256 499.688 140.951C500.168 140.646 500.669 140.406 501.193 140.232C501.759 140.057 502.392 139.97 503.089 139.97C503.743 139.97 504.376 140.079 504.986 140.297C505.64 140.472 506.207 140.799 506.687 141.278C507.166 141.801 507.537 142.499 507.799 143.371C508.104 144.243 508.257 145.355 508.257 146.707V197.266H524.804V146.772C524.804 142.848 524.412 139.534 523.627 136.831C522.886 134.084 521.839 131.838 520.487 130.094C519.092 128.393 517.457 127.15 515.582 126.366C513.751 125.581 511.767 125.188 509.63 125.188C507.929 125.188 506.36 125.406 504.921 125.842C503.482 126.278 502.196 126.889 501.062 127.674C500.146 128.284 499.296 129.025 498.511 129.898C497.77 130.726 497.094 131.663 496.483 132.71C496.091 131.62 495.611 130.661 495.044 129.832C494.521 128.96 493.889 128.219 493.148 127.608C492.188 126.78 491.055 126.169 489.746 125.777C488.438 125.384 486.956 125.188 485.299 125.188C481.898 125.188 478.998 126.082 476.6 127.87C474.245 129.614 472.392 132.012 471.04 135.065L470.517 126.496ZM671.652 197.266V182.68H629.857L647.779 163.713C650.875 160.53 653.687 157.499 656.216 154.621C658.745 151.7 660.926 148.844 662.757 146.053C664.545 143.262 665.918 140.45 666.877 137.615C667.88 134.738 668.382 131.729 668.382 128.589C668.382 124.447 667.728 120.675 666.42 117.274C665.112 113.829 663.215 110.886 660.729 108.444C658.2 106.002 655.061 104.106 651.311 102.754C647.604 101.402 643.331 100.726 638.491 100.726C633.433 100.726 628.811 101.555 624.625 103.212C620.483 104.825 616.951 107.049 614.029 109.883C611.064 112.717 608.775 116.031 607.161 119.825C605.548 123.575 604.741 127.565 604.741 131.794H622.99C622.99 129.222 623.317 126.932 623.971 124.927C624.625 122.921 625.584 121.242 626.849 119.89C628.07 118.582 629.596 117.601 631.427 116.947C633.302 116.249 635.461 115.901 637.902 115.901C639.777 115.901 641.478 116.206 643.004 116.816C644.574 117.427 645.926 118.299 647.059 119.433C648.149 120.61 649 122.027 649.61 123.684C650.221 125.341 650.526 127.238 650.526 129.374C650.526 130.813 650.286 132.296 649.806 133.822C649.37 135.348 648.651 136.983 647.648 138.727C646.602 140.515 645.25 142.477 643.593 144.614C641.936 146.751 639.908 149.127 637.51 151.743L606.704 184.839V197.266H671.652ZM746.482 161.031V138.27C746.482 132.121 745.763 126.714 744.324 122.049C742.885 117.339 740.836 113.393 738.176 110.21C735.472 107.071 732.202 104.694 728.365 103.081C724.528 101.468 720.211 100.661 715.414 100.661C710.661 100.661 706.366 101.468 702.529 103.081C698.736 104.694 695.509 107.071 692.849 110.21C690.146 113.393 688.074 117.339 686.635 122.049C685.197 126.714 684.477 132.121 684.477 138.27V161.031C684.477 167.179 685.197 172.608 686.635 177.317C688.118 181.983 690.211 185.885 692.914 189.025C695.574 192.208 698.823 194.606 702.66 196.22C706.497 197.833 710.792 198.64 715.545 198.64C720.342 198.64 724.658 197.833 728.496 196.22C732.333 194.606 735.581 192.208 738.241 189.025C740.901 185.885 742.929 181.983 744.324 177.317C745.763 172.608 746.482 167.179 746.482 161.031ZM702.791 153.182C702.791 151.83 702.791 150.806 702.791 150.108C702.791 149.41 702.791 148.015 702.791 145.922V135.392C702.791 131.86 703.052 128.807 703.576 126.235C704.143 123.662 704.993 121.569 706.127 119.956C707.173 118.43 708.459 117.296 709.986 116.555C711.555 115.77 713.365 115.377 715.414 115.377C717.246 115.377 718.881 115.683 720.32 116.293C721.802 116.86 723.045 117.754 724.048 118.975C725.356 120.501 726.337 122.55 726.991 125.123C727.689 127.652 728.081 130.704 728.169 134.28L702.791 153.182ZM728.169 163.778C728.169 167.31 727.885 170.384 727.318 173C726.795 175.573 725.988 177.688 724.898 179.345C723.852 180.915 722.544 182.092 720.974 182.877C719.404 183.618 717.595 183.989 715.545 183.989C713.321 183.989 711.403 183.553 709.789 182.68C708.176 181.808 706.846 180.478 705.8 178.691C704.884 177.208 704.164 175.355 703.641 173.131C703.161 170.907 702.878 168.356 702.791 165.479L728.169 146.642C728.169 147.906 728.169 148.887 728.169 149.585C728.169 150.239 728.169 151.285 728.169 152.724V163.778ZM821.836 197.266V182.68H780.041L797.962 163.713C801.058 160.53 803.871 157.499 806.4 154.621C808.929 151.7 811.109 148.844 812.94 146.053C814.728 143.262 816.102 140.45 817.061 137.615C818.064 134.738 818.565 131.729 818.565 128.589C818.565 124.447 817.911 120.675 816.603 117.274C815.295 113.829 813.398 110.886 810.913 108.444C808.384 106.002 805.244 104.106 801.494 102.754C797.788 101.402 793.515 100.726 788.675 100.726C783.617 100.726 778.994 101.555 774.808 103.212C770.666 104.825 767.134 107.049 764.213 109.883C761.248 112.717 758.958 116.031 757.345 119.825C755.732 123.575 754.925 127.565 754.925 131.794H773.173C773.173 129.222 773.5 126.932 774.154 124.927C774.808 122.921 775.768 121.242 777.032 119.89C778.253 118.582 779.779 117.601 781.611 116.947C783.486 116.249 785.644 115.901 788.086 115.901C789.961 115.901 791.662 116.206 793.188 116.816C794.757 117.427 796.109 118.299 797.243 119.433C798.333 120.61 799.183 122.027 799.794 123.684C800.404 125.341 800.709 127.238 800.709 129.374C800.709 130.813 800.47 132.296 799.99 133.822C799.554 135.348 798.834 136.983 797.832 138.727C796.785 140.515 795.433 142.477 793.776 144.614C792.119 146.751 790.092 149.127 787.694 151.743L756.887 184.839V197.266H821.836ZM879.202 197.266V102.034H878.221L836.754 117.012V132.841L860.823 124.207V197.266H879.202Z" fill="#51FB81"/>
<path d="M164.859 245.689V242.782H149.955V245.689H155.579V261.266H159.159V245.689H164.859ZM170.547 249.421V241.766H167.018V261.266H170.547V251.351C170.682 251.173 170.83 251.013 170.991 250.869C171.16 250.725 171.347 250.602 171.55 250.5C171.77 250.382 172.015 250.293 172.286 250.234C172.557 250.175 172.849 250.145 173.162 250.145C173.568 250.145 173.932 250.2 174.254 250.31C174.576 250.412 174.851 250.572 175.079 250.792C175.308 251.013 175.481 251.3 175.6 251.656C175.727 252.011 175.79 252.434 175.79 252.925V261.266H179.319V252.951C179.319 251.944 179.197 251.084 178.951 250.374C178.714 249.654 178.38 249.066 177.948 248.609C177.517 248.152 177 247.818 176.399 247.606C175.799 247.386 175.138 247.276 174.419 247.276C173.928 247.276 173.463 247.348 173.022 247.492C172.582 247.636 172.18 247.839 171.816 248.101C171.579 248.27 171.351 248.469 171.131 248.698C170.919 248.918 170.725 249.159 170.547 249.421ZM189.298 261.52C190.627 261.52 191.778 261.262 192.751 260.746C193.724 260.229 194.435 259.654 194.884 259.019L193.119 257.115C192.713 257.639 192.184 258.033 191.532 258.295C190.881 258.558 190.208 258.689 189.514 258.689C189.023 258.689 188.57 258.613 188.155 258.46C187.741 258.308 187.372 258.092 187.051 257.813C186.738 257.542 186.488 257.242 186.302 256.912C186.116 256.573 185.963 256.129 185.845 255.579V255.541H195.163V254.042C195.163 253.035 195.023 252.117 194.744 251.288C194.465 250.45 194.059 249.735 193.525 249.142C192.984 248.55 192.324 248.093 191.545 247.771C190.775 247.441 189.895 247.276 188.904 247.276C187.948 247.276 187.063 247.449 186.251 247.796C185.438 248.143 184.736 248.63 184.144 249.256C183.551 249.883 183.09 250.632 182.76 251.503C182.43 252.367 182.265 253.323 182.265 254.373V254.88C182.265 255.803 182.43 256.67 182.76 257.483C183.098 258.287 183.576 258.985 184.194 259.578C184.812 260.179 185.553 260.653 186.416 261C187.279 261.347 188.24 261.52 189.298 261.52ZM188.879 250.132C189.327 250.132 189.721 250.204 190.06 250.348C190.407 250.484 190.699 250.67 190.936 250.907C191.173 251.152 191.359 251.44 191.494 251.77C191.63 252.1 191.697 252.451 191.697 252.824V253.103H185.908C185.993 252.654 186.12 252.248 186.289 251.884C186.458 251.52 186.67 251.207 186.924 250.945C187.169 250.682 187.457 250.484 187.787 250.348C188.117 250.204 188.481 250.132 188.879 250.132ZM222.826 257.407L223.905 261.266H227.663L221.722 242.782H218.484L212.429 261.266H216.187L217.278 257.407H222.826ZM218.154 254.373L220.097 247.568L221.988 254.373H218.154ZM229.479 261.266H233.021V251.503C233.139 251.317 233.27 251.148 233.414 250.996C233.558 250.843 233.719 250.712 233.896 250.602C234.117 250.45 234.366 250.335 234.646 250.259C234.933 250.183 235.246 250.145 235.585 250.145C235.991 250.145 236.355 250.187 236.677 250.272C236.998 250.348 237.273 250.488 237.502 250.691C237.73 250.894 237.904 251.173 238.022 251.529C238.149 251.876 238.213 252.32 238.213 252.862V261.266H241.742V252.811C241.742 251.812 241.624 250.966 241.387 250.272C241.158 249.569 240.837 248.994 240.422 248.545C239.999 248.105 239.499 247.784 238.924 247.581C238.348 247.377 237.714 247.276 237.02 247.276C236.478 247.276 235.966 247.352 235.483 247.504C235.001 247.657 234.557 247.877 234.15 248.165C233.913 248.334 233.689 248.524 233.478 248.736C233.266 248.947 233.071 249.18 232.894 249.434L232.678 247.53H229.479V261.266ZM245.094 261.266H248.636V251.503C248.754 251.317 248.885 251.148 249.029 250.996C249.173 250.843 249.334 250.712 249.512 250.602C249.732 250.45 249.981 250.335 250.261 250.259C250.549 250.183 250.862 250.145 251.2 250.145C251.606 250.145 251.97 250.187 252.292 250.272C252.614 250.348 252.889 250.488 253.117 250.691C253.346 250.894 253.519 251.173 253.638 251.529C253.765 251.876 253.828 252.32 253.828 252.862V261.266H257.357V252.811C257.357 251.812 257.239 250.966 257.002 250.272C256.773 249.569 256.452 248.994 256.037 248.545C255.614 248.105 255.115 247.784 254.539 247.581C253.964 247.377 253.329 247.276 252.635 247.276C252.093 247.276 251.581 247.352 251.099 247.504C250.616 247.657 250.172 247.877 249.766 248.165C249.529 248.334 249.304 248.524 249.093 248.736C248.881 248.947 248.687 249.18 248.509 249.434L248.293 247.53H245.094V261.266ZM269.672 261.266H272.871V247.53H269.329V257.166C269.219 257.386 269.088 257.584 268.936 257.762C268.783 257.94 268.61 258.092 268.415 258.219C268.187 258.363 267.92 258.473 267.615 258.549C267.319 258.625 266.985 258.664 266.612 258.664C266.198 258.664 265.846 258.613 265.559 258.511C265.271 258.41 265.038 258.24 264.86 258.003C264.683 257.775 264.551 257.47 264.467 257.089C264.391 256.708 264.353 256.239 264.353 255.68V247.53H260.823V255.655C260.823 256.696 260.938 257.589 261.166 258.333C261.403 259.07 261.733 259.675 262.156 260.149C262.579 260.631 263.087 260.983 263.68 261.203C264.272 261.423 264.924 261.533 265.635 261.533C266.413 261.533 267.129 261.338 267.78 260.949C268.44 260.559 269.003 260.022 269.469 259.336L269.672 261.266ZM284.906 261.266H288.486V261.05C288.309 260.703 288.173 260.289 288.08 259.806C287.987 259.324 287.94 258.714 287.94 257.978V252.087C287.94 251.292 287.792 250.594 287.496 249.993C287.2 249.383 286.789 248.88 286.265 248.482C285.74 248.084 285.118 247.784 284.398 247.581C283.688 247.377 282.917 247.276 282.088 247.276C281.165 247.276 280.344 247.394 279.625 247.631C278.914 247.86 278.313 248.173 277.822 248.571C277.323 248.969 276.942 249.43 276.68 249.955C276.426 250.479 276.299 251.034 276.299 251.618H279.828C279.828 251.372 279.862 251.148 279.93 250.945C280.006 250.742 280.12 250.568 280.272 250.424C280.442 250.264 280.662 250.141 280.933 250.056C281.203 249.963 281.525 249.917 281.897 249.917C282.321 249.917 282.689 249.972 283.002 250.082C283.324 250.183 283.59 250.331 283.802 250.526C284.005 250.712 284.157 250.936 284.259 251.199C284.36 251.453 284.411 251.74 284.411 252.062V252.875H282.443C281.428 252.875 280.526 252.968 279.739 253.154C278.961 253.332 278.305 253.594 277.771 253.941C277.179 254.322 276.735 254.808 276.438 255.401C276.142 255.985 275.994 256.658 275.994 257.419C275.994 258.012 276.113 258.562 276.35 259.07C276.587 259.569 276.917 260.001 277.34 260.365C277.763 260.729 278.267 261.012 278.851 261.215C279.443 261.418 280.09 261.52 280.793 261.52C281.225 261.52 281.627 261.478 281.999 261.393C282.371 261.317 282.714 261.207 283.027 261.063C283.332 260.928 283.611 260.767 283.865 260.581C284.119 260.394 284.343 260.195 284.538 259.984C284.58 260.229 284.631 260.462 284.69 260.682C284.75 260.902 284.822 261.097 284.906 261.266ZM281.542 258.791C281.212 258.791 280.92 258.752 280.666 258.676C280.421 258.592 280.213 258.482 280.044 258.346C279.875 258.202 279.743 258.029 279.65 257.826C279.566 257.614 279.523 257.386 279.523 257.14C279.523 256.827 279.583 256.539 279.701 256.277C279.82 256.006 280.002 255.773 280.247 255.579C280.493 255.392 280.81 255.249 281.199 255.147C281.589 255.037 282.058 254.982 282.608 254.982H284.411V257.343C284.31 257.521 284.17 257.699 283.992 257.876C283.814 258.046 283.603 258.198 283.357 258.333C283.112 258.469 282.837 258.579 282.532 258.664C282.228 258.748 281.897 258.791 281.542 258.791ZM292.676 241.766V244.648H296.789V258.397H292.676V261.266H304.292V258.397H300.356V241.766H292.676ZM334.418 253.167V250.348H326.826V245.689H335.662V242.782H323.246V261.266H335.7V258.384H326.826V253.167H334.418ZM338.785 261.266H342.327V251.503C342.446 251.317 342.577 251.148 342.721 250.996C342.865 250.843 343.025 250.712 343.203 250.602C343.423 250.45 343.673 250.335 343.952 250.259C344.24 250.183 344.553 250.145 344.892 250.145C345.298 250.145 345.662 250.187 345.983 250.272C346.305 250.348 346.58 250.488 346.809 250.691C347.037 250.894 347.211 251.173 347.329 251.529C347.456 251.876 347.52 252.32 347.52 252.862V261.266H351.049V252.811C351.049 251.812 350.93 250.966 350.693 250.272C350.465 249.569 350.143 248.994 349.729 248.545C349.305 248.105 348.806 247.784 348.23 247.581C347.655 247.377 347.02 247.276 346.326 247.276C345.785 247.276 345.272 247.352 344.79 247.504C344.308 247.657 343.863 247.877 343.457 248.165C343.22 248.334 342.996 248.524 342.784 248.736C342.573 248.947 342.378 249.18 342.2 249.434L341.984 247.53H338.785V261.266ZM360.875 244.166H357.346V247.53H354.21V250.132H357.346V256.378C357.346 257.284 357.464 258.063 357.701 258.714C357.938 259.358 358.277 259.887 358.717 260.301C359.148 260.724 359.669 261.038 360.278 261.241C360.896 261.435 361.582 261.533 362.335 261.533C362.724 261.533 363.118 261.512 363.516 261.469C363.922 261.435 364.311 261.385 364.684 261.317C365.056 261.249 365.407 261.165 365.737 261.063C366.067 260.953 366.355 260.826 366.601 260.682L366.258 258.257C366.097 258.3 365.902 258.342 365.674 258.384C365.454 258.427 365.217 258.465 364.963 258.499C364.701 258.541 364.425 258.575 364.138 258.6C363.858 258.625 363.583 258.638 363.312 258.638C362.94 258.638 362.602 258.596 362.297 258.511C362.001 258.427 361.747 258.283 361.535 258.08C361.324 257.885 361.159 257.623 361.04 257.292C360.93 256.954 360.875 256.535 360.875 256.036V250.132H366.004V247.53H360.875V244.166ZM379.88 247.276C378.957 247.276 378.107 247.5 377.328 247.949C376.549 248.389 375.881 248.998 375.322 249.777L375.297 249.472L375.157 247.53H371.869V261.266H375.398V253.014C375.559 252.625 375.762 252.286 376.008 251.999C376.253 251.711 376.549 251.474 376.896 251.288C377.184 251.127 377.51 251.008 377.874 250.932C378.246 250.847 378.661 250.805 379.118 250.805C379.558 250.805 380.02 250.835 380.502 250.894C380.993 250.945 381.471 251.025 381.937 251.135L382.457 247.619C382.178 247.534 381.81 247.458 381.353 247.39C380.904 247.314 380.413 247.276 379.88 247.276ZM392.296 261.52C393.625 261.52 394.776 261.262 395.749 260.746C396.722 260.229 397.433 259.654 397.882 259.019L396.117 257.115C395.711 257.639 395.182 258.033 394.53 258.295C393.879 258.558 393.206 258.689 392.512 258.689C392.021 258.689 391.568 258.613 391.153 258.46C390.739 258.308 390.37 258.092 390.049 257.813C389.736 257.542 389.486 257.242 389.3 256.912C389.114 256.573 388.961 256.129 388.843 255.579V255.541H398.161V254.042C398.161 253.035 398.021 252.117 397.742 251.288C397.463 250.45 397.057 249.735 396.523 249.142C395.982 248.55 395.322 248.093 394.543 247.771C393.773 247.441 392.893 247.276 391.902 247.276C390.946 247.276 390.062 247.449 389.249 247.796C388.437 248.143 387.734 248.63 387.142 249.256C386.549 249.883 386.088 250.632 385.758 251.503C385.428 252.367 385.263 253.323 385.263 254.373V254.88C385.263 255.803 385.428 256.67 385.758 257.483C386.096 258.287 386.575 258.985 387.192 259.578C387.81 260.179 388.551 260.653 389.414 261C390.277 261.347 391.238 261.52 392.296 261.52ZM391.877 250.132C392.326 250.132 392.719 250.204 393.058 250.348C393.405 250.484 393.697 250.67 393.934 250.907C394.171 251.152 394.357 251.44 394.492 251.77C394.628 252.1 394.695 252.451 394.695 252.824V253.103H388.906C388.991 252.654 389.118 252.248 389.287 251.884C389.456 251.52 389.668 251.207 389.922 250.945C390.167 250.682 390.455 250.484 390.785 250.348C391.115 250.204 391.479 250.132 391.877 250.132ZM401.297 266.547H404.826V260.073C404.987 260.25 405.156 260.411 405.334 260.555C405.512 260.699 405.698 260.83 405.893 260.949C406.223 261.135 406.578 261.275 406.959 261.368C407.348 261.469 407.771 261.52 408.229 261.52C409.092 261.52 409.858 261.342 410.526 260.987C411.195 260.631 411.758 260.14 412.215 259.514C412.663 258.896 413.002 258.16 413.23 257.305C413.467 256.45 413.586 255.524 413.586 254.525V254.258C413.586 253.217 413.467 252.269 413.23 251.415C413.002 250.551 412.659 249.811 412.202 249.193C411.745 248.583 411.182 248.114 410.514 247.784C409.845 247.445 409.075 247.276 408.203 247.276C407.78 247.276 407.382 247.322 407.01 247.416C406.646 247.5 406.312 247.623 406.007 247.784C405.753 247.919 405.516 248.08 405.296 248.266C405.076 248.444 404.873 248.647 404.687 248.875L404.56 247.53H401.297V266.547ZM410.057 254.258V254.525C410.057 255.092 410.006 255.629 409.904 256.137C409.803 256.637 409.642 257.077 409.422 257.458C409.202 257.838 408.914 258.139 408.559 258.359C408.212 258.579 407.788 258.689 407.289 258.689C406.976 258.689 406.692 258.659 406.438 258.6C406.185 258.532 405.96 258.439 405.766 258.321C405.562 258.194 405.381 258.042 405.22 257.864C405.067 257.686 404.936 257.487 404.826 257.267V251.529C404.945 251.292 405.084 251.084 405.245 250.907C405.414 250.729 405.609 250.581 405.829 250.462C406.024 250.361 406.24 250.285 406.477 250.234C406.714 250.175 406.976 250.145 407.264 250.145C407.763 250.145 408.186 250.251 408.533 250.462C408.889 250.674 409.181 250.962 409.409 251.326C409.629 251.698 409.79 252.138 409.892 252.646C410.002 253.145 410.057 253.683 410.057 254.258ZM426.726 247.276C425.803 247.276 424.952 247.5 424.174 247.949C423.395 248.389 422.727 248.998 422.168 249.777L422.143 249.472L422.003 247.53H418.715V261.266H422.244V253.014C422.405 252.625 422.608 252.286 422.854 251.999C423.099 251.711 423.395 251.474 423.742 251.288C424.03 251.127 424.356 251.008 424.72 250.932C425.092 250.847 425.507 250.805 425.964 250.805C426.404 250.805 426.865 250.835 427.348 250.894C427.839 250.945 428.317 251.025 428.782 251.135L429.303 247.619C429.023 247.534 428.655 247.458 428.198 247.39C427.75 247.314 427.259 247.276 426.726 247.276ZM439.142 261.52C440.47 261.52 441.621 261.262 442.595 260.746C443.568 260.229 444.279 259.654 444.728 259.019L442.963 257.115C442.557 257.639 442.028 258.033 441.376 258.295C440.724 258.558 440.051 258.689 439.357 258.689C438.867 258.689 438.414 258.613 437.999 258.46C437.584 258.308 437.216 258.092 436.895 257.813C436.581 257.542 436.332 257.242 436.146 256.912C435.959 256.573 435.807 256.129 435.688 255.579V255.541H445.007V254.042C445.007 253.035 444.867 252.117 444.588 251.288C444.309 250.45 443.902 249.735 443.369 249.142C442.827 248.55 442.167 248.093 441.389 247.771C440.618 247.441 439.738 247.276 438.748 247.276C437.792 247.276 436.907 247.449 436.095 247.796C435.282 248.143 434.58 248.63 433.987 249.256C433.395 249.883 432.934 250.632 432.604 251.503C432.273 252.367 432.108 253.323 432.108 254.373V254.88C432.108 255.803 432.273 256.67 432.604 257.483C432.942 258.287 433.42 258.985 434.038 259.578C434.656 260.179 435.396 260.653 436.26 261C437.123 261.347 438.084 261.52 439.142 261.52ZM438.723 250.132C439.171 250.132 439.565 250.204 439.903 250.348C440.25 250.484 440.542 250.67 440.779 250.907C441.016 251.152 441.202 251.44 441.338 251.77C441.473 252.1 441.541 252.451 441.541 252.824V253.103H435.752C435.837 252.654 435.964 252.248 436.133 251.884C436.302 251.52 436.514 251.207 436.768 250.945C437.013 250.682 437.301 250.484 437.631 250.348C437.961 250.204 438.325 250.132 438.723 250.132ZM448.092 261.266H451.634V251.503C451.752 251.317 451.883 251.148 452.027 250.996C452.171 250.843 452.332 250.712 452.51 250.602C452.73 250.45 452.979 250.335 453.259 250.259C453.547 250.183 453.86 250.145 454.198 250.145C454.604 250.145 454.968 250.187 455.29 250.272C455.612 250.348 455.887 250.488 456.115 250.691C456.344 250.894 456.517 251.173 456.636 251.529C456.763 251.876 456.826 252.32 456.826 252.862V261.266H460.355V252.811C460.355 251.812 460.237 250.966 460 250.272C459.771 249.569 459.45 248.994 459.035 248.545C458.612 248.105 458.113 247.784 457.537 247.581C456.962 247.377 456.327 247.276 455.633 247.276C455.091 247.276 454.579 247.352 454.097 247.504C453.614 247.657 453.17 247.877 452.764 248.165C452.527 248.334 452.302 248.524 452.091 248.736C451.879 248.947 451.685 249.18 451.507 249.434L451.291 247.53H448.092V261.266ZM470.372 261.52C471.701 261.52 472.852 261.262 473.825 260.746C474.799 260.229 475.509 259.654 475.958 259.019L474.193 257.115C473.787 257.639 473.258 258.033 472.606 258.295C471.955 258.558 471.282 258.689 470.588 258.689C470.097 258.689 469.644 258.613 469.229 258.46C468.815 258.308 468.447 258.092 468.125 257.813C467.812 257.542 467.562 257.242 467.376 256.912C467.19 256.573 467.037 256.129 466.919 255.579V255.541H476.237V254.042C476.237 253.035 476.098 252.117 475.818 251.288C475.539 250.45 475.133 249.735 474.6 249.142C474.058 248.55 473.398 248.093 472.619 247.771C471.849 247.441 470.969 247.276 469.979 247.276C469.022 247.276 468.138 247.449 467.325 247.796C466.513 248.143 465.81 248.63 465.218 249.256C464.625 249.883 464.164 250.632 463.834 251.503C463.504 252.367 463.339 253.323 463.339 254.373V254.88C463.339 255.803 463.504 256.67 463.834 257.483C464.173 258.287 464.651 258.985 465.269 259.578C465.886 260.179 466.627 260.653 467.49 261C468.354 261.347 469.314 261.52 470.372 261.52ZM469.953 250.132C470.402 250.132 470.795 250.204 471.134 250.348C471.481 250.484 471.773 250.67 472.01 250.907C472.247 251.152 472.433 251.44 472.568 251.77C472.704 252.1 472.771 252.451 472.771 252.824V253.103H466.982C467.067 252.654 467.194 252.248 467.363 251.884C467.533 251.52 467.744 251.207 467.998 250.945C468.243 250.682 468.531 250.484 468.861 250.348C469.191 250.204 469.555 250.132 469.953 250.132ZM488.285 261.266H491.484V247.53H487.942V257.166C487.832 257.386 487.701 257.584 487.549 257.762C487.396 257.94 487.223 258.092 487.028 258.219C486.8 258.363 486.533 258.473 486.229 258.549C485.932 258.625 485.598 258.664 485.226 258.664C484.811 258.664 484.46 258.613 484.172 258.511C483.884 258.41 483.651 258.24 483.474 258.003C483.296 257.775 483.165 257.47 483.08 257.089C483.004 256.708 482.966 256.239 482.966 255.68V247.53H479.437V255.655C479.437 256.696 479.551 257.589 479.779 258.333C480.016 259.07 480.346 259.675 480.77 260.149C481.193 260.631 481.701 260.983 482.293 261.203C482.885 261.423 483.537 261.533 484.248 261.533C485.027 261.533 485.742 261.338 486.394 260.949C487.054 260.559 487.617 260.022 488.082 259.336L488.285 261.266ZM504.802 247.276C503.879 247.276 503.029 247.5 502.25 247.949C501.471 248.389 500.803 248.998 500.244 249.777L500.219 249.472L500.079 247.53H496.791V261.266H500.32V253.014C500.481 252.625 500.684 252.286 500.93 251.999C501.175 251.711 501.471 251.474 501.818 251.288C502.106 251.127 502.432 251.008 502.796 250.932C503.168 250.847 503.583 250.805 504.04 250.805C504.48 250.805 504.941 250.835 505.424 250.894C505.915 250.945 506.393 251.025 506.858 251.135L507.379 247.619C507.1 247.534 506.731 247.458 506.274 247.39C505.826 247.314 505.335 247.276 504.802 247.276ZM519.414 257.496C519.414 257.707 519.359 257.902 519.249 258.08C519.147 258.257 518.991 258.414 518.779 258.549C518.559 258.685 518.276 258.795 517.929 258.879C517.59 258.956 517.192 258.994 516.735 258.994C516.354 258.994 515.982 258.956 515.618 258.879C515.263 258.803 514.945 258.681 514.666 258.511C514.387 258.35 514.158 258.139 513.98 257.876C513.803 257.606 513.701 257.284 513.676 256.912H510.312C510.312 257.47 510.447 258.029 510.718 258.587C510.997 259.138 511.403 259.628 511.937 260.06C512.47 260.5 513.13 260.856 513.917 261.126C514.713 261.397 515.627 261.533 516.659 261.533C517.599 261.533 518.449 261.431 519.211 261.228C519.973 261.016 520.624 260.724 521.166 260.352C521.699 259.98 522.11 259.54 522.397 259.032C522.694 258.515 522.842 257.953 522.842 257.343C522.842 256.683 522.694 256.116 522.397 255.642C522.11 255.16 521.708 254.749 521.191 254.411C520.675 254.081 520.062 253.81 519.351 253.598C518.64 253.387 517.869 253.213 517.04 253.078C516.465 252.993 515.991 252.896 515.618 252.786C515.246 252.667 514.954 252.536 514.742 252.392C514.522 252.257 514.37 252.104 514.285 251.935C514.201 251.757 514.158 251.567 514.158 251.364C514.158 251.161 514.205 250.97 514.298 250.792C514.399 250.606 514.543 250.445 514.729 250.31C514.933 250.158 515.195 250.039 515.517 249.955C515.838 249.87 516.215 249.828 516.646 249.828C517.154 249.828 517.586 249.891 517.941 250.018C518.305 250.145 518.593 250.314 518.805 250.526C518.957 250.687 519.071 250.869 519.147 251.072C519.224 251.266 519.262 251.478 519.262 251.707H522.791C522.791 251.072 522.651 250.484 522.372 249.942C522.093 249.4 521.691 248.931 521.166 248.533C520.633 248.143 519.985 247.839 519.224 247.619C518.462 247.39 517.603 247.276 516.646 247.276C515.732 247.276 514.911 247.39 514.184 247.619C513.456 247.847 512.838 248.156 512.33 248.545C511.822 248.935 511.433 249.388 511.162 249.904C510.891 250.42 510.756 250.962 510.756 251.529C510.756 252.113 510.887 252.629 511.149 253.078C511.42 253.526 511.793 253.92 512.267 254.258C512.741 254.605 513.308 254.902 513.968 255.147C514.636 255.384 515.373 255.583 516.177 255.744C516.812 255.862 517.336 255.981 517.751 256.099C518.166 256.218 518.5 256.345 518.754 256.48C518.999 256.624 519.169 256.776 519.262 256.937C519.363 257.098 519.414 257.284 519.414 257.496ZM529.697 249.421V241.766H526.168V261.266H529.697V251.351C529.833 251.173 529.981 251.013 530.142 250.869C530.311 250.725 530.497 250.602 530.7 250.5C530.92 250.382 531.166 250.293 531.437 250.234C531.707 250.175 531.999 250.145 532.312 250.145C532.719 250.145 533.083 250.2 533.404 250.31C533.726 250.412 534.001 250.572 534.229 250.792C534.458 251.013 534.632 251.3 534.75 251.656C534.877 252.011 534.94 252.434 534.94 252.925V261.266H538.47V252.951C538.47 251.944 538.347 251.084 538.102 250.374C537.865 249.654 537.53 249.066 537.099 248.609C536.667 248.152 536.151 247.818 535.55 247.606C534.949 247.386 534.289 247.276 533.569 247.276C533.078 247.276 532.613 247.348 532.173 247.492C531.733 247.636 531.331 247.839 530.967 248.101C530.73 248.27 530.501 248.469 530.281 248.698C530.07 248.918 529.875 249.159 529.697 249.421ZM542.723 247.53V250.412H546.633V258.397H542.723V261.266H553.92V258.397H550.2V247.53H542.723ZM546.379 244.013C546.379 244.284 546.425 244.538 546.519 244.775C546.62 245.003 546.76 245.198 546.938 245.359C547.115 245.528 547.327 245.659 547.572 245.752C547.826 245.846 548.105 245.892 548.41 245.892C549.036 245.892 549.532 245.719 549.896 245.372C550.268 245.016 550.454 244.563 550.454 244.013C550.454 243.463 550.268 243.014 549.896 242.667C549.532 242.312 549.036 242.134 548.41 242.134C548.105 242.134 547.826 242.181 547.572 242.274C547.327 242.367 547.115 242.494 546.938 242.655C546.76 242.824 546.62 243.027 546.519 243.264C546.425 243.493 546.379 243.742 546.379 244.013ZM557.449 266.547H560.979V260.073C561.139 260.25 561.309 260.411 561.486 260.555C561.664 260.699 561.85 260.83 562.045 260.949C562.375 261.135 562.73 261.275 563.111 261.368C563.501 261.469 563.924 261.52 564.381 261.52C565.244 261.52 566.01 261.342 566.679 260.987C567.347 260.631 567.91 260.14 568.367 259.514C568.816 258.896 569.154 258.16 569.383 257.305C569.62 256.45 569.738 255.524 569.738 254.525V254.258C569.738 253.217 569.62 252.269 569.383 251.415C569.154 250.551 568.812 249.811 568.354 249.193C567.897 248.583 567.335 248.114 566.666 247.784C565.997 247.445 565.227 247.276 564.355 247.276C563.932 247.276 563.535 247.322 563.162 247.416C562.798 247.5 562.464 247.623 562.159 247.784C561.905 247.919 561.668 248.08 561.448 248.266C561.228 248.444 561.025 248.647 560.839 248.875L560.712 247.53H557.449V266.547ZM566.209 254.258V254.525C566.209 255.092 566.158 255.629 566.057 256.137C565.955 256.637 565.794 257.077 565.574 257.458C565.354 257.838 565.066 258.139 564.711 258.359C564.364 258.579 563.941 258.689 563.441 258.689C563.128 258.689 562.845 258.659 562.591 258.6C562.337 258.532 562.113 258.439 561.918 258.321C561.715 258.194 561.533 258.042 561.372 257.864C561.22 257.686 561.089 257.487 560.979 257.267V251.529C561.097 251.292 561.237 251.084 561.397 250.907C561.567 250.729 561.761 250.581 561.981 250.462C562.176 250.361 562.392 250.285 562.629 250.234C562.866 250.175 563.128 250.145 563.416 250.145C563.915 250.145 564.339 250.251 564.686 250.462C565.041 250.674 565.333 250.962 565.562 251.326C565.782 251.698 565.942 252.138 566.044 252.646C566.154 253.145 566.209 253.683 566.209 254.258ZM599.877 253.167V250.348H592.285V245.689H601.121V242.782H588.705V261.266H601.159V258.384H592.285V253.167H599.877ZM608.611 261.266H611.925L617.143 247.53H613.461L610.452 257.216L610.262 258.181L610.071 257.216L607.05 247.53H603.368L608.611 261.266ZM626.524 261.52C627.853 261.52 629.004 261.262 629.978 260.746C630.951 260.229 631.662 259.654 632.11 259.019L630.346 257.115C629.939 257.639 629.41 258.033 628.759 258.295C628.107 258.558 627.434 258.689 626.74 258.689C626.249 258.689 625.797 258.613 625.382 258.46C624.967 258.308 624.599 258.092 624.277 257.813C623.964 257.542 623.715 257.242 623.528 256.912C623.342 256.573 623.19 256.129 623.071 255.579V255.541H632.39V254.042C632.39 253.035 632.25 252.117 631.971 251.288C631.691 250.45 631.285 249.735 630.752 249.142C630.21 248.55 629.55 248.093 628.771 247.771C628.001 247.441 627.121 247.276 626.131 247.276C625.174 247.276 624.29 247.449 623.478 247.796C622.665 248.143 621.963 248.63 621.37 249.256C620.778 249.883 620.316 250.632 619.986 251.503C619.656 252.367 619.491 253.323 619.491 254.373V254.88C619.491 255.803 619.656 256.67 619.986 257.483C620.325 258.287 620.803 258.985 621.421 259.578C622.039 260.179 622.779 260.653 623.643 261C624.506 261.347 625.466 261.52 626.524 261.52ZM626.105 250.132C626.554 250.132 626.948 250.204 627.286 250.348C627.633 250.484 627.925 250.67 628.162 250.907C628.399 251.152 628.585 251.44 628.721 251.77C628.856 252.1 628.924 252.451 628.924 252.824V253.103H623.135C623.219 252.654 623.346 252.248 623.516 251.884C623.685 251.52 623.896 251.207 624.15 250.945C624.396 250.682 624.684 250.484 625.014 250.348C625.344 250.204 625.708 250.132 626.105 250.132ZM635.475 261.266H639.017V251.503C639.135 251.317 639.266 251.148 639.41 250.996C639.554 250.843 639.715 250.712 639.893 250.602C640.113 250.45 640.362 250.335 640.642 250.259C640.929 250.183 641.243 250.145 641.581 250.145C641.987 250.145 642.351 250.187 642.673 250.272C642.994 250.348 643.27 250.488 643.498 250.691C643.727 250.894 643.9 251.173 644.019 251.529C644.146 251.876 644.209 252.32 644.209 252.862V261.266H647.738V252.811C647.738 251.812 647.62 250.966 647.383 250.272C647.154 249.569 646.833 248.994 646.418 248.545C645.995 248.105 645.495 247.784 644.92 247.581C644.344 247.377 643.71 247.276 643.016 247.276C642.474 247.276 641.962 247.352 641.479 247.504C640.997 247.657 640.553 247.877 640.146 248.165C639.91 248.334 639.685 248.524 639.474 248.736C639.262 248.947 639.067 249.18 638.89 249.434L638.674 247.53H635.475V261.266ZM657.564 244.166H654.035V247.53H650.899V250.132H654.035V256.378C654.035 257.284 654.154 258.063 654.391 258.714C654.628 259.358 654.966 259.887 655.406 260.301C655.838 260.724 656.358 261.038 656.968 261.241C657.586 261.435 658.271 261.533 659.024 261.533C659.414 261.533 659.807 261.512 660.205 261.469C660.611 261.435 661.001 261.385 661.373 261.317C661.745 261.249 662.097 261.165 662.427 261.063C662.757 260.953 663.045 260.826 663.29 260.682L662.947 258.257C662.786 258.3 662.592 258.342 662.363 258.384C662.143 258.427 661.906 258.465 661.652 258.499C661.39 258.541 661.115 258.575 660.827 258.6C660.548 258.625 660.273 258.638 660.002 258.638C659.63 258.638 659.291 258.596 658.986 258.511C658.69 258.427 658.436 258.283 658.225 258.08C658.013 257.885 657.848 257.623 657.729 257.292C657.619 256.954 657.564 256.535 657.564 256.036V250.132H662.693V247.53H657.564V244.166ZM681.838 254.271V254.538C681.838 255.545 681.982 256.476 682.27 257.331C682.557 258.177 682.98 258.913 683.539 259.54C684.089 260.166 684.766 260.657 685.57 261.012C686.383 261.359 687.305 261.533 688.338 261.533C689.362 261.533 690.276 261.359 691.08 261.012C691.884 260.657 692.561 260.166 693.111 259.54C693.661 258.913 694.08 258.177 694.368 257.331C694.656 256.476 694.8 255.545 694.8 254.538V254.271C694.8 253.272 694.656 252.35 694.368 251.503C694.08 250.649 693.661 249.908 693.111 249.282C692.553 248.655 691.871 248.165 691.067 247.809C690.263 247.454 689.345 247.276 688.312 247.276C687.28 247.276 686.362 247.454 685.558 247.809C684.762 248.165 684.089 248.655 683.539 249.282C682.98 249.908 682.557 250.649 682.27 251.503C681.982 252.35 681.838 253.272 681.838 254.271ZM685.367 254.538V254.271C685.367 253.712 685.422 253.183 685.532 252.684C685.642 252.185 685.816 251.745 686.053 251.364C686.29 250.983 686.594 250.682 686.967 250.462C687.339 250.242 687.788 250.132 688.312 250.132C688.846 250.132 689.299 250.242 689.671 250.462C690.043 250.682 690.348 250.983 690.585 251.364C690.813 251.745 690.983 252.185 691.093 252.684C691.203 253.183 691.258 253.712 691.258 254.271V254.538C691.258 255.113 691.203 255.655 691.093 256.163C690.983 256.662 690.813 257.098 690.585 257.47C690.348 257.851 690.043 258.152 689.671 258.372C689.299 258.592 688.854 258.702 688.338 258.702C687.805 258.702 687.348 258.592 686.967 258.372C686.594 258.152 686.29 257.851 686.053 257.47C685.816 257.098 685.642 256.662 685.532 256.163C685.422 255.655 685.367 255.113 685.367 254.538ZM701.351 261.266H704.893V250.132H709.844V247.53H704.893V246.781C704.893 246.375 704.943 246.011 705.045 245.689C705.155 245.367 705.32 245.097 705.54 244.876C705.785 244.614 706.116 244.415 706.53 244.28C706.945 244.144 707.449 244.077 708.041 244.077C708.591 244.077 709.069 244.102 709.476 244.153C709.882 244.204 710.246 244.263 710.567 244.331L710.796 241.563C710.508 241.512 710.229 241.466 709.958 241.423C709.696 241.381 709.433 241.343 709.171 241.309C708.909 241.275 708.638 241.25 708.358 241.233C708.088 241.208 707.804 241.195 707.508 241.195C706.568 241.195 705.718 241.318 704.956 241.563C704.194 241.8 703.547 242.155 703.014 242.629C702.48 243.103 702.07 243.687 701.782 244.381C701.494 245.075 701.351 245.875 701.351 246.781V247.53H697.745V250.132H701.351V261.266ZM729.826 242.782V245.664H733.343V258.397H729.826V261.266H740.516V258.397H736.91V245.664H740.516V242.782H729.826ZM745.441 242.782V245.664H748.958V258.397H745.441V261.266H756.131V258.397H752.525V245.664H756.131V242.782H745.441ZM773.854 245.689V242.782H758.949V245.689H764.573V261.266H768.153V245.689H773.854ZM804.208 259.108L804.195 251.821H797.581V254.487H800.641L800.628 257.838C800.535 257.948 800.395 258.054 800.209 258.156C800.031 258.249 799.824 258.333 799.587 258.41C799.35 258.486 799.096 258.545 798.825 258.587C798.554 258.63 798.279 258.651 798 258.651C797.543 258.642 797.132 258.57 796.769 258.435C796.413 258.291 796.1 258.084 795.829 257.813C795.668 257.652 795.52 257.47 795.385 257.267C795.258 257.056 795.144 256.827 795.042 256.582C794.881 256.158 794.754 255.672 794.661 255.122C794.576 254.571 794.534 253.962 794.534 253.293V250.754C794.534 250.221 794.564 249.726 794.623 249.269C794.691 248.812 794.784 248.397 794.902 248.025C795.055 247.542 795.245 247.124 795.474 246.768C795.711 246.413 795.973 246.125 796.261 245.905C796.481 245.744 796.718 245.621 796.972 245.537C797.226 245.452 797.488 245.41 797.759 245.41C798.258 245.41 798.686 245.477 799.041 245.613C799.405 245.74 799.705 245.934 799.942 246.197C800.154 246.434 800.319 246.726 800.438 247.073C800.564 247.42 800.658 247.818 800.717 248.266H804.195C804.102 247.377 803.903 246.578 803.599 245.867C803.302 245.156 802.888 244.551 802.354 244.051C801.821 243.56 801.165 243.184 800.387 242.921C799.617 242.659 798.711 242.528 797.67 242.528C796.993 242.528 796.35 242.621 795.74 242.807C795.131 242.993 794.568 243.268 794.052 243.632C793.612 243.954 793.205 244.335 792.833 244.775C792.469 245.215 792.147 245.71 791.868 246.26C791.572 246.878 791.343 247.568 791.183 248.33C791.022 249.083 790.941 249.9 790.941 250.78V253.293C790.941 254.216 791.022 255.071 791.183 255.858C791.352 256.645 791.597 257.352 791.919 257.978C792.198 258.545 792.537 259.049 792.935 259.489C793.341 259.929 793.789 260.301 794.28 260.606C794.78 260.902 795.326 261.126 795.918 261.279C796.519 261.44 797.158 261.52 797.835 261.52C798.614 261.52 799.341 261.448 800.019 261.304C800.696 261.16 801.309 260.97 801.859 260.733C802.401 260.504 802.871 260.246 803.269 259.958C803.666 259.671 803.979 259.387 804.208 259.108ZM816.205 261.266H819.404V247.53H815.862V257.166C815.752 257.386 815.621 257.584 815.469 257.762C815.316 257.94 815.143 258.092 814.948 258.219C814.72 258.363 814.453 258.473 814.148 258.549C813.852 258.625 813.518 258.664 813.146 258.664C812.731 258.664 812.38 258.613 812.092 258.511C811.804 258.41 811.571 258.24 811.394 258.003C811.216 257.775 811.085 257.47 811 257.089C810.924 256.708 810.886 256.239 810.886 255.68V247.53H807.356V255.655C807.356 256.696 807.471 257.589 807.699 258.333C807.936 259.07 808.266 259.675 808.689 260.149C809.113 260.631 809.62 260.983 810.213 261.203C810.805 261.423 811.457 261.533 812.168 261.533C812.947 261.533 813.662 261.338 814.313 260.949C814.974 260.559 815.536 260.022 816.002 259.336L816.205 261.266ZM823.873 261.266H826.971L828.431 253.928L828.71 252.532L829.002 253.928L830.513 261.266H833.61L836.073 247.53H832.836L831.82 255.629L831.643 256.962L831.401 255.655L829.916 247.53H827.555L826.069 255.693L825.828 257L825.663 255.693L824.635 247.53H821.41L823.873 261.266ZM847.055 261.266H850.635V261.05C850.457 260.703 850.322 260.289 850.229 259.806C850.135 259.324 850.089 258.714 850.089 257.978V252.087C850.089 251.292 849.941 250.594 849.645 249.993C849.348 249.383 848.938 248.88 848.413 248.482C847.888 248.084 847.266 247.784 846.547 247.581C845.836 247.377 845.066 247.276 844.236 247.276C843.314 247.276 842.493 247.394 841.773 247.631C841.062 247.86 840.462 248.173 839.971 248.571C839.471 248.969 839.09 249.43 838.828 249.955C838.574 250.479 838.447 251.034 838.447 251.618H841.977C841.977 251.372 842.01 251.148 842.078 250.945C842.154 250.742 842.269 250.568 842.421 250.424C842.59 250.264 842.81 250.141 843.081 250.056C843.352 249.963 843.674 249.917 844.046 249.917C844.469 249.917 844.837 249.972 845.15 250.082C845.472 250.183 845.739 250.331 845.95 250.526C846.153 250.712 846.306 250.936 846.407 251.199C846.509 251.453 846.56 251.74 846.56 252.062V252.875H844.592C843.576 252.875 842.675 252.968 841.888 253.154C841.109 253.332 840.453 253.594 839.92 253.941C839.327 254.322 838.883 254.808 838.587 255.401C838.291 255.985 838.143 256.658 838.143 257.419C838.143 258.012 838.261 258.562 838.498 259.07C838.735 259.569 839.065 260.001 839.488 260.365C839.911 260.729 840.415 261.012 840.999 261.215C841.591 261.418 842.239 261.52 842.941 261.52C843.373 261.52 843.775 261.478 844.147 261.393C844.52 261.317 844.863 261.207 845.176 261.063C845.48 260.928 845.76 260.767 846.014 260.581C846.268 260.394 846.492 260.195 846.687 259.984C846.729 260.229 846.78 260.462 846.839 260.682C846.898 260.902 846.97 261.097 847.055 261.266ZM843.69 258.791C843.36 258.791 843.068 258.752 842.814 258.676C842.569 258.592 842.362 258.482 842.192 258.346C842.023 258.202 841.892 258.029 841.799 257.826C841.714 257.614 841.672 257.386 841.672 257.14C841.672 256.827 841.731 256.539 841.85 256.277C841.968 256.006 842.15 255.773 842.396 255.579C842.641 255.392 842.958 255.249 843.348 255.147C843.737 255.037 844.207 254.982 844.757 254.982H846.56V257.343C846.458 257.521 846.318 257.699 846.141 257.876C845.963 258.046 845.751 258.198 845.506 258.333C845.26 258.469 844.985 258.579 844.681 258.664C844.376 258.748 844.046 258.791 843.69 258.791ZM857.617 249.421V241.766H854.088V261.266H857.617V251.351C857.753 251.173 857.901 251.013 858.062 250.869C858.231 250.725 858.417 250.602 858.62 250.5C858.84 250.382 859.086 250.293 859.356 250.234C859.627 250.175 859.919 250.145 860.232 250.145C860.639 250.145 861.003 250.2 861.324 250.31C861.646 250.412 861.921 250.572 862.149 250.792C862.378 251.013 862.551 251.3 862.67 251.656C862.797 252.011 862.86 252.434 862.86 252.925V261.266H866.39V252.951C866.39 251.944 866.267 251.084 866.021 250.374C865.785 249.654 865.45 249.066 865.019 248.609C864.587 248.152 864.071 247.818 863.47 247.606C862.869 247.386 862.209 247.276 861.489 247.276C860.998 247.276 860.533 247.348 860.093 247.492C859.653 247.636 859.251 247.839 858.887 248.101C858.65 248.27 858.421 248.469 858.201 248.698C857.99 248.918 857.795 249.159 857.617 249.421ZM878.285 261.266H881.865V261.05C881.688 260.703 881.552 260.289 881.459 259.806C881.366 259.324 881.319 258.714 881.319 257.978V252.087C881.319 251.292 881.171 250.594 880.875 249.993C880.579 249.383 880.168 248.88 879.644 248.482C879.119 248.084 878.497 247.784 877.777 247.581C877.066 247.377 876.296 247.276 875.467 247.276C874.544 247.276 873.723 247.394 873.004 247.631C872.293 247.86 871.692 248.173 871.201 248.571C870.702 248.969 870.321 249.43 870.059 249.955C869.805 250.479 869.678 251.034 869.678 251.618H873.207C873.207 251.372 873.241 251.148 873.309 250.945C873.385 250.742 873.499 250.568 873.651 250.424C873.821 250.264 874.041 250.141 874.312 250.056C874.582 249.963 874.904 249.917 875.276 249.917C875.7 249.917 876.068 249.972 876.381 250.082C876.702 250.183 876.969 250.331 877.181 250.526C877.384 250.712 877.536 250.936 877.638 251.199C877.739 251.453 877.79 251.74 877.79 252.062V252.875H875.822C874.807 252.875 873.905 252.968 873.118 253.154C872.34 253.332 871.684 253.594 871.15 253.941C870.558 254.322 870.114 254.808 869.817 255.401C869.521 255.985 869.373 256.658 869.373 257.419C869.373 258.012 869.492 258.562 869.729 259.07C869.965 259.569 870.296 260.001 870.719 260.365C871.142 260.729 871.646 261.012 872.229 261.215C872.822 261.418 873.469 261.52 874.172 261.52C874.604 261.52 875.006 261.478 875.378 261.393C875.75 261.317 876.093 261.207 876.406 261.063C876.711 260.928 876.99 260.767 877.244 260.581C877.498 260.394 877.722 260.195 877.917 259.984C877.959 260.229 878.01 260.462 878.069 260.682C878.129 260.902 878.201 261.097 878.285 261.266ZM874.921 258.791C874.591 258.791 874.299 258.752 874.045 258.676C873.799 258.592 873.592 258.482 873.423 258.346C873.254 258.202 873.122 258.029 873.029 257.826C872.945 257.614 872.902 257.386 872.902 257.14C872.902 256.827 872.962 256.539 873.08 256.277C873.199 256.006 873.381 255.773 873.626 255.579C873.871 255.392 874.189 255.249 874.578 255.147C874.967 255.037 875.437 254.982 875.987 254.982H877.79V257.343C877.688 257.521 877.549 257.699 877.371 257.876C877.193 258.046 876.982 258.198 876.736 258.333C876.491 258.469 876.216 258.579 875.911 258.664C875.606 258.748 875.276 258.791 874.921 258.791ZM891.793 244.166H888.264V247.53H885.128V250.132H888.264V256.378C888.264 257.284 888.382 258.063 888.619 258.714C888.856 259.358 889.195 259.887 889.635 260.301C890.066 260.724 890.587 261.038 891.196 261.241C891.814 261.435 892.5 261.533 893.253 261.533C893.642 261.533 894.036 261.512 894.434 261.469C894.84 261.435 895.229 261.385 895.602 261.317C895.974 261.249 896.325 261.165 896.655 261.063C896.985 260.953 897.273 260.826 897.519 260.682L897.176 258.257C897.015 258.3 896.82 258.342 896.592 258.384C896.372 258.427 896.135 258.465 895.881 258.499C895.618 258.541 895.343 258.575 895.056 258.6C894.776 258.625 894.501 258.638 894.23 258.638C893.858 258.638 893.52 258.596 893.215 258.511C892.919 258.427 892.665 258.283 892.453 258.08C892.242 257.885 892.076 257.623 891.958 257.292C891.848 256.954 891.793 256.535 891.793 256.036V250.132H896.922V247.53H891.793V244.166ZM901.873 247.53V250.412H905.783V258.397H901.873V261.266H913.07V258.397H909.351V247.53H901.873ZM905.529 244.013C905.529 244.284 905.576 244.538 905.669 244.775C905.771 245.003 905.91 245.198 906.088 245.359C906.266 245.528 906.477 245.659 906.723 245.752C906.977 245.846 907.256 245.892 907.561 245.892C908.187 245.892 908.682 245.719 909.046 245.372C909.418 245.016 909.604 244.563 909.604 244.013C909.604 243.463 909.418 243.014 909.046 242.667C908.682 242.312 908.187 242.134 907.561 242.134C907.256 242.134 906.977 242.181 906.723 242.274C906.477 242.367 906.266 242.494 906.088 242.655C905.91 242.824 905.771 243.027 905.669 243.264C905.576 243.493 905.529 243.742 905.529 244.013Z" fill="#51FB81"/>
<path d="M11.4082 302.793L10.125 310H13.2715L14.5547 302.793H19.002V299.822H15.082L15.9961 294.725H20.3379V291.719H16.5234L17.8418 284.406H14.6777L13.377 291.719H9.84375L11.1445 284.406H8.01562L6.69727 291.719H2.03906V294.725H6.16992L5.25586 299.822H0.720703V302.793H4.72852L3.44531 310H6.5918L7.875 302.793H11.4082ZM8.40234 299.822L9.29883 294.725H12.832L11.9355 299.822H8.40234ZM22.4487 310H31.7827C33.1889 310 34.4545 309.842 35.5795 309.525C36.7045 309.209 37.6596 308.734 38.4448 308.102C39.2299 307.469 39.8334 306.684 40.2553 305.746C40.6772 304.809 40.8881 303.725 40.8881 302.494C40.8881 301.85 40.8002 301.229 40.6245 300.631C40.4604 300.021 40.2026 299.459 39.851 298.943C39.5112 298.463 39.0893 298.041 38.5854 297.678C38.0932 297.314 37.4252 297.016 36.5815 296.781V296.764C37.0151 296.6 37.4077 296.4 37.7592 296.166C38.1225 295.932 38.4448 295.674 38.726 295.393C39.2416 294.877 39.6284 294.279 39.8862 293.6C40.1557 292.908 40.2963 292.176 40.308 291.402C40.308 290.207 40.0854 289.17 39.6401 288.291C39.2065 287.412 38.5854 286.686 37.7768 286.111C36.9682 285.537 35.9897 285.109 34.8412 284.828C33.7045 284.547 32.4389 284.406 31.0444 284.406H22.4487V310ZM27.4057 298.715H32.0112C32.7026 298.727 33.3002 298.82 33.8041 298.996C34.308 299.172 34.7182 299.424 35.0346 299.752C35.351 300.068 35.5795 300.455 35.7202 300.912C35.8725 301.369 35.9487 301.885 35.9487 302.459C35.9487 303.01 35.8491 303.508 35.6498 303.953C35.4623 304.398 35.1811 304.779 34.8061 305.096C34.4662 305.377 34.0385 305.6 33.5229 305.764C33.019 305.928 32.4448 306.01 31.8002 306.01H27.4057V298.715ZM27.4057 295.146V288.432H31.062C31.8588 288.443 32.5502 288.531 33.1362 288.695C33.7338 288.859 34.2084 289.123 34.56 289.486C34.8295 289.744 35.0287 290.066 35.1577 290.453C35.2983 290.84 35.3686 291.291 35.3686 291.807C35.3686 292.299 35.2866 292.738 35.1225 293.125C34.9702 293.512 34.7475 293.84 34.4545 294.109C34.103 294.449 33.6401 294.707 33.0659 294.883C32.4916 295.047 31.8295 295.135 31.0795 295.146H27.4057ZM55.2509 310H59.6805V290.98H54.7762V304.322C54.6239 304.627 54.4423 304.902 54.2313 305.148C54.0204 305.395 53.7802 305.605 53.5106 305.781C53.1942 305.98 52.8251 306.133 52.4032 306.238C51.993 306.344 51.5302 306.396 51.0145 306.396C50.4403 306.396 49.954 306.326 49.5555 306.186C49.1571 306.045 48.8348 305.811 48.5887 305.482C48.3427 305.166 48.161 304.744 48.0438 304.217C47.9384 303.689 47.8856 303.039 47.8856 302.266V290.98H42.9989V302.23C42.9989 303.672 43.1571 304.908 43.4735 305.939C43.8016 306.959 44.2587 307.797 44.8446 308.453C45.4305 309.121 46.1337 309.607 46.954 309.912C47.7743 310.217 48.6766 310.369 49.661 310.369C50.7391 310.369 51.7294 310.1 52.6317 309.561C53.5458 309.021 54.3251 308.277 54.9696 307.328L55.2509 310ZM64.3226 290.98V294.971H69.7366V306.027H64.3226V310H79.8265V306.027H74.6761V290.98H64.3226ZM69.3851 286.111C69.3851 286.486 69.4495 286.838 69.5784 287.166C69.7191 287.482 69.9124 287.752 70.1585 287.975C70.4046 288.209 70.6976 288.391 71.0374 288.52C71.389 288.648 71.7757 288.713 72.1976 288.713C73.0648 288.713 73.7503 288.473 74.2542 287.992C74.7698 287.5 75.0277 286.873 75.0277 286.111C75.0277 285.35 74.7698 284.729 74.2542 284.248C73.7503 283.756 73.0648 283.51 72.1976 283.51C71.7757 283.51 71.389 283.574 71.0374 283.703C70.6976 283.832 70.4046 284.008 70.1585 284.23C69.9124 284.465 69.7191 284.746 69.5784 285.074C69.4495 285.391 69.3851 285.736 69.3851 286.111ZM84.2224 283V286.99H89.9177V306.027H84.2224V310H100.306V306.027H94.8572V283H84.2224ZM102.874 300.35V300.719C102.874 302.102 103.044 303.385 103.384 304.568C103.724 305.74 104.216 306.754 104.861 307.609C105.493 308.465 106.267 309.139 107.181 309.631C108.107 310.111 109.15 310.352 110.31 310.352C111.376 310.352 112.314 310.146 113.122 309.736C113.931 309.326 114.634 308.752 115.232 308.014L115.478 310H119.89V283H114.986V292.686C114.4 292.029 113.726 291.525 112.964 291.174C112.214 290.811 111.341 290.629 110.345 290.629C109.161 290.629 108.107 290.863 107.181 291.332C106.267 291.801 105.488 292.463 104.843 293.318C104.198 294.174 103.706 295.199 103.366 296.395C103.038 297.59 102.874 298.908 102.874 300.35ZM107.761 300.719V300.35C107.761 299.553 107.831 298.809 107.972 298.117C108.113 297.414 108.335 296.799 108.64 296.271C108.945 295.756 109.337 295.352 109.818 295.059C110.31 294.754 110.902 294.602 111.593 294.602C112.425 294.602 113.116 294.783 113.667 295.146C114.218 295.498 114.657 295.996 114.986 296.641V304.34C114.657 304.973 114.212 305.471 113.65 305.834C113.099 306.197 112.402 306.379 111.558 306.379C110.866 306.379 110.28 306.232 109.8 305.939C109.32 305.646 108.927 305.242 108.622 304.727C108.318 304.223 108.095 303.631 107.954 302.951C107.825 302.26 107.761 301.516 107.761 300.719ZM124.866 290.98V294.971H130.28V306.027H124.866V310H140.37V306.027H135.219V290.98H124.866ZM129.928 286.111C129.928 286.486 129.993 286.838 130.122 287.166C130.262 287.482 130.456 287.752 130.702 287.975C130.948 288.209 131.241 288.391 131.581 288.52C131.932 288.648 132.319 288.713 132.741 288.713C133.608 288.713 134.294 288.473 134.798 287.992C135.313 287.5 135.571 286.873 135.571 286.111C135.571 285.35 135.313 284.729 134.798 284.248C134.294 283.756 133.608 283.51 132.741 283.51C132.319 283.51 131.932 283.574 131.581 283.703C131.241 283.832 130.948 284.008 130.702 284.23C130.456 284.465 130.262 284.746 130.122 285.074C129.993 285.391 129.928 285.736 129.928 286.111ZM143.746 310H148.65V296.482C148.815 296.225 148.996 295.99 149.195 295.779C149.395 295.568 149.617 295.387 149.863 295.234C150.168 295.023 150.514 294.865 150.9 294.76C151.299 294.654 151.732 294.602 152.201 294.602C152.764 294.602 153.268 294.66 153.713 294.777C154.158 294.883 154.539 295.076 154.856 295.357C155.172 295.639 155.412 296.025 155.576 296.518C155.752 296.998 155.84 297.613 155.84 298.363V310H160.727V298.293C160.727 296.91 160.563 295.738 160.234 294.777C159.918 293.805 159.473 293.008 158.899 292.387C158.313 291.777 157.621 291.332 156.824 291.051C156.027 290.77 155.149 290.629 154.188 290.629C153.438 290.629 152.729 290.734 152.061 290.945C151.393 291.156 150.777 291.461 150.215 291.859C149.887 292.094 149.576 292.357 149.283 292.65C148.99 292.943 148.721 293.266 148.475 293.617L148.176 290.98H143.746V310ZM163.435 300.35V300.719C163.435 302.102 163.611 303.385 163.962 304.568C164.326 305.74 164.841 306.754 165.509 307.609C166.177 308.465 166.98 309.139 167.917 309.631C168.867 310.111 169.933 310.352 171.117 310.352C171.714 310.352 172.271 310.287 172.787 310.158C173.314 310.029 173.794 309.848 174.228 309.613C174.521 309.449 174.796 309.262 175.054 309.051C175.312 308.84 175.558 308.605 175.792 308.348V309.438C175.792 310.082 175.699 310.662 175.511 311.178C175.335 311.693 175.078 312.127 174.738 312.479C174.363 312.865 173.894 313.158 173.332 313.357C172.781 313.557 172.148 313.656 171.433 313.656C170.988 313.656 170.554 313.609 170.132 313.516C169.722 313.434 169.324 313.305 168.937 313.129C168.539 312.953 168.158 312.725 167.794 312.443C167.431 312.174 167.091 311.857 166.775 311.494L164.578 314.465C164.988 314.992 165.48 315.443 166.054 315.818C166.628 316.205 167.238 316.521 167.882 316.768C168.527 317.014 169.177 317.195 169.834 317.312C170.49 317.43 171.105 317.488 171.679 317.488C173.015 317.488 174.234 317.307 175.335 316.943C176.449 316.592 177.404 316.07 178.201 315.379C178.986 314.688 179.595 313.838 180.029 312.83C180.474 311.822 180.697 310.674 180.697 309.385V290.98H176.25L176.056 292.791C175.822 292.498 175.564 292.234 175.283 292C175.001 291.754 174.697 291.543 174.369 291.367C173.935 291.121 173.449 290.939 172.91 290.822C172.382 290.693 171.796 290.629 171.152 290.629C169.957 290.629 168.884 290.863 167.935 291.332C166.986 291.801 166.177 292.463 165.509 293.318C164.841 294.174 164.326 295.199 163.962 296.395C163.611 297.59 163.435 298.908 163.435 300.35ZM168.339 300.719V300.35C168.339 299.553 168.421 298.809 168.585 298.117C168.75 297.414 169.001 296.799 169.341 296.271C169.669 295.756 170.085 295.352 170.589 295.059C171.093 294.754 171.691 294.602 172.382 294.602C172.757 294.602 173.103 294.637 173.419 294.707C173.748 294.777 174.046 294.877 174.316 295.006C174.632 295.158 174.914 295.357 175.16 295.604C175.406 295.85 175.617 296.137 175.792 296.465V304.516C175.628 304.809 175.435 305.072 175.212 305.307C174.99 305.541 174.732 305.74 174.439 305.904C174.158 306.057 173.841 306.174 173.49 306.256C173.15 306.338 172.769 306.379 172.347 306.379C171.656 306.379 171.058 306.232 170.554 305.939C170.05 305.646 169.634 305.242 169.306 304.727C168.978 304.223 168.732 303.631 168.568 302.951C168.416 302.26 168.339 301.516 168.339 300.719ZM188.837 310H193.741V294.584H200.597V290.98H193.741V289.943C193.741 289.381 193.811 288.877 193.952 288.432C194.104 287.986 194.333 287.611 194.638 287.307C194.977 286.943 195.435 286.668 196.009 286.48C196.583 286.293 197.28 286.199 198.101 286.199C198.862 286.199 199.524 286.234 200.087 286.305C200.649 286.375 201.153 286.457 201.599 286.551L201.915 282.719C201.517 282.648 201.13 282.584 200.755 282.525C200.392 282.467 200.028 282.414 199.665 282.367C199.302 282.32 198.927 282.285 198.54 282.262C198.165 282.227 197.772 282.209 197.362 282.209C196.061 282.209 194.884 282.379 193.829 282.719C192.774 283.047 191.878 283.539 191.14 284.195C190.401 284.852 189.833 285.66 189.435 286.621C189.036 287.582 188.837 288.689 188.837 289.943V290.98H183.845V294.584H188.837V310ZM203.621 300.314V300.684C203.621 302.078 203.821 303.367 204.219 304.551C204.618 305.723 205.204 306.742 205.977 307.609C206.739 308.477 207.676 309.156 208.789 309.648C209.914 310.129 211.192 310.369 212.621 310.369C214.039 310.369 215.305 310.129 216.418 309.648C217.532 309.156 218.469 308.477 219.231 307.609C219.993 306.742 220.573 305.723 220.971 304.551C221.37 303.367 221.569 302.078 221.569 300.684V300.314C221.569 298.932 221.37 297.654 220.971 296.482C220.573 295.299 219.993 294.273 219.231 293.406C218.457 292.539 217.514 291.859 216.401 291.367C215.288 290.875 214.016 290.629 212.586 290.629C211.157 290.629 209.885 290.875 208.772 291.367C207.67 291.859 206.739 292.539 205.977 293.406C205.204 294.273 204.618 295.299 204.219 296.482C203.821 297.654 203.621 298.932 203.621 300.314ZM208.508 300.684V300.314C208.508 299.541 208.584 298.809 208.737 298.117C208.889 297.426 209.129 296.816 209.457 296.289C209.786 295.762 210.207 295.346 210.723 295.041C211.239 294.736 211.86 294.584 212.586 294.584C213.325 294.584 213.952 294.736 214.467 295.041C214.983 295.346 215.405 295.762 215.733 296.289C216.049 296.816 216.284 297.426 216.436 298.117C216.588 298.809 216.664 299.541 216.664 300.314V300.684C216.664 301.48 216.588 302.23 216.436 302.934C216.284 303.625 216.049 304.229 215.733 304.744C215.405 305.271 214.983 305.688 214.467 305.992C213.952 306.297 213.336 306.449 212.621 306.449C211.883 306.449 211.25 306.297 210.723 305.992C210.207 305.688 209.786 305.271 209.457 304.744C209.129 304.229 208.889 303.625 208.737 302.934C208.584 302.23 208.508 301.48 208.508 300.684ZM238.129 290.629C236.851 290.629 235.674 290.939 234.596 291.561C233.517 292.17 232.592 293.014 231.818 294.092L231.783 293.67L231.59 290.98H227.037V310H231.924V298.574C232.146 298.035 232.428 297.566 232.767 297.168C233.107 296.77 233.517 296.441 233.998 296.184C234.396 295.961 234.848 295.797 235.351 295.691C235.867 295.574 236.441 295.516 237.074 295.516C237.683 295.516 238.322 295.557 238.99 295.639C239.67 295.709 240.332 295.82 240.976 295.973L241.697 291.104C241.31 290.986 240.801 290.881 240.168 290.787C239.547 290.682 238.867 290.629 238.129 290.629ZM244.441 310H253.775C255.181 310 256.447 309.842 257.572 309.525C258.697 309.209 259.652 308.734 260.437 308.102C261.222 307.469 261.825 306.684 262.247 305.746C262.669 304.809 262.88 303.725 262.88 302.494C262.88 301.85 262.792 301.229 262.616 300.631C262.452 300.021 262.195 299.459 261.843 298.943C261.503 298.463 261.081 298.041 260.577 297.678C260.085 297.314 259.417 297.016 258.574 296.781V296.764C259.007 296.6 259.4 296.4 259.751 296.166C260.115 295.932 260.437 295.674 260.718 295.393C261.234 294.877 261.62 294.279 261.878 293.6C262.148 292.908 262.288 292.176 262.3 291.402C262.3 290.207 262.077 289.17 261.632 288.291C261.199 287.412 260.577 286.686 259.769 286.111C258.96 285.537 257.982 285.109 256.833 284.828C255.697 284.547 254.431 284.406 253.036 284.406H244.441V310ZM249.398 298.715H254.003C254.695 298.727 255.292 298.82 255.796 298.996C256.3 299.172 256.71 299.424 257.027 299.752C257.343 300.068 257.572 300.455 257.712 300.912C257.865 301.369 257.941 301.885 257.941 302.459C257.941 303.01 257.841 303.508 257.642 303.953C257.454 304.398 257.173 304.779 256.798 305.096C256.458 305.377 256.031 305.6 255.515 305.764C255.011 305.928 254.437 306.01 253.792 306.01H249.398V298.715ZM249.398 295.146V288.432H253.054C253.851 288.443 254.542 288.531 255.128 288.695C255.726 288.859 256.2 289.123 256.552 289.486C256.822 289.744 257.021 290.066 257.15 290.453C257.29 290.84 257.361 291.291 257.361 291.807C257.361 292.299 257.279 292.738 257.115 293.125C256.962 293.512 256.74 293.84 256.447 294.109C256.095 294.449 255.632 294.707 255.058 294.883C254.484 295.047 253.822 295.135 253.072 295.146H249.398ZM266.134 290.98V294.971H271.548V306.027H266.134V310H281.637V306.027H276.487V290.98H266.134ZM271.196 286.111C271.196 286.486 271.26 286.838 271.389 287.166C271.53 287.482 271.723 287.752 271.969 287.975C272.216 288.209 272.509 288.391 272.848 288.52C273.2 288.648 273.587 288.713 274.009 288.713C274.876 288.713 275.561 288.473 276.065 287.992C276.581 287.5 276.839 286.873 276.839 286.111C276.839 285.35 276.581 284.729 276.065 284.248C275.561 283.756 274.876 283.51 274.009 283.51C273.587 283.51 273.2 283.574 272.848 283.703C272.509 283.832 272.216 284.008 271.969 284.23C271.723 284.465 271.53 284.746 271.389 285.074C271.26 285.391 271.196 285.736 271.196 286.111ZM286.033 283V286.99H291.729V306.027H286.033V310H302.117V306.027H296.668V283H286.033ZM306.214 283V286.99H311.91V306.027H306.214V310H322.298V306.027H316.849V283H306.214ZM326.677 290.98V294.971H332.091V306.027H326.677V310H342.181V306.027H337.03V290.98H326.677ZM331.739 286.111C331.739 286.486 331.804 286.838 331.933 287.166C332.073 287.482 332.267 287.752 332.513 287.975C332.759 288.209 333.052 288.391 333.392 288.52C333.743 288.648 334.13 288.713 334.552 288.713C335.419 288.713 336.105 288.473 336.608 287.992C337.124 287.5 337.382 286.873 337.382 286.111C337.382 285.35 337.124 284.729 336.608 284.248C336.105 283.756 335.419 283.51 334.552 283.51C334.13 283.51 333.743 283.574 333.392 283.703C333.052 283.832 332.759 284.008 332.513 284.23C332.267 284.465 332.073 284.746 331.933 285.074C331.804 285.391 331.739 285.736 331.739 286.111ZM344.889 300.314V300.684C344.889 302.078 345.088 303.367 345.487 304.551C345.885 305.723 346.471 306.742 347.245 307.609C348.006 308.477 348.944 309.156 350.057 309.648C351.182 310.129 352.459 310.369 353.889 310.369C355.307 310.369 356.573 310.129 357.686 309.648C358.799 309.156 359.737 308.477 360.499 307.609C361.26 306.742 361.84 305.723 362.239 304.551C362.637 303.367 362.836 302.078 362.836 300.684V300.314C362.836 298.932 362.637 297.654 362.239 296.482C361.84 295.299 361.26 294.273 360.499 293.406C359.725 292.539 358.782 291.859 357.668 291.367C356.555 290.875 355.284 290.629 353.854 290.629C352.424 290.629 351.153 290.875 350.04 291.367C348.938 291.859 348.006 292.539 347.245 293.406C346.471 294.273 345.885 295.299 345.487 296.482C345.088 297.654 344.889 298.932 344.889 300.314ZM349.776 300.684V300.314C349.776 299.541 349.852 298.809 350.004 298.117C350.157 297.426 350.397 296.816 350.725 296.289C351.053 295.762 351.475 295.346 351.991 295.041C352.506 294.736 353.127 294.584 353.854 294.584C354.592 294.584 355.219 294.736 355.735 295.041C356.25 295.346 356.672 295.762 357 296.289C357.317 296.816 357.551 297.426 357.704 298.117C357.856 298.809 357.932 299.541 357.932 300.314V300.684C357.932 301.48 357.856 302.23 357.704 302.934C357.551 303.625 357.317 304.229 357 304.744C356.672 305.271 356.25 305.688 355.735 305.992C355.219 306.297 354.604 306.449 353.889 306.449C353.151 306.449 352.518 306.297 351.991 305.992C351.475 305.688 351.053 305.271 350.725 304.744C350.397 304.229 350.157 303.625 350.004 302.934C349.852 302.23 349.776 301.48 349.776 300.684ZM365.738 310H370.642V296.482C370.807 296.225 370.988 295.99 371.187 295.779C371.387 295.568 371.609 295.387 371.855 295.234C372.16 295.023 372.506 294.865 372.892 294.76C373.291 294.654 373.725 294.602 374.193 294.602C374.756 294.602 375.26 294.66 375.705 294.777C376.15 294.883 376.531 295.076 376.848 295.357C377.164 295.639 377.404 296.025 377.568 296.518C377.744 296.998 377.832 297.613 377.832 298.363V310H382.719V298.293C382.719 296.91 382.555 295.738 382.226 294.777C381.91 293.805 381.465 293.008 380.891 292.387C380.305 291.777 379.613 291.332 378.816 291.051C378.019 290.77 377.141 290.629 376.18 290.629C375.43 290.629 374.721 290.734 374.053 290.945C373.385 291.156 372.769 291.461 372.207 291.859C371.879 292.094 371.568 292.357 371.275 292.65C370.982 292.943 370.713 293.266 370.467 293.617L370.168 290.98H365.738V310ZM398.189 304.779C398.189 305.072 398.113 305.342 397.96 305.588C397.82 305.834 397.603 306.051 397.31 306.238C397.005 306.426 396.613 306.578 396.132 306.695C395.663 306.801 395.113 306.854 394.48 306.854C393.952 306.854 393.437 306.801 392.933 306.695C392.441 306.59 392.001 306.42 391.615 306.186C391.228 305.963 390.911 305.67 390.665 305.307C390.419 304.932 390.279 304.486 390.243 303.971H385.585C385.585 304.744 385.773 305.518 386.148 306.291C386.535 307.053 387.097 307.732 387.835 308.33C388.574 308.939 389.488 309.432 390.577 309.807C391.679 310.182 392.945 310.369 394.374 310.369C395.675 310.369 396.853 310.229 397.908 309.947C398.962 309.654 399.865 309.25 400.615 308.734C401.353 308.219 401.921 307.609 402.32 306.906C402.73 306.191 402.935 305.412 402.935 304.568C402.935 303.654 402.73 302.869 402.32 302.213C401.921 301.545 401.365 300.977 400.65 300.508C399.935 300.051 399.085 299.676 398.101 299.383C397.117 299.09 396.05 298.85 394.902 298.662C394.105 298.545 393.449 298.41 392.933 298.258C392.417 298.094 392.013 297.912 391.72 297.713C391.415 297.525 391.204 297.314 391.087 297.08C390.97 296.834 390.911 296.57 390.911 296.289C390.911 296.008 390.976 295.744 391.105 295.498C391.245 295.24 391.445 295.018 391.702 294.83C391.984 294.619 392.347 294.455 392.792 294.338C393.238 294.221 393.759 294.162 394.357 294.162C395.06 294.162 395.658 294.25 396.15 294.426C396.654 294.602 397.052 294.836 397.345 295.129C397.556 295.352 397.714 295.604 397.82 295.885C397.925 296.154 397.978 296.447 397.978 296.764H402.865C402.865 295.885 402.671 295.07 402.285 294.32C401.898 293.57 401.341 292.92 400.615 292.369C399.876 291.83 398.98 291.408 397.925 291.104C396.87 290.787 395.681 290.629 394.357 290.629C393.091 290.629 391.954 290.787 390.947 291.104C389.939 291.42 389.083 291.848 388.38 292.387C387.677 292.926 387.138 293.553 386.763 294.268C386.388 294.982 386.201 295.732 386.201 296.518C386.201 297.326 386.382 298.041 386.745 298.662C387.12 299.283 387.636 299.828 388.292 300.297C388.949 300.777 389.734 301.188 390.648 301.527C391.574 301.855 392.593 302.131 393.706 302.354C394.585 302.518 395.312 302.682 395.886 302.846C396.46 303.01 396.923 303.186 397.275 303.373C397.615 303.572 397.849 303.783 397.978 304.006C398.118 304.229 398.189 304.486 398.189 304.779Z" fill="white"/>
<path d="M684.449 310V284.406H684.186L673.041 288.432V292.686L679.51 290.365V310H684.449ZM692.906 297.396L696.808 298.363C696.996 298.176 697.195 298 697.406 297.836C697.617 297.66 697.857 297.508 698.126 297.379C698.396 297.25 698.706 297.145 699.058 297.062C699.41 296.98 699.826 296.939 700.306 296.939C701.021 296.939 701.642 297.051 702.169 297.273C702.697 297.496 703.136 297.812 703.488 298.223C703.839 298.633 704.097 299.125 704.261 299.699C704.437 300.262 704.525 300.883 704.525 301.562C704.525 302.254 704.455 302.898 704.314 303.496C704.185 304.094 703.98 304.609 703.699 305.043C703.406 305.477 703.025 305.816 702.556 306.062C702.099 306.309 701.542 306.432 700.886 306.432C699.82 306.432 698.941 306.127 698.249 305.518C697.57 304.908 697.171 304.047 697.054 302.934H692.238C692.273 304.117 692.537 305.172 693.029 306.098C693.533 307.012 694.183 307.785 694.98 308.418C695.777 309.051 696.685 309.531 697.705 309.859C698.736 310.188 699.802 310.352 700.904 310.352C702.357 310.352 703.617 310.123 704.683 309.666C705.749 309.209 706.634 308.588 707.337 307.803C708.04 307.018 708.562 306.109 708.902 305.078C709.242 304.047 709.412 302.957 709.412 301.809C709.412 300.461 709.236 299.254 708.884 298.188C708.533 297.121 708.029 296.219 707.372 295.48C706.705 294.742 705.884 294.18 704.912 293.793C703.951 293.395 702.855 293.195 701.624 293.195C700.757 293.195 699.99 293.307 699.322 293.529C698.654 293.752 698.138 293.969 697.775 294.18L698.39 288.555H708.568V284.406H694.365L692.906 297.396ZM729.962 300.684V296.729H715.319V300.684H729.962ZM749.756 310V306.08H738.524L743.34 300.982C744.172 300.127 744.928 299.312 745.608 298.539C746.287 297.754 746.873 296.986 747.366 296.236C747.846 295.486 748.215 294.73 748.473 293.969C748.743 293.195 748.877 292.387 748.877 291.543C748.877 290.43 748.701 289.416 748.35 288.502C747.998 287.576 747.489 286.785 746.821 286.129C746.141 285.473 745.297 284.963 744.289 284.6C743.293 284.236 742.145 284.055 740.844 284.055C739.485 284.055 738.243 284.277 737.118 284.723C736.004 285.156 735.055 285.754 734.27 286.516C733.473 287.277 732.858 288.168 732.424 289.188C731.991 290.195 731.774 291.268 731.774 292.404H736.678C736.678 291.713 736.766 291.098 736.942 290.559C737.118 290.02 737.375 289.568 737.715 289.205C738.043 288.854 738.453 288.59 738.946 288.414C739.45 288.227 740.03 288.133 740.686 288.133C741.19 288.133 741.647 288.215 742.057 288.379C742.479 288.543 742.842 288.777 743.147 289.082C743.44 289.398 743.668 289.779 743.832 290.225C743.996 290.67 744.078 291.18 744.078 291.754C744.078 292.141 744.014 292.539 743.885 292.949C743.768 293.359 743.575 293.799 743.305 294.268C743.024 294.748 742.66 295.275 742.215 295.85C741.77 296.424 741.225 297.062 740.58 297.766L732.301 306.66V310H749.756ZM767.476 300.49V284.406H762.519L751.761 301.387L751.955 304.445H762.59V310H767.476V304.445H770.447V300.49H767.476ZM756.56 300.49L762.115 291.824L762.59 290.98V300.49H756.56ZM805.465 284.406V302.143C805.465 302.74 805.372 303.303 805.184 303.83C805.008 304.346 804.756 304.791 804.428 305.166C804.1 305.541 803.702 305.84 803.233 306.062C802.764 306.273 802.249 306.379 801.686 306.379C800.983 306.379 800.385 306.285 799.893 306.098C799.401 305.91 799.003 305.623 798.698 305.236C798.464 304.92 798.288 304.533 798.171 304.076C798.053 303.619 797.995 303.086 797.995 302.477H793.038C793.049 303.801 793.266 304.955 793.688 305.939C794.11 306.924 794.702 307.738 795.464 308.383C796.214 309.039 797.116 309.531 798.171 309.859C799.225 310.188 800.397 310.352 801.686 310.352C802.905 310.352 804.042 310.152 805.096 309.754C806.163 309.355 807.089 308.793 807.874 308.066C808.659 307.34 809.274 306.479 809.719 305.482C810.176 304.475 810.411 303.361 810.423 302.143L810.405 284.406H805.465ZM825.629 310H830.586V309.701C830.34 309.221 830.152 308.646 830.024 307.979C829.895 307.311 829.83 306.467 829.83 305.447V297.291C829.83 296.189 829.625 295.223 829.215 294.391C828.805 293.547 828.236 292.85 827.51 292.299C826.783 291.748 825.922 291.332 824.926 291.051C823.941 290.77 822.875 290.629 821.727 290.629C820.449 290.629 819.313 290.793 818.316 291.121C817.332 291.438 816.5 291.871 815.82 292.422C815.129 292.973 814.602 293.611 814.238 294.338C813.887 295.064 813.711 295.832 813.711 296.641H818.598C818.598 296.301 818.645 295.99 818.738 295.709C818.844 295.428 819.002 295.188 819.213 294.988C819.447 294.766 819.752 294.596 820.127 294.479C820.502 294.35 820.947 294.285 821.463 294.285C822.049 294.285 822.559 294.361 822.992 294.514C823.438 294.654 823.807 294.859 824.1 295.129C824.381 295.387 824.592 295.697 824.732 296.061C824.873 296.412 824.943 296.811 824.943 297.256V298.381H822.219C820.813 298.381 819.565 298.51 818.475 298.768C817.397 299.014 816.488 299.377 815.75 299.857C814.93 300.385 814.315 301.059 813.904 301.879C813.494 302.688 813.289 303.619 813.289 304.674C813.289 305.494 813.453 306.256 813.781 306.959C814.109 307.65 814.566 308.248 815.152 308.752C815.738 309.256 816.436 309.648 817.244 309.93C818.065 310.211 818.961 310.352 819.934 310.352C820.531 310.352 821.088 310.293 821.604 310.176C822.119 310.07 822.594 309.918 823.027 309.719C823.449 309.531 823.836 309.309 824.188 309.051C824.539 308.793 824.85 308.518 825.119 308.225C825.178 308.564 825.248 308.887 825.33 309.191C825.412 309.496 825.512 309.766 825.629 310ZM820.971 306.572C820.514 306.572 820.109 306.52 819.758 306.414C819.418 306.297 819.131 306.145 818.897 305.957C818.662 305.758 818.481 305.518 818.352 305.236C818.234 304.943 818.176 304.627 818.176 304.287C818.176 303.854 818.258 303.455 818.422 303.092C818.586 302.717 818.838 302.395 819.178 302.125C819.518 301.867 819.957 301.668 820.496 301.527C821.035 301.375 821.686 301.299 822.447 301.299H824.943V304.568C824.803 304.814 824.609 305.061 824.363 305.307C824.117 305.541 823.824 305.752 823.484 305.939C823.145 306.127 822.764 306.279 822.342 306.396C821.92 306.514 821.463 306.572 820.971 306.572ZM833.927 310H838.832V296.482C838.996 296.225 839.177 295.99 839.376 295.779C839.576 295.568 839.798 295.387 840.044 295.234C840.349 295.023 840.695 294.865 841.082 294.76C841.48 294.654 841.914 294.602 842.382 294.602C842.945 294.602 843.449 294.66 843.894 294.777C844.339 294.883 844.72 295.076 845.037 295.357C845.353 295.639 845.593 296.025 845.757 296.518C845.933 296.998 846.021 297.613 846.021 298.363V310H850.908V298.293C850.908 296.91 850.744 295.738 850.416 294.777C850.099 293.805 849.654 293.008 849.08 292.387C848.494 291.777 847.802 291.332 847.005 291.051C846.209 290.77 845.33 290.629 844.369 290.629C843.619 290.629 842.91 290.734 842.242 290.945C841.574 291.156 840.959 291.461 840.396 291.859C840.068 292.094 839.757 292.357 839.464 292.65C839.171 292.943 838.902 293.266 838.656 293.617L838.357 290.98H833.927V310ZM865.27 285.619V282.578H861.351V285.619C861.351 286.756 861.204 287.764 860.911 288.643C860.63 289.521 860.267 290.342 859.821 291.104L862.054 292.492C862.511 292.082 862.933 291.607 863.319 291.068C863.706 290.518 864.046 289.938 864.339 289.328C864.632 288.73 864.86 288.115 865.024 287.482C865.188 286.838 865.27 286.217 865.27 285.619ZM891.024 310V306.08H879.791L884.608 300.982C885.44 300.127 886.196 299.312 886.875 298.539C887.555 297.754 888.141 296.986 888.633 296.236C889.114 295.486 889.483 294.73 889.741 293.969C890.01 293.195 890.145 292.387 890.145 291.543C890.145 290.43 889.969 289.416 889.618 288.502C889.266 287.576 888.756 286.785 888.088 286.129C887.409 285.473 886.565 284.963 885.557 284.6C884.561 284.236 883.413 284.055 882.112 284.055C880.752 284.055 879.51 284.277 878.385 284.723C877.272 285.156 876.323 285.754 875.538 286.516C874.741 287.277 874.125 288.168 873.692 289.188C873.258 290.195 873.041 291.268 873.041 292.404H877.946C877.946 291.713 878.034 291.098 878.209 290.559C878.385 290.02 878.643 289.568 878.983 289.205C879.311 288.854 879.721 288.59 880.213 288.414C880.717 288.227 881.297 288.133 881.954 288.133C882.457 288.133 882.914 288.215 883.325 288.379C883.746 288.543 884.11 288.777 884.414 289.082C884.707 289.398 884.936 289.779 885.1 290.225C885.264 290.67 885.346 291.18 885.346 291.754C885.346 292.141 885.282 292.539 885.153 292.949C885.036 293.359 884.842 293.799 884.573 294.268C884.291 294.748 883.928 295.275 883.483 295.85C883.038 296.424 882.493 297.062 881.848 297.766L873.569 306.66V310H891.024ZM906.441 310V284.406H906.178L895.033 288.432V292.686L901.502 290.365V310H906.441Z" fill="white"/>
</svg>
