<svg width="139" height="154" viewBox="0 0 139 154" fill="none" xmlns="http://www.w3.org/2000/svg">
<path d="M13.4386 136.74V147.379C13.4386 149.237 12.9431 150.693 11.952 151.746C10.9765 152.799 9.52083 153.325 7.58516 153.325C5.64949 153.325 4.18613 152.799 3.19507 151.746C2.21949 150.693 1.7317 149.237 1.7317 147.379V136.74H4.7978V147.379C4.7978 148.339 5.02234 149.09 5.47141 149.632C5.92049 150.174 6.62507 150.445 7.58516 150.445C8.54525 150.445 9.24984 150.174 9.69891 149.632C10.148 149.09 10.3725 148.339 10.3725 147.379V136.74H13.4386ZM15.3039 136.74H21.2039C23.217 136.74 24.7113 137.213 25.6869 138.157C26.6624 139.086 27.1502 140.534 27.1502 142.501V147.239C27.1502 149.206 26.6624 150.662 25.6869 151.606C24.7113 152.535 23.217 153 21.2039 153H15.3039V150.05H16.837V139.667H15.3039V136.74ZM21.2039 150.073C22.2724 150.073 23.0156 149.826 23.4338 149.33C23.8673 148.819 24.0841 148.029 24.0841 146.961V142.501C24.0841 141.572 23.8673 140.867 23.4338 140.387C23.0156 139.907 22.2724 139.667 21.2039 139.667H19.9031V150.073H21.2039ZM34.0328 144.777H41.0012V153H38.2139V151.188H37.7957C37.6099 151.792 37.2538 152.303 36.7273 152.721C36.2008 153.124 35.411 153.325 34.358 153.325C33.6147 153.325 32.9179 153.186 32.2675 152.907C31.6171 152.628 31.0519 152.218 30.5718 151.676C30.0918 151.119 29.7124 150.437 29.4337 149.632C29.1549 148.811 29.0156 147.859 29.0156 146.775V142.965C29.0156 141.912 29.1627 140.983 29.4569 140.178C29.7666 139.357 30.1847 138.668 30.7112 138.111C31.2532 137.553 31.8958 137.135 32.6391 136.857C33.3824 136.562 34.2031 136.415 35.1013 136.415C36.0304 136.415 36.8589 136.57 37.5867 136.88C38.3145 137.174 38.9339 137.592 39.4449 138.134C39.956 138.661 40.3431 139.288 40.6063 140.016C40.8696 140.728 41.0012 141.494 41.0012 142.315V142.594H37.9351V142.315C37.9351 141.34 37.6796 140.604 37.1686 140.108C36.6731 139.597 35.9685 139.342 35.0548 139.342C34.1877 139.342 33.4753 139.636 32.9179 140.225C32.3604 140.798 32.0817 141.789 32.0817 143.198V146.636C32.0817 149.144 33.1037 150.398 35.1478 150.398C36.0614 150.398 36.7505 150.158 37.215 149.678C37.6951 149.183 37.9351 148.525 37.9351 147.704H34.0328V144.777ZM51.6235 149.516H46.0952L45.3055 153H42.1L45.9791 136.74H51.7396L55.6187 153H52.4133L51.6235 149.516ZM46.7456 146.589H50.9499L49.0684 138.273H48.6503L46.7456 146.589ZM56.0207 136.74H61.4096L62.3387 148.958V151.328H62.8962V148.958L63.8253 136.74H69.2142V153H66.4268V142.129L66.7056 138.413H66.1481L64.9402 153H60.3411L59.0868 138.413H58.5293L58.808 142.129V153H56.0207V136.74ZM95.9638 150.073V153H84.5356V149.795C84.5356 148.943 84.6595 148.215 84.9073 147.611C85.1705 147.007 85.5344 146.496 85.999 146.078C86.479 145.66 87.052 145.319 87.7178 145.056C88.3837 144.777 89.1348 144.545 89.971 144.359C90.5904 144.22 91.0937 144.065 91.4808 143.895C91.8834 143.709 92.2009 143.507 92.4331 143.291C92.6654 143.058 92.8203 142.811 92.8977 142.547C92.9906 142.269 93.0371 141.959 93.0371 141.618C93.0371 140.968 92.797 140.426 92.317 139.992C91.8524 139.559 91.2021 139.342 90.3658 139.342C89.4832 139.342 88.7786 139.613 88.2521 140.155C87.7256 140.681 87.4623 141.417 87.4623 142.362V143.384H84.3962V142.083C84.3962 141.324 84.5279 140.604 84.7911 139.923C85.0699 139.226 85.457 138.622 85.9525 138.111C86.4635 137.584 87.0829 137.174 87.8108 136.88C88.5386 136.57 89.3593 136.415 90.2729 136.415C91.2485 136.415 92.1002 136.562 92.828 136.857C93.5558 137.135 94.1598 137.507 94.6398 137.971C95.1353 138.436 95.4992 138.978 95.7315 139.597C95.9793 140.201 96.1032 140.829 96.1032 141.479V141.758C96.1032 143.12 95.716 144.251 94.9418 145.149C94.183 146.047 92.9364 146.697 91.2021 147.1C90.4742 147.27 89.8703 147.449 89.3903 147.634C88.9257 147.805 88.5618 147.998 88.2985 148.215C88.0353 148.432 87.8495 148.672 87.7411 148.935C87.6482 149.183 87.6017 149.469 87.6017 149.795V150.073H95.9638ZM101.94 144.87C101.94 144.344 102.134 143.887 102.521 143.5C102.908 143.113 103.365 142.919 103.892 142.919C104.418 142.919 104.875 143.113 105.262 143.5C105.649 143.887 105.843 144.344 105.843 144.87C105.843 145.397 105.649 145.854 105.262 146.241C104.875 146.628 104.418 146.821 103.892 146.821C103.365 146.821 102.908 146.628 102.521 146.241C102.134 145.854 101.94 145.397 101.94 144.87ZM97.8988 143.058C97.8988 140.952 98.4253 139.319 99.4783 138.157C100.547 136.996 102.018 136.415 103.892 136.415C105.765 136.415 107.229 136.996 108.282 138.157C109.35 139.319 109.884 140.952 109.884 143.058V146.682C109.884 148.85 109.35 150.499 108.282 151.63C107.229 152.76 105.765 153.325 103.892 153.325C102.018 153.325 100.547 152.76 99.4783 151.63C98.4253 150.499 97.8988 148.85 97.8988 146.682V143.058ZM103.892 150.538C104.449 150.538 104.914 150.453 105.285 150.282C105.657 150.096 105.959 149.841 106.191 149.516C106.423 149.191 106.586 148.803 106.679 148.354C106.772 147.905 106.818 147.41 106.818 146.868V142.873C106.818 142.362 106.764 141.882 106.656 141.432C106.547 140.983 106.377 140.596 106.145 140.271C105.912 139.946 105.611 139.69 105.239 139.505C104.867 139.303 104.418 139.203 103.892 139.203C103.365 139.203 102.916 139.303 102.544 139.505C102.173 139.69 101.871 139.946 101.639 140.271C101.406 140.596 101.236 140.983 101.127 141.432C101.019 141.882 100.965 142.362 100.965 142.873V146.868C100.965 147.41 101.011 147.905 101.104 148.354C101.197 148.803 101.36 149.191 101.592 149.516C101.824 149.841 102.126 150.096 102.498 150.282C102.87 150.453 103.334 150.538 103.892 150.538ZM123.48 150.073V153H112.052V149.795C112.052 148.943 112.176 148.215 112.423 147.611C112.687 147.007 113.051 146.496 113.515 146.078C113.995 145.66 114.568 145.319 115.234 145.056C115.9 144.777 116.651 144.545 117.487 144.359C118.107 144.22 118.61 144.065 118.997 143.895C119.4 143.709 119.717 143.507 119.949 143.291C120.182 143.058 120.336 142.811 120.414 142.547C120.507 142.269 120.553 141.959 120.553 141.618C120.553 140.968 120.313 140.426 119.833 139.992C119.369 139.559 118.718 139.342 117.882 139.342C116.999 139.342 116.295 139.613 115.768 140.155C115.242 140.681 114.978 141.417 114.978 142.362V143.384H111.912V142.083C111.912 141.324 112.044 140.604 112.307 139.923C112.586 139.226 112.973 138.622 113.469 138.111C113.98 137.584 114.599 137.174 115.327 136.88C116.055 136.57 116.875 136.415 117.789 136.415C118.765 136.415 119.616 136.562 120.344 136.857C121.072 137.135 121.676 137.507 122.156 137.971C122.651 138.436 123.015 138.978 123.248 139.597C123.495 140.201 123.619 140.829 123.619 141.479V141.758C123.619 143.12 123.232 144.251 122.458 145.149C121.699 146.047 120.453 146.697 118.718 147.1C117.99 147.27 117.386 147.449 116.906 147.634C116.442 147.805 116.078 147.998 115.815 148.215C115.551 148.432 115.366 148.672 115.257 148.935C115.164 149.183 115.118 149.469 115.118 149.795V150.073H123.48ZM130.432 150.073V138.273H130.014L128.481 143.848H125.554V143.569L127.505 136.74H133.498V150.073H137.54V153H125.833V150.073H130.432Z" fill="#51FB81"/>
<path d="M59.4768 41.3776L72.8383 2.90659L90.1817 47.2741L59.4768 41.3776Z" stroke="#51FB81" stroke-width="2.01258"/>
<path d="M54.1114 103.386L90.8479 58.142L68.1818 125.484L54.1114 103.386Z" stroke="#51FB81" stroke-width="2.01258"/>
<path d="M54.1554 53.4073L55.6814 49.7587C58.0966 59.9574 60.3768 69.5858 62.7994 79.8202L35.4454 67.5407C40.0342 59.2112 44.5155 51.0761 49.3538 42.2851C50.4344 46.3755 51.3346 49.7882 52.254 53.2756L53.0104 56.1449L54.1554 53.4073Z" stroke="#51FB81" stroke-width="2.01258"/>
<path d="M59.9097 46.7115L89.6899 52.3116L67.6389 79.6779C66.9583 76.7747 66.288 73.9156 65.6228 71.0778C63.7202 62.9616 61.8582 55.0188 59.9097 46.7115Z" stroke="#51FB81" stroke-width="2.01258"/>
<path d="M62.5237 85.5104L51.6935 99.0764C49.9731 96.235 48.2809 93.4387 46.6078 90.6739C43.1733 84.9986 39.8189 79.4553 36.464 73.9248L62.5237 85.5104Z" stroke="#51FB81" stroke-width="2.01258"/>
</svg>
