<svg width="914" height="205" viewBox="0 0 914 205" fill="none" xmlns="http://www.w3.org/2000/svg">
<path d="M37.9437 65.8691L56.7127 6.60423L81.075 74.9527L37.9437 65.8691Z" stroke="#51FB81" stroke-width="4.21265"/>
<path d="M30.06 165.484L81.3268 96.2413L49.6957 199.305L30.06 165.484Z" stroke="#51FB81" stroke-width="4.21265"/>
<path d="M30.0277 85.6044L31.4686 81.8263C34.7475 97.0108 37.8696 111.469 41.1655 126.739L2.89099 107.896C9.26558 95.206 15.5036 82.7871 22.1905 69.4635C23.5881 75.267 24.7883 80.2569 26.0117 85.3461L27.6025 91.9637L30.0277 85.6044Z" stroke="#51FB81" stroke-width="4.21265"/>
<path d="M38.6018 75.4309L80.3116 84.0326L49.4271 126.067C48.5334 121.886 47.6513 117.76 46.7752 113.661C44.0521 100.922 41.386 88.4491 38.6018 75.4309Z" stroke="#51FB81" stroke-width="4.21265"/>
<path d="M40.7767 137.02L25.899 157.457C23.5633 153.226 21.2625 149.057 18.9858 144.931C14.2459 136.341 9.61018 127.94 4.97972 119.566L40.7767 137.02Z" stroke="#51FB81" stroke-width="4.21265"/>
<path d="M221.625 34.0344H203.376L203.311 97.1516C203.267 100.247 202.94 102.973 202.33 105.327C201.719 107.682 200.804 109.644 199.583 111.214C198.449 112.74 197.01 113.896 195.266 114.68C193.565 115.422 191.603 115.792 189.379 115.792C187.33 115.792 185.52 115.444 183.951 114.746C182.381 114.005 181.051 112.915 179.961 111.476C178.784 109.906 177.89 107.922 177.279 105.524C176.712 103.125 176.407 100.335 176.364 97.1516L176.298 34.0344H157.919L157.854 97.1516C157.854 102.471 158.595 107.224 160.077 111.41C161.603 115.553 163.74 119.041 166.487 121.875C169.234 124.709 172.526 126.868 176.364 128.35C180.244 129.833 184.583 130.574 189.379 130.574C194.481 130.574 199.016 129.833 202.984 128.35C206.996 126.868 210.397 124.688 213.187 121.81C215.934 118.976 218.027 115.487 219.466 111.345C220.949 107.202 221.69 102.471 221.69 97.1516L221.625 34.0344ZM232.03 93.358V94.7315C232.03 99.8768 232.662 104.652 233.926 109.056C235.191 113.416 237.022 117.188 239.421 120.371C241.775 123.554 244.653 126.061 248.054 127.893C251.499 129.68 255.38 130.574 259.697 130.574C263.664 130.574 267.153 129.811 270.162 128.285C273.17 126.759 275.786 124.622 278.01 121.875L278.926 129.266H295.343V28.8019H277.095V64.8408C274.914 62.399 272.407 60.524 269.573 59.2159C266.782 57.8641 263.534 57.1883 259.827 57.1883C255.423 57.1883 251.499 58.0603 248.054 59.8045C244.653 61.5487 241.753 64.0123 239.355 67.1954C236.957 70.3786 235.125 74.1939 233.861 78.6416C232.64 83.0892 232.03 87.9947 232.03 93.358ZM250.213 94.7315V93.358C250.213 90.3929 250.474 87.624 250.997 85.0514C251.521 82.4351 252.349 80.1459 253.483 78.1837C254.617 76.2651 256.077 74.7608 257.865 73.6707C259.697 72.537 261.899 71.9701 264.471 71.9701C267.567 71.9701 270.14 72.646 272.189 73.9977C274.239 75.3058 275.874 77.159 277.095 79.5573V108.205C275.874 110.56 274.217 112.413 272.124 113.765C270.074 115.117 267.48 115.792 264.34 115.792C261.768 115.792 259.587 115.247 257.8 114.157C256.012 113.067 254.551 111.563 253.417 109.644C252.284 107.769 251.455 105.567 250.932 103.038C250.452 100.465 250.213 97.6966 250.213 94.7315ZM307.187 93.358V94.7315C307.187 99.8768 307.841 104.652 309.149 109.056C310.501 113.416 312.419 117.188 314.905 120.371C317.39 123.554 320.377 126.061 323.865 127.893C327.397 129.68 331.365 130.574 335.769 130.574C337.993 130.574 340.064 130.334 341.983 129.855C343.945 129.375 345.733 128.699 347.346 127.827C348.436 127.217 349.461 126.519 350.42 125.734C351.38 124.949 352.295 124.077 353.167 123.118V127.173C353.167 129.571 352.819 131.73 352.121 133.648C351.467 135.567 350.508 137.18 349.243 138.488C347.848 139.927 346.104 141.017 344.011 141.759C341.961 142.5 339.607 142.871 336.947 142.871C335.29 142.871 333.676 142.696 332.107 142.347C330.58 142.042 329.098 141.563 327.659 140.908C326.176 140.254 324.759 139.404 323.408 138.358C322.056 137.355 320.791 136.177 319.614 134.826L311.438 145.879C312.964 147.842 314.796 149.52 316.932 150.916C319.069 152.355 321.336 153.532 323.735 154.448C326.133 155.363 328.553 156.039 330.995 156.475C333.437 156.911 335.726 157.129 337.862 157.129C342.833 157.129 347.368 156.453 351.467 155.102C355.609 153.794 359.163 151.853 362.128 149.28C365.05 146.708 367.317 143.547 368.93 139.797C370.587 136.047 371.416 131.773 371.416 126.977V58.4964H354.868L354.149 65.2333C353.276 64.1431 352.317 63.162 351.271 62.29C350.224 61.3743 349.09 60.5894 347.87 59.9353C346.256 59.0196 344.447 58.3438 342.441 57.9077C340.479 57.4281 338.298 57.1883 335.9 57.1883C331.453 57.1883 327.463 58.0603 323.931 59.8045C320.399 61.5487 317.39 64.0123 314.905 67.1954C312.419 70.3786 310.501 74.1939 309.149 78.6416C307.841 83.0892 307.187 87.9947 307.187 93.358ZM325.435 94.7315V93.358C325.435 90.3929 325.74 87.624 326.351 85.0514C326.961 82.4351 327.899 80.1459 329.163 78.1837C330.384 76.2651 331.932 74.7608 333.807 73.6707C335.682 72.537 337.906 71.9701 340.479 71.9701C341.874 71.9701 343.16 72.1009 344.338 72.3625C345.559 72.6242 346.67 72.9948 347.673 73.4745C348.851 74.0413 349.897 74.7826 350.813 75.6983C351.729 76.614 352.513 77.6823 353.167 78.9032V108.859C352.557 109.949 351.838 110.931 351.009 111.803C350.181 112.675 349.221 113.416 348.131 114.026C347.085 114.593 345.907 115.029 344.599 115.335C343.335 115.64 341.918 115.792 340.348 115.792C337.775 115.792 335.551 115.247 333.676 114.157C331.801 113.067 330.253 111.563 329.033 109.644C327.812 107.769 326.896 105.567 326.285 103.038C325.719 100.465 325.435 97.6966 325.435 94.7315ZM428.325 129.266H446.769V128.154C445.854 126.366 445.156 124.23 444.676 121.744C444.197 119.259 443.957 116.119 443.957 112.326V81.9773C443.957 77.8785 443.194 74.2811 441.668 71.1852C440.141 68.0457 438.027 65.4513 435.323 63.4019C432.62 61.3525 429.415 59.8045 425.708 58.758C422.046 57.7115 418.078 57.1883 413.804 57.1883C409.052 57.1883 404.822 57.7987 401.116 59.0196C397.453 60.197 394.357 61.8103 391.828 63.8597C389.255 65.9091 387.293 68.2855 385.941 70.989C384.633 73.6925 383.979 76.5486 383.979 79.5573H402.162C402.162 78.2927 402.337 77.1372 402.685 76.0907C403.078 75.0442 403.666 74.1503 404.451 73.4091C405.323 72.5806 406.457 71.9483 407.852 71.5123C409.248 71.0326 410.905 70.7928 412.823 70.7928C415.004 70.7928 416.9 71.0762 418.514 71.6431C420.171 72.1663 421.544 72.9294 422.634 73.9323C423.681 74.8916 424.466 76.0471 424.989 77.3988C425.512 78.707 425.774 80.1895 425.774 81.8465V86.0325H415.636C410.403 86.0325 405.759 86.5121 401.704 87.4714C397.693 88.3871 394.313 89.7388 391.566 91.5266C388.514 93.4888 386.225 95.9961 384.699 99.0484C383.172 102.057 382.409 105.524 382.409 109.448C382.409 112.5 383.02 115.335 384.241 117.951C385.462 120.523 387.162 122.747 389.342 124.622C391.523 126.497 394.117 127.958 397.126 129.004C400.178 130.051 403.514 130.574 407.133 130.574C409.357 130.574 411.428 130.356 413.347 129.92C415.265 129.528 417.031 128.961 418.645 128.22C420.214 127.522 421.653 126.693 422.961 125.734C424.269 124.775 425.425 123.75 426.428 122.66C426.646 123.925 426.908 125.124 427.213 126.257C427.518 127.391 427.889 128.394 428.325 129.266ZM410.992 116.512C409.291 116.512 407.787 116.316 406.479 115.923C405.214 115.487 404.146 114.92 403.274 114.223C402.402 113.481 401.726 112.587 401.246 111.541C400.81 110.451 400.592 109.274 400.592 108.009C400.592 106.396 400.898 104.913 401.508 103.561C402.118 102.166 403.056 100.967 404.321 99.964C405.585 99.0048 407.22 98.2635 409.226 97.7402C411.232 97.1734 413.652 96.8899 416.486 96.8899H425.774V109.056C425.251 109.971 424.531 110.887 423.615 111.803C422.7 112.675 421.61 113.46 420.345 114.157C419.081 114.855 417.663 115.422 416.094 115.858C414.524 116.294 412.823 116.512 410.992 116.512ZM470.517 58.4964H454.885V129.266H471.433V76.2869C471.651 75.7201 471.891 75.1968 472.152 74.7172C472.414 74.2375 472.719 73.8233 473.068 73.4745C473.548 72.9948 474.093 72.6242 474.703 72.3625C475.313 72.1009 476.011 71.9701 476.796 71.9701C477.494 71.9701 478.148 72.0791 478.758 72.2971C479.369 72.4716 479.914 72.7986 480.393 73.2782C480.829 73.7579 481.178 74.4338 481.44 75.3058C481.702 76.1779 481.832 77.2898 481.832 78.6416V129.266H497.857V77.0718C497.857 76.5486 497.857 76.1343 497.857 75.8291C497.857 75.5239 497.857 75.3276 497.857 75.2404C498.075 74.7608 498.337 74.3465 498.642 73.9977C498.947 73.6053 499.296 73.2564 499.688 72.9512C500.168 72.646 500.669 72.4062 501.193 72.2317C501.759 72.0573 502.392 71.9701 503.089 71.9701C503.743 71.9701 504.376 72.0791 504.986 72.2971C505.64 72.4716 506.207 72.7986 506.687 73.2782C507.166 73.8015 507.537 74.4992 507.799 75.3712C508.104 76.2433 508.257 77.3552 508.257 78.707V129.266H524.804V78.7724C524.804 74.848 524.412 71.5341 523.627 68.8306C522.886 66.0835 521.839 63.8379 520.487 62.0937C519.092 60.3932 517.457 59.1505 515.582 58.3656C513.751 57.5807 511.767 57.1883 509.63 57.1883C507.929 57.1883 506.36 57.4063 504.921 57.8423C503.482 58.2784 502.196 58.8888 501.062 59.6737C500.146 60.2842 499.296 61.0254 498.511 61.8975C497.77 62.726 497.094 63.6635 496.483 64.71C496.091 63.6199 495.611 62.6606 495.044 61.8321C494.521 60.96 493.889 60.2188 493.148 59.6083C492.188 58.7798 491.055 58.1694 489.746 57.7769C488.438 57.3845 486.956 57.1883 485.299 57.1883C481.898 57.1883 478.998 58.0822 476.6 59.8699C474.245 61.6141 472.392 64.0123 471.04 67.0646L470.517 58.4964ZM671.652 129.266V114.68H629.857L647.779 95.7126C650.875 92.5295 653.687 89.499 656.216 86.6211C658.745 83.6997 660.926 80.8436 662.757 78.0529C664.545 75.2622 665.918 72.4498 666.877 69.6155C667.88 66.7376 668.382 63.7289 668.382 60.5894C668.382 56.447 667.728 52.6752 666.42 49.2741C665.112 45.8294 663.215 42.8861 660.729 40.4442C658.2 38.0024 655.061 36.1056 651.311 34.7539C647.604 33.4021 643.331 32.7263 638.491 32.7263C633.433 32.7263 628.811 33.5548 624.625 35.2117C620.483 36.8251 616.951 39.0489 614.029 41.8832C611.064 44.7174 608.775 48.0314 607.161 51.8249C605.548 55.5749 604.741 59.5647 604.741 63.7943H622.99C622.99 61.2217 623.317 58.9324 623.971 56.9266C624.625 54.9208 625.584 53.2421 626.849 51.8903C628.07 50.5822 629.596 49.6011 631.427 48.9471C633.302 48.2494 635.461 47.9006 637.902 47.9006C639.777 47.9006 641.478 48.2058 643.004 48.8162C644.574 49.4267 645.926 50.2988 647.059 51.4325C648.149 52.6098 649 54.027 649.61 55.6839C650.221 57.3409 650.526 59.2377 650.526 61.3743C650.526 62.8132 650.286 64.2958 649.806 65.8219C649.37 67.3481 648.651 68.9832 647.648 70.7274C646.602 72.5152 645.25 74.4774 643.593 76.614C641.936 78.7506 639.908 81.127 637.51 83.7433L606.704 116.839V129.266H671.652ZM746.482 93.031V70.2695C746.482 64.1213 745.763 58.7144 744.324 54.0488C742.885 49.3395 740.836 45.3933 738.176 42.2102C735.472 39.0707 732.202 36.6943 728.365 35.0809C724.528 33.4675 720.211 32.6609 715.414 32.6609C710.661 32.6609 706.366 33.4675 702.529 35.0809C698.736 36.6943 695.509 39.0707 692.849 42.2102C690.146 45.3933 688.074 49.3395 686.635 54.0488C685.197 58.7144 684.477 64.1213 684.477 70.2695V93.031C684.477 99.1792 685.197 104.608 686.635 109.317C688.118 113.983 690.211 117.885 692.914 121.025C695.574 124.208 698.823 126.606 702.66 128.22C706.497 129.833 710.792 130.64 715.545 130.64C720.342 130.64 724.658 129.833 728.496 128.22C732.333 126.606 735.581 124.208 738.241 121.025C740.901 117.885 742.929 113.983 744.324 109.317C745.763 104.608 746.482 99.1792 746.482 93.031ZM702.791 85.1822C702.791 83.8305 702.791 82.8058 702.791 82.1081C702.791 81.4104 702.791 80.0151 702.791 77.9221V67.3917C702.791 63.8597 703.052 60.8074 703.576 58.2348C704.143 55.6621 704.993 53.5691 706.127 51.9558C707.173 50.4296 708.459 49.2959 709.986 48.5546C711.555 47.7697 713.365 47.3773 715.414 47.3773C717.246 47.3773 718.881 47.6825 720.32 48.293C721.802 48.8598 723.045 49.7537 724.048 50.9747C725.356 52.5008 726.337 54.5502 726.991 57.1229C727.689 59.6519 728.081 62.7042 728.169 66.2798L702.791 85.1822ZM728.169 95.778C728.169 99.31 727.885 102.384 727.318 105C726.795 107.573 725.988 109.688 724.898 111.345C723.852 112.915 722.544 114.092 720.974 114.877C719.404 115.618 717.595 115.989 715.545 115.989C713.321 115.989 711.403 115.553 709.789 114.68C708.176 113.808 706.846 112.478 705.8 110.691C704.884 109.208 704.164 107.355 703.641 105.131C703.161 102.907 702.878 100.356 702.791 97.4786L728.169 78.6416C728.169 79.9061 728.169 80.8872 728.169 81.5848C728.169 82.2389 728.169 83.2854 728.169 84.7244V95.778ZM821.836 129.266V114.68H780.041L797.962 95.7126C801.058 92.5295 803.871 89.499 806.4 86.6211C808.929 83.6997 811.109 80.8436 812.94 78.0529C814.728 75.2622 816.102 72.4498 817.061 69.6155C818.064 66.7376 818.565 63.7289 818.565 60.5894C818.565 56.447 817.911 52.6752 816.603 49.2741C815.295 45.8294 813.398 42.8861 810.913 40.4442C808.384 38.0024 805.244 36.1056 801.494 34.7539C797.788 33.4021 793.515 32.7263 788.675 32.7263C783.617 32.7263 778.994 33.5548 774.808 35.2117C770.666 36.8251 767.134 39.0489 764.213 41.8832C761.248 44.7174 758.958 48.0314 757.345 51.8249C755.732 55.5749 754.925 59.5647 754.925 63.7943H773.173C773.173 61.2217 773.5 58.9324 774.154 56.9266C774.808 54.9208 775.768 53.2421 777.032 51.8903C778.253 50.5822 779.779 49.6011 781.611 48.9471C783.486 48.2494 785.644 47.9006 788.086 47.9006C789.961 47.9006 791.662 48.2058 793.188 48.8162C794.757 49.4267 796.109 50.2988 797.243 51.4325C798.333 52.6098 799.183 54.027 799.794 55.6839C800.404 57.3409 800.709 59.2377 800.709 61.3743C800.709 62.8132 800.47 64.2958 799.99 65.8219C799.554 67.3481 798.834 68.9832 797.832 70.7274C796.785 72.5152 795.433 74.4774 793.776 76.614C792.119 78.7506 790.092 81.127 787.694 83.7433L756.887 116.839V129.266H821.836ZM879.202 129.266V34.0344H878.221L836.754 49.0125V64.8408L860.823 56.2072V129.266H879.202Z" fill="#51FB81"/>
<path d="M164.859 177.689V174.782H149.955V177.689H155.579V193.266H159.159V177.689H164.859ZM170.547 181.421V173.766H167.018V193.266H170.547V183.351C170.682 183.173 170.83 183.013 170.991 182.869C171.16 182.725 171.347 182.602 171.55 182.5C171.77 182.382 172.015 182.293 172.286 182.234C172.557 182.175 172.849 182.145 173.162 182.145C173.568 182.145 173.932 182.2 174.254 182.31C174.576 182.412 174.851 182.572 175.079 182.792C175.308 183.013 175.481 183.3 175.6 183.656C175.727 184.011 175.79 184.434 175.79 184.925V193.266H179.319V184.951C179.319 183.944 179.197 183.084 178.951 182.374C178.714 181.654 178.38 181.066 177.948 180.609C177.517 180.152 177 179.818 176.399 179.606C175.799 179.386 175.138 179.276 174.419 179.276C173.928 179.276 173.463 179.348 173.022 179.492C172.582 179.636 172.18 179.839 171.816 180.101C171.579 180.27 171.351 180.469 171.131 180.698C170.919 180.918 170.725 181.159 170.547 181.421ZM189.298 193.52C190.627 193.52 191.778 193.262 192.751 192.746C193.724 192.229 194.435 191.654 194.884 191.019L193.119 189.115C192.713 189.639 192.184 190.033 191.532 190.295C190.881 190.558 190.208 190.689 189.514 190.689C189.023 190.689 188.57 190.613 188.155 190.46C187.741 190.308 187.372 190.092 187.051 189.813C186.738 189.542 186.488 189.242 186.302 188.912C186.116 188.573 185.963 188.129 185.845 187.579V187.541H195.163V186.042C195.163 185.035 195.023 184.117 194.744 183.288C194.465 182.45 194.059 181.735 193.525 181.142C192.984 180.55 192.324 180.093 191.545 179.771C190.775 179.441 189.895 179.276 188.904 179.276C187.948 179.276 187.063 179.449 186.251 179.796C185.438 180.143 184.736 180.63 184.144 181.256C183.551 181.883 183.09 182.632 182.76 183.503C182.43 184.367 182.265 185.323 182.265 186.373V186.88C182.265 187.803 182.43 188.67 182.76 189.483C183.098 190.287 183.576 190.985 184.194 191.578C184.812 192.179 185.553 192.653 186.416 193C187.279 193.347 188.24 193.52 189.298 193.52ZM188.879 182.132C189.327 182.132 189.721 182.204 190.06 182.348C190.407 182.484 190.699 182.67 190.936 182.907C191.173 183.152 191.359 183.44 191.494 183.77C191.63 184.1 191.697 184.451 191.697 184.824V185.103H185.908C185.993 184.654 186.12 184.248 186.289 183.884C186.458 183.52 186.67 183.207 186.924 182.945C187.169 182.682 187.457 182.484 187.787 182.348C188.117 182.204 188.481 182.132 188.879 182.132ZM222.826 189.407L223.905 193.266H227.663L221.722 174.782H218.484L212.429 193.266H216.187L217.278 189.407H222.826ZM218.154 186.373L220.097 179.568L221.988 186.373H218.154ZM229.479 193.266H233.021V183.503C233.139 183.317 233.27 183.148 233.414 182.996C233.558 182.843 233.719 182.712 233.896 182.602C234.117 182.45 234.366 182.335 234.646 182.259C234.933 182.183 235.246 182.145 235.585 182.145C235.991 182.145 236.355 182.187 236.677 182.272C236.998 182.348 237.273 182.488 237.502 182.691C237.73 182.894 237.904 183.173 238.022 183.529C238.149 183.876 238.213 184.32 238.213 184.862V193.266H241.742V184.811C241.742 183.812 241.624 182.966 241.387 182.272C241.158 181.569 240.837 180.994 240.422 180.545C239.999 180.105 239.499 179.784 238.924 179.581C238.348 179.377 237.714 179.276 237.02 179.276C236.478 179.276 235.966 179.352 235.483 179.504C235.001 179.657 234.557 179.877 234.15 180.165C233.913 180.334 233.689 180.524 233.478 180.736C233.266 180.947 233.071 181.18 232.894 181.434L232.678 179.53H229.479V193.266ZM245.094 193.266H248.636V183.503C248.754 183.317 248.885 183.148 249.029 182.996C249.173 182.843 249.334 182.712 249.512 182.602C249.732 182.45 249.981 182.335 250.261 182.259C250.549 182.183 250.862 182.145 251.2 182.145C251.606 182.145 251.97 182.187 252.292 182.272C252.614 182.348 252.889 182.488 253.117 182.691C253.346 182.894 253.519 183.173 253.638 183.529C253.765 183.876 253.828 184.32 253.828 184.862V193.266H257.357V184.811C257.357 183.812 257.239 182.966 257.002 182.272C256.773 181.569 256.452 180.994 256.037 180.545C255.614 180.105 255.115 179.784 254.539 179.581C253.964 179.377 253.329 179.276 252.635 179.276C252.093 179.276 251.581 179.352 251.099 179.504C250.616 179.657 250.172 179.877 249.766 180.165C249.529 180.334 249.304 180.524 249.093 180.736C248.881 180.947 248.687 181.18 248.509 181.434L248.293 179.53H245.094V193.266ZM269.672 193.266H272.871V179.53H269.329V189.166C269.219 189.386 269.088 189.584 268.936 189.762C268.783 189.94 268.61 190.092 268.415 190.219C268.187 190.363 267.92 190.473 267.615 190.549C267.319 190.625 266.985 190.664 266.612 190.664C266.198 190.664 265.846 190.613 265.559 190.511C265.271 190.41 265.038 190.24 264.86 190.003C264.683 189.775 264.551 189.47 264.467 189.089C264.391 188.708 264.353 188.239 264.353 187.68V179.53H260.823V187.655C260.823 188.696 260.938 189.589 261.166 190.333C261.403 191.07 261.733 191.675 262.156 192.149C262.579 192.631 263.087 192.983 263.68 193.203C264.272 193.423 264.924 193.533 265.635 193.533C266.413 193.533 267.129 193.338 267.78 192.949C268.44 192.559 269.003 192.022 269.469 191.336L269.672 193.266ZM284.906 193.266H288.486V193.05C288.309 192.703 288.173 192.289 288.08 191.806C287.987 191.324 287.94 190.714 287.94 189.978V184.087C287.94 183.292 287.792 182.594 287.496 181.993C287.2 181.383 286.789 180.88 286.265 180.482C285.74 180.084 285.118 179.784 284.398 179.581C283.688 179.377 282.917 179.276 282.088 179.276C281.165 179.276 280.344 179.394 279.625 179.631C278.914 179.86 278.313 180.173 277.822 180.571C277.323 180.969 276.942 181.43 276.68 181.955C276.426 182.479 276.299 183.034 276.299 183.618H279.828C279.828 183.372 279.862 183.148 279.93 182.945C280.006 182.742 280.12 182.568 280.272 182.424C280.442 182.264 280.662 182.141 280.933 182.056C281.203 181.963 281.525 181.917 281.897 181.917C282.321 181.917 282.689 181.972 283.002 182.082C283.324 182.183 283.59 182.331 283.802 182.526C284.005 182.712 284.157 182.936 284.259 183.199C284.36 183.453 284.411 183.74 284.411 184.062V184.875H282.443C281.428 184.875 280.526 184.968 279.739 185.154C278.961 185.332 278.305 185.594 277.771 185.941C277.179 186.322 276.735 186.808 276.438 187.401C276.142 187.985 275.994 188.658 275.994 189.419C275.994 190.012 276.113 190.562 276.35 191.07C276.587 191.569 276.917 192.001 277.34 192.365C277.763 192.729 278.267 193.012 278.851 193.215C279.443 193.418 280.09 193.52 280.793 193.52C281.225 193.52 281.627 193.478 281.999 193.393C282.371 193.317 282.714 193.207 283.027 193.063C283.332 192.928 283.611 192.767 283.865 192.581C284.119 192.394 284.343 192.195 284.538 191.984C284.58 192.229 284.631 192.462 284.69 192.682C284.75 192.902 284.822 193.097 284.906 193.266ZM281.542 190.791C281.212 190.791 280.92 190.752 280.666 190.676C280.421 190.592 280.213 190.482 280.044 190.346C279.875 190.202 279.743 190.029 279.65 189.826C279.566 189.614 279.523 189.386 279.523 189.14C279.523 188.827 279.583 188.539 279.701 188.277C279.82 188.006 280.002 187.773 280.247 187.579C280.493 187.392 280.81 187.249 281.199 187.147C281.589 187.037 282.058 186.982 282.608 186.982H284.411V189.343C284.31 189.521 284.17 189.699 283.992 189.876C283.814 190.046 283.603 190.198 283.357 190.333C283.112 190.469 282.837 190.579 282.532 190.664C282.228 190.748 281.897 190.791 281.542 190.791ZM292.676 173.766V176.648H296.789V190.397H292.676V193.266H304.292V190.397H300.356V173.766H292.676ZM334.418 185.167V182.348H326.826V177.689H335.662V174.782H323.246V193.266H335.7V190.384H326.826V185.167H334.418ZM338.785 193.266H342.327V183.503C342.446 183.317 342.577 183.148 342.721 182.996C342.865 182.843 343.025 182.712 343.203 182.602C343.423 182.45 343.673 182.335 343.952 182.259C344.24 182.183 344.553 182.145 344.892 182.145C345.298 182.145 345.662 182.187 345.983 182.272C346.305 182.348 346.58 182.488 346.809 182.691C347.037 182.894 347.211 183.173 347.329 183.529C347.456 183.876 347.52 184.32 347.52 184.862V193.266H351.049V184.811C351.049 183.812 350.93 182.966 350.693 182.272C350.465 181.569 350.143 180.994 349.729 180.545C349.305 180.105 348.806 179.784 348.23 179.581C347.655 179.377 347.02 179.276 346.326 179.276C345.785 179.276 345.272 179.352 344.79 179.504C344.308 179.657 343.863 179.877 343.457 180.165C343.22 180.334 342.996 180.524 342.784 180.736C342.573 180.947 342.378 181.18 342.2 181.434L341.984 179.53H338.785V193.266ZM360.875 176.166H357.346V179.53H354.21V182.132H357.346V188.378C357.346 189.284 357.464 190.063 357.701 190.714C357.938 191.358 358.277 191.887 358.717 192.301C359.148 192.724 359.669 193.038 360.278 193.241C360.896 193.435 361.582 193.533 362.335 193.533C362.724 193.533 363.118 193.512 363.516 193.469C363.922 193.435 364.311 193.385 364.684 193.317C365.056 193.249 365.407 193.165 365.737 193.063C366.067 192.953 366.355 192.826 366.601 192.682L366.258 190.257C366.097 190.3 365.902 190.342 365.674 190.384C365.454 190.427 365.217 190.465 364.963 190.499C364.701 190.541 364.425 190.575 364.138 190.6C363.858 190.625 363.583 190.638 363.312 190.638C362.94 190.638 362.602 190.596 362.297 190.511C362.001 190.427 361.747 190.283 361.535 190.08C361.324 189.885 361.159 189.623 361.04 189.292C360.93 188.954 360.875 188.535 360.875 188.036V182.132H366.004V179.53H360.875V176.166ZM379.88 179.276C378.957 179.276 378.107 179.5 377.328 179.949C376.549 180.389 375.881 180.998 375.322 181.777L375.297 181.472L375.157 179.53H371.869V193.266H375.398V185.014C375.559 184.625 375.762 184.286 376.008 183.999C376.253 183.711 376.549 183.474 376.896 183.288C377.184 183.127 377.51 183.008 377.874 182.932C378.246 182.847 378.661 182.805 379.118 182.805C379.558 182.805 380.02 182.835 380.502 182.894C380.993 182.945 381.471 183.025 381.937 183.135L382.457 179.619C382.178 179.534 381.81 179.458 381.353 179.39C380.904 179.314 380.413 179.276 379.88 179.276ZM392.296 193.52C393.625 193.52 394.776 193.262 395.749 192.746C396.722 192.229 397.433 191.654 397.882 191.019L396.117 189.115C395.711 189.639 395.182 190.033 394.53 190.295C393.879 190.558 393.206 190.689 392.512 190.689C392.021 190.689 391.568 190.613 391.153 190.46C390.739 190.308 390.37 190.092 390.049 189.813C389.736 189.542 389.486 189.242 389.3 188.912C389.114 188.573 388.961 188.129 388.843 187.579V187.541H398.161V186.042C398.161 185.035 398.021 184.117 397.742 183.288C397.463 182.45 397.057 181.735 396.523 181.142C395.982 180.55 395.322 180.093 394.543 179.771C393.773 179.441 392.893 179.276 391.902 179.276C390.946 179.276 390.062 179.449 389.249 179.796C388.437 180.143 387.734 180.63 387.142 181.256C386.549 181.883 386.088 182.632 385.758 183.503C385.428 184.367 385.263 185.323 385.263 186.373V186.88C385.263 187.803 385.428 188.67 385.758 189.483C386.096 190.287 386.575 190.985 387.192 191.578C387.81 192.179 388.551 192.653 389.414 193C390.277 193.347 391.238 193.52 392.296 193.52ZM391.877 182.132C392.326 182.132 392.719 182.204 393.058 182.348C393.405 182.484 393.697 182.67 393.934 182.907C394.171 183.152 394.357 183.44 394.492 183.77C394.628 184.1 394.695 184.451 394.695 184.824V185.103H388.906C388.991 184.654 389.118 184.248 389.287 183.884C389.456 183.52 389.668 183.207 389.922 182.945C390.167 182.682 390.455 182.484 390.785 182.348C391.115 182.204 391.479 182.132 391.877 182.132ZM401.297 198.547H404.826V192.073C404.987 192.25 405.156 192.411 405.334 192.555C405.512 192.699 405.698 192.83 405.893 192.949C406.223 193.135 406.578 193.275 406.959 193.368C407.348 193.469 407.771 193.52 408.229 193.52C409.092 193.52 409.858 193.342 410.526 192.987C411.195 192.631 411.758 192.14 412.215 191.514C412.663 190.896 413.002 190.16 413.23 189.305C413.467 188.45 413.586 187.524 413.586 186.525V186.258C413.586 185.217 413.467 184.269 413.23 183.415C413.002 182.551 412.659 181.811 412.202 181.193C411.745 180.583 411.182 180.114 410.514 179.784C409.845 179.445 409.075 179.276 408.203 179.276C407.78 179.276 407.382 179.322 407.01 179.416C406.646 179.5 406.312 179.623 406.007 179.784C405.753 179.919 405.516 180.08 405.296 180.266C405.076 180.444 404.873 180.647 404.687 180.875L404.56 179.53H401.297V198.547ZM410.057 186.258V186.525C410.057 187.092 410.006 187.629 409.904 188.137C409.803 188.637 409.642 189.077 409.422 189.458C409.202 189.838 408.914 190.139 408.559 190.359C408.212 190.579 407.788 190.689 407.289 190.689C406.976 190.689 406.692 190.659 406.438 190.6C406.185 190.532 405.96 190.439 405.766 190.321C405.562 190.194 405.381 190.042 405.22 189.864C405.067 189.686 404.936 189.487 404.826 189.267V183.529C404.945 183.292 405.084 183.084 405.245 182.907C405.414 182.729 405.609 182.581 405.829 182.462C406.024 182.361 406.24 182.285 406.477 182.234C406.714 182.175 406.976 182.145 407.264 182.145C407.763 182.145 408.186 182.251 408.533 182.462C408.889 182.674 409.181 182.962 409.409 183.326C409.629 183.698 409.79 184.138 409.892 184.646C410.002 185.145 410.057 185.683 410.057 186.258ZM426.726 179.276C425.803 179.276 424.952 179.5 424.174 179.949C423.395 180.389 422.727 180.998 422.168 181.777L422.143 181.472L422.003 179.53H418.715V193.266H422.244V185.014C422.405 184.625 422.608 184.286 422.854 183.999C423.099 183.711 423.395 183.474 423.742 183.288C424.03 183.127 424.356 183.008 424.72 182.932C425.092 182.847 425.507 182.805 425.964 182.805C426.404 182.805 426.865 182.835 427.348 182.894C427.839 182.945 428.317 183.025 428.782 183.135L429.303 179.619C429.023 179.534 428.655 179.458 428.198 179.39C427.75 179.314 427.259 179.276 426.726 179.276ZM439.142 193.52C440.47 193.52 441.621 193.262 442.595 192.746C443.568 192.229 444.279 191.654 444.728 191.019L442.963 189.115C442.557 189.639 442.028 190.033 441.376 190.295C440.724 190.558 440.051 190.689 439.357 190.689C438.867 190.689 438.414 190.613 437.999 190.46C437.584 190.308 437.216 190.092 436.895 189.813C436.581 189.542 436.332 189.242 436.146 188.912C435.959 188.573 435.807 188.129 435.688 187.579V187.541H445.007V186.042C445.007 185.035 444.867 184.117 444.588 183.288C444.309 182.45 443.902 181.735 443.369 181.142C442.827 180.55 442.167 180.093 441.389 179.771C440.618 179.441 439.738 179.276 438.748 179.276C437.792 179.276 436.907 179.449 436.095 179.796C435.282 180.143 434.58 180.63 433.987 181.256C433.395 181.883 432.934 182.632 432.604 183.503C432.273 184.367 432.108 185.323 432.108 186.373V186.88C432.108 187.803 432.273 188.67 432.604 189.483C432.942 190.287 433.42 190.985 434.038 191.578C434.656 192.179 435.396 192.653 436.26 193C437.123 193.347 438.084 193.52 439.142 193.52ZM438.723 182.132C439.171 182.132 439.565 182.204 439.903 182.348C440.25 182.484 440.542 182.67 440.779 182.907C441.016 183.152 441.202 183.44 441.338 183.77C441.473 184.1 441.541 184.451 441.541 184.824V185.103H435.752C435.837 184.654 435.964 184.248 436.133 183.884C436.302 183.52 436.514 183.207 436.768 182.945C437.013 182.682 437.301 182.484 437.631 182.348C437.961 182.204 438.325 182.132 438.723 182.132ZM448.092 193.266H451.634V183.503C451.752 183.317 451.883 183.148 452.027 182.996C452.171 182.843 452.332 182.712 452.51 182.602C452.73 182.45 452.979 182.335 453.259 182.259C453.547 182.183 453.86 182.145 454.198 182.145C454.604 182.145 454.968 182.187 455.29 182.272C455.612 182.348 455.887 182.488 456.115 182.691C456.344 182.894 456.517 183.173 456.636 183.529C456.763 183.876 456.826 184.32 456.826 184.862V193.266H460.355V184.811C460.355 183.812 460.237 182.966 460 182.272C459.771 181.569 459.45 180.994 459.035 180.545C458.612 180.105 458.113 179.784 457.537 179.581C456.962 179.377 456.327 179.276 455.633 179.276C455.091 179.276 454.579 179.352 454.097 179.504C453.614 179.657 453.17 179.877 452.764 180.165C452.527 180.334 452.302 180.524 452.091 180.736C451.879 180.947 451.685 181.18 451.507 181.434L451.291 179.53H448.092V193.266ZM470.372 193.52C471.701 193.52 472.852 193.262 473.825 192.746C474.799 192.229 475.509 191.654 475.958 191.019L474.193 189.115C473.787 189.639 473.258 190.033 472.606 190.295C471.955 190.558 471.282 190.689 470.588 190.689C470.097 190.689 469.644 190.613 469.229 190.46C468.815 190.308 468.447 190.092 468.125 189.813C467.812 189.542 467.562 189.242 467.376 188.912C467.19 188.573 467.037 188.129 466.919 187.579V187.541H476.237V186.042C476.237 185.035 476.098 184.117 475.818 183.288C475.539 182.45 475.133 181.735 474.6 181.142C474.058 180.55 473.398 180.093 472.619 179.771C471.849 179.441 470.969 179.276 469.979 179.276C469.022 179.276 468.138 179.449 467.325 179.796C466.513 180.143 465.81 180.63 465.218 181.256C464.625 181.883 464.164 182.632 463.834 183.503C463.504 184.367 463.339 185.323 463.339 186.373V186.88C463.339 187.803 463.504 188.67 463.834 189.483C464.173 190.287 464.651 190.985 465.269 191.578C465.886 192.179 466.627 192.653 467.49 193C468.354 193.347 469.314 193.52 470.372 193.52ZM469.953 182.132C470.402 182.132 470.795 182.204 471.134 182.348C471.481 182.484 471.773 182.67 472.01 182.907C472.247 183.152 472.433 183.44 472.568 183.77C472.704 184.1 472.771 184.451 472.771 184.824V185.103H466.982C467.067 184.654 467.194 184.248 467.363 183.884C467.533 183.52 467.744 183.207 467.998 182.945C468.243 182.682 468.531 182.484 468.861 182.348C469.191 182.204 469.555 182.132 469.953 182.132ZM488.285 193.266H491.484V179.53H487.942V189.166C487.832 189.386 487.701 189.584 487.549 189.762C487.396 189.94 487.223 190.092 487.028 190.219C486.8 190.363 486.533 190.473 486.229 190.549C485.932 190.625 485.598 190.664 485.226 190.664C484.811 190.664 484.46 190.613 484.172 190.511C483.884 190.41 483.651 190.24 483.474 190.003C483.296 189.775 483.165 189.47 483.08 189.089C483.004 188.708 482.966 188.239 482.966 187.68V179.53H479.437V187.655C479.437 188.696 479.551 189.589 479.779 190.333C480.016 191.07 480.346 191.675 480.77 192.149C481.193 192.631 481.701 192.983 482.293 193.203C482.885 193.423 483.537 193.533 484.248 193.533C485.027 193.533 485.742 193.338 486.394 192.949C487.054 192.559 487.617 192.022 488.082 191.336L488.285 193.266ZM504.802 179.276C503.879 179.276 503.029 179.5 502.25 179.949C501.471 180.389 500.803 180.998 500.244 181.777L500.219 181.472L500.079 179.53H496.791V193.266H500.32V185.014C500.481 184.625 500.684 184.286 500.93 183.999C501.175 183.711 501.471 183.474 501.818 183.288C502.106 183.127 502.432 183.008 502.796 182.932C503.168 182.847 503.583 182.805 504.04 182.805C504.48 182.805 504.941 182.835 505.424 182.894C505.915 182.945 506.393 183.025 506.858 183.135L507.379 179.619C507.1 179.534 506.731 179.458 506.274 179.39C505.826 179.314 505.335 179.276 504.802 179.276ZM519.414 189.496C519.414 189.707 519.359 189.902 519.249 190.08C519.147 190.257 518.991 190.414 518.779 190.549C518.559 190.685 518.276 190.795 517.929 190.879C517.59 190.956 517.192 190.994 516.735 190.994C516.354 190.994 515.982 190.956 515.618 190.879C515.263 190.803 514.945 190.681 514.666 190.511C514.387 190.35 514.158 190.139 513.98 189.876C513.803 189.606 513.701 189.284 513.676 188.912H510.312C510.312 189.47 510.447 190.029 510.718 190.587C510.997 191.138 511.403 191.628 511.937 192.06C512.47 192.5 513.13 192.856 513.917 193.126C514.713 193.397 515.627 193.533 516.659 193.533C517.599 193.533 518.449 193.431 519.211 193.228C519.973 193.016 520.624 192.724 521.166 192.352C521.699 191.98 522.11 191.54 522.397 191.032C522.694 190.515 522.842 189.953 522.842 189.343C522.842 188.683 522.694 188.116 522.397 187.642C522.11 187.16 521.708 186.749 521.191 186.411C520.675 186.081 520.062 185.81 519.351 185.598C518.64 185.387 517.869 185.213 517.04 185.078C516.465 184.993 515.991 184.896 515.618 184.786C515.246 184.667 514.954 184.536 514.742 184.392C514.522 184.257 514.37 184.104 514.285 183.935C514.201 183.757 514.158 183.567 514.158 183.364C514.158 183.161 514.205 182.97 514.298 182.792C514.399 182.606 514.543 182.445 514.729 182.31C514.933 182.158 515.195 182.039 515.517 181.955C515.838 181.87 516.215 181.828 516.646 181.828C517.154 181.828 517.586 181.891 517.941 182.018C518.305 182.145 518.593 182.314 518.805 182.526C518.957 182.687 519.071 182.869 519.147 183.072C519.224 183.266 519.262 183.478 519.262 183.707H522.791C522.791 183.072 522.651 182.484 522.372 181.942C522.093 181.4 521.691 180.931 521.166 180.533C520.633 180.143 519.985 179.839 519.224 179.619C518.462 179.39 517.603 179.276 516.646 179.276C515.732 179.276 514.911 179.39 514.184 179.619C513.456 179.847 512.838 180.156 512.33 180.545C511.822 180.935 511.433 181.388 511.162 181.904C510.891 182.42 510.756 182.962 510.756 183.529C510.756 184.113 510.887 184.629 511.149 185.078C511.42 185.526 511.793 185.92 512.267 186.258C512.741 186.605 513.308 186.902 513.968 187.147C514.636 187.384 515.373 187.583 516.177 187.744C516.812 187.862 517.336 187.981 517.751 188.099C518.166 188.218 518.5 188.345 518.754 188.48C518.999 188.624 519.169 188.776 519.262 188.937C519.363 189.098 519.414 189.284 519.414 189.496ZM529.697 181.421V173.766H526.168V193.266H529.697V183.351C529.833 183.173 529.981 183.013 530.142 182.869C530.311 182.725 530.497 182.602 530.7 182.5C530.92 182.382 531.166 182.293 531.437 182.234C531.707 182.175 531.999 182.145 532.312 182.145C532.719 182.145 533.083 182.2 533.404 182.31C533.726 182.412 534.001 182.572 534.229 182.792C534.458 183.013 534.632 183.3 534.75 183.656C534.877 184.011 534.94 184.434 534.94 184.925V193.266H538.47V184.951C538.47 183.944 538.347 183.084 538.102 182.374C537.865 181.654 537.53 181.066 537.099 180.609C536.667 180.152 536.151 179.818 535.55 179.606C534.949 179.386 534.289 179.276 533.569 179.276C533.078 179.276 532.613 179.348 532.173 179.492C531.733 179.636 531.331 179.839 530.967 180.101C530.73 180.27 530.501 180.469 530.281 180.698C530.07 180.918 529.875 181.159 529.697 181.421ZM542.723 179.53V182.412H546.633V190.397H542.723V193.266H553.92V190.397H550.2V179.53H542.723ZM546.379 176.013C546.379 176.284 546.425 176.538 546.519 176.775C546.62 177.003 546.76 177.198 546.938 177.359C547.115 177.528 547.327 177.659 547.572 177.752C547.826 177.846 548.105 177.892 548.41 177.892C549.036 177.892 549.532 177.719 549.896 177.372C550.268 177.016 550.454 176.563 550.454 176.013C550.454 175.463 550.268 175.014 549.896 174.667C549.532 174.312 549.036 174.134 548.41 174.134C548.105 174.134 547.826 174.181 547.572 174.274C547.327 174.367 547.115 174.494 546.938 174.655C546.76 174.824 546.62 175.027 546.519 175.264C546.425 175.493 546.379 175.742 546.379 176.013ZM557.449 198.547H560.979V192.073C561.139 192.25 561.309 192.411 561.486 192.555C561.664 192.699 561.85 192.83 562.045 192.949C562.375 193.135 562.73 193.275 563.111 193.368C563.501 193.469 563.924 193.52 564.381 193.52C565.244 193.52 566.01 193.342 566.679 192.987C567.347 192.631 567.91 192.14 568.367 191.514C568.816 190.896 569.154 190.16 569.383 189.305C569.62 188.45 569.738 187.524 569.738 186.525V186.258C569.738 185.217 569.62 184.269 569.383 183.415C569.154 182.551 568.812 181.811 568.354 181.193C567.897 180.583 567.335 180.114 566.666 179.784C565.997 179.445 565.227 179.276 564.355 179.276C563.932 179.276 563.535 179.322 563.162 179.416C562.798 179.5 562.464 179.623 562.159 179.784C561.905 179.919 561.668 180.08 561.448 180.266C561.228 180.444 561.025 180.647 560.839 180.875L560.712 179.53H557.449V198.547ZM566.209 186.258V186.525C566.209 187.092 566.158 187.629 566.057 188.137C565.955 188.637 565.794 189.077 565.574 189.458C565.354 189.838 565.066 190.139 564.711 190.359C564.364 190.579 563.941 190.689 563.441 190.689C563.128 190.689 562.845 190.659 562.591 190.6C562.337 190.532 562.113 190.439 561.918 190.321C561.715 190.194 561.533 190.042 561.372 189.864C561.22 189.686 561.089 189.487 560.979 189.267V183.529C561.097 183.292 561.237 183.084 561.397 182.907C561.567 182.729 561.761 182.581 561.981 182.462C562.176 182.361 562.392 182.285 562.629 182.234C562.866 182.175 563.128 182.145 563.416 182.145C563.915 182.145 564.339 182.251 564.686 182.462C565.041 182.674 565.333 182.962 565.562 183.326C565.782 183.698 565.942 184.138 566.044 184.646C566.154 185.145 566.209 185.683 566.209 186.258ZM599.877 185.167V182.348H592.285V177.689H601.121V174.782H588.705V193.266H601.159V190.384H592.285V185.167H599.877ZM608.611 193.266H611.925L617.143 179.53H613.461L610.452 189.216L610.262 190.181L610.071 189.216L607.05 179.53H603.368L608.611 193.266ZM626.524 193.52C627.853 193.52 629.004 193.262 629.978 192.746C630.951 192.229 631.662 191.654 632.11 191.019L630.346 189.115C629.939 189.639 629.41 190.033 628.759 190.295C628.107 190.558 627.434 190.689 626.74 190.689C626.249 190.689 625.797 190.613 625.382 190.46C624.967 190.308 624.599 190.092 624.277 189.813C623.964 189.542 623.715 189.242 623.528 188.912C623.342 188.573 623.19 188.129 623.071 187.579V187.541H632.39V186.042C632.39 185.035 632.25 184.117 631.971 183.288C631.691 182.45 631.285 181.735 630.752 181.142C630.21 180.55 629.55 180.093 628.771 179.771C628.001 179.441 627.121 179.276 626.131 179.276C625.174 179.276 624.29 179.449 623.478 179.796C622.665 180.143 621.963 180.63 621.37 181.256C620.778 181.883 620.316 182.632 619.986 183.503C619.656 184.367 619.491 185.323 619.491 186.373V186.88C619.491 187.803 619.656 188.67 619.986 189.483C620.325 190.287 620.803 190.985 621.421 191.578C622.039 192.179 622.779 192.653 623.643 193C624.506 193.347 625.466 193.52 626.524 193.52ZM626.105 182.132C626.554 182.132 626.948 182.204 627.286 182.348C627.633 182.484 627.925 182.67 628.162 182.907C628.399 183.152 628.585 183.44 628.721 183.77C628.856 184.1 628.924 184.451 628.924 184.824V185.103H623.135C623.219 184.654 623.346 184.248 623.516 183.884C623.685 183.52 623.896 183.207 624.15 182.945C624.396 182.682 624.684 182.484 625.014 182.348C625.344 182.204 625.708 182.132 626.105 182.132ZM635.475 193.266H639.017V183.503C639.135 183.317 639.266 183.148 639.41 182.996C639.554 182.843 639.715 182.712 639.893 182.602C640.113 182.45 640.362 182.335 640.642 182.259C640.929 182.183 641.243 182.145 641.581 182.145C641.987 182.145 642.351 182.187 642.673 182.272C642.994 182.348 643.27 182.488 643.498 182.691C643.727 182.894 643.9 183.173 644.019 183.529C644.146 183.876 644.209 184.32 644.209 184.862V193.266H647.738V184.811C647.738 183.812 647.62 182.966 647.383 182.272C647.154 181.569 646.833 180.994 646.418 180.545C645.995 180.105 645.495 179.784 644.92 179.581C644.344 179.377 643.71 179.276 643.016 179.276C642.474 179.276 641.962 179.352 641.479 179.504C640.997 179.657 640.553 179.877 640.146 180.165C639.91 180.334 639.685 180.524 639.474 180.736C639.262 180.947 639.067 181.18 638.89 181.434L638.674 179.53H635.475V193.266ZM657.564 176.166H654.035V179.53H650.899V182.132H654.035V188.378C654.035 189.284 654.154 190.063 654.391 190.714C654.628 191.358 654.966 191.887 655.406 192.301C655.838 192.724 656.358 193.038 656.968 193.241C657.586 193.435 658.271 193.533 659.024 193.533C659.414 193.533 659.807 193.512 660.205 193.469C660.611 193.435 661.001 193.385 661.373 193.317C661.745 193.249 662.097 193.165 662.427 193.063C662.757 192.953 663.045 192.826 663.29 192.682L662.947 190.257C662.786 190.3 662.592 190.342 662.363 190.384C662.143 190.427 661.906 190.465 661.652 190.499C661.39 190.541 661.115 190.575 660.827 190.6C660.548 190.625 660.273 190.638 660.002 190.638C659.63 190.638 659.291 190.596 658.986 190.511C658.69 190.427 658.436 190.283 658.225 190.08C658.013 189.885 657.848 189.623 657.729 189.292C657.619 188.954 657.564 188.535 657.564 188.036V182.132H662.693V179.53H657.564V176.166ZM681.838 186.271V186.538C681.838 187.545 681.982 188.476 682.27 189.331C682.557 190.177 682.98 190.913 683.539 191.54C684.089 192.166 684.766 192.657 685.57 193.012C686.383 193.359 687.305 193.533 688.338 193.533C689.362 193.533 690.276 193.359 691.08 193.012C691.884 192.657 692.561 192.166 693.111 191.54C693.661 190.913 694.08 190.177 694.368 189.331C694.656 188.476 694.8 187.545 694.8 186.538V186.271C694.8 185.272 694.656 184.35 694.368 183.503C694.08 182.649 693.661 181.908 693.111 181.282C692.553 180.655 691.871 180.165 691.067 179.809C690.263 179.454 689.345 179.276 688.312 179.276C687.28 179.276 686.362 179.454 685.558 179.809C684.762 180.165 684.089 180.655 683.539 181.282C682.98 181.908 682.557 182.649 682.27 183.503C681.982 184.35 681.838 185.272 681.838 186.271ZM685.367 186.538V186.271C685.367 185.712 685.422 185.183 685.532 184.684C685.642 184.185 685.816 183.745 686.053 183.364C686.29 182.983 686.594 182.682 686.967 182.462C687.339 182.242 687.788 182.132 688.312 182.132C688.846 182.132 689.299 182.242 689.671 182.462C690.043 182.682 690.348 182.983 690.585 183.364C690.813 183.745 690.983 184.185 691.093 184.684C691.203 185.183 691.258 185.712 691.258 186.271V186.538C691.258 187.113 691.203 187.655 691.093 188.163C690.983 188.662 690.813 189.098 690.585 189.47C690.348 189.851 690.043 190.152 689.671 190.372C689.299 190.592 688.854 190.702 688.338 190.702C687.805 190.702 687.348 190.592 686.967 190.372C686.594 190.152 686.29 189.851 686.053 189.47C685.816 189.098 685.642 188.662 685.532 188.163C685.422 187.655 685.367 187.113 685.367 186.538ZM701.351 193.266H704.893V182.132H709.844V179.53H704.893V178.781C704.893 178.375 704.943 178.011 705.045 177.689C705.155 177.367 705.32 177.097 705.54 176.876C705.785 176.614 706.116 176.415 706.53 176.28C706.945 176.144 707.449 176.077 708.041 176.077C708.591 176.077 709.069 176.102 709.476 176.153C709.882 176.204 710.246 176.263 710.567 176.331L710.796 173.563C710.508 173.512 710.229 173.466 709.958 173.423C709.696 173.381 709.433 173.343 709.171 173.309C708.909 173.275 708.638 173.25 708.358 173.233C708.088 173.208 707.804 173.195 707.508 173.195C706.568 173.195 705.718 173.318 704.956 173.563C704.194 173.8 703.547 174.155 703.014 174.629C702.48 175.103 702.07 175.687 701.782 176.381C701.494 177.075 701.351 177.875 701.351 178.781V179.53H697.745V182.132H701.351V193.266ZM729.826 174.782V177.664H733.343V190.397H729.826V193.266H740.516V190.397H736.91V177.664H740.516V174.782H729.826ZM745.441 174.782V177.664H748.958V190.397H745.441V193.266H756.131V190.397H752.525V177.664H756.131V174.782H745.441ZM773.854 177.689V174.782H758.949V177.689H764.573V193.266H768.153V177.689H773.854ZM804.208 191.108L804.195 183.821H797.581V186.487H800.641L800.628 189.838C800.535 189.948 800.395 190.054 800.209 190.156C800.031 190.249 799.824 190.333 799.587 190.41C799.35 190.486 799.096 190.545 798.825 190.587C798.554 190.63 798.279 190.651 798 190.651C797.543 190.642 797.132 190.57 796.769 190.435C796.413 190.291 796.1 190.084 795.829 189.813C795.668 189.652 795.52 189.47 795.385 189.267C795.258 189.056 795.144 188.827 795.042 188.582C794.881 188.158 794.754 187.672 794.661 187.122C794.576 186.571 794.534 185.962 794.534 185.293V182.754C794.534 182.221 794.564 181.726 794.623 181.269C794.691 180.812 794.784 180.397 794.902 180.025C795.055 179.542 795.245 179.124 795.474 178.768C795.711 178.413 795.973 178.125 796.261 177.905C796.481 177.744 796.718 177.621 796.972 177.537C797.226 177.452 797.488 177.41 797.759 177.41C798.258 177.41 798.686 177.477 799.041 177.613C799.405 177.74 799.705 177.934 799.942 178.197C800.154 178.434 800.319 178.726 800.438 179.073C800.564 179.42 800.658 179.818 800.717 180.266H804.195C804.102 179.377 803.903 178.578 803.599 177.867C803.302 177.156 802.888 176.551 802.354 176.051C801.821 175.56 801.165 175.184 800.387 174.921C799.617 174.659 798.711 174.528 797.67 174.528C796.993 174.528 796.35 174.621 795.74 174.807C795.131 174.993 794.568 175.268 794.052 175.632C793.612 175.954 793.205 176.335 792.833 176.775C792.469 177.215 792.147 177.71 791.868 178.26C791.572 178.878 791.343 179.568 791.183 180.33C791.022 181.083 790.941 181.9 790.941 182.78V185.293C790.941 186.216 791.022 187.071 791.183 187.858C791.352 188.645 791.597 189.352 791.919 189.978C792.198 190.545 792.537 191.049 792.935 191.489C793.341 191.929 793.789 192.301 794.28 192.606C794.78 192.902 795.326 193.126 795.918 193.279C796.519 193.44 797.158 193.52 797.835 193.52C798.614 193.52 799.341 193.448 800.019 193.304C800.696 193.16 801.309 192.97 801.859 192.733C802.401 192.504 802.871 192.246 803.269 191.958C803.666 191.671 803.979 191.387 804.208 191.108ZM816.205 193.266H819.404V179.53H815.862V189.166C815.752 189.386 815.621 189.584 815.469 189.762C815.316 189.94 815.143 190.092 814.948 190.219C814.72 190.363 814.453 190.473 814.148 190.549C813.852 190.625 813.518 190.664 813.146 190.664C812.731 190.664 812.38 190.613 812.092 190.511C811.804 190.41 811.571 190.24 811.394 190.003C811.216 189.775 811.085 189.47 811 189.089C810.924 188.708 810.886 188.239 810.886 187.68V179.53H807.356V187.655C807.356 188.696 807.471 189.589 807.699 190.333C807.936 191.07 808.266 191.675 808.689 192.149C809.113 192.631 809.62 192.983 810.213 193.203C810.805 193.423 811.457 193.533 812.168 193.533C812.947 193.533 813.662 193.338 814.313 192.949C814.974 192.559 815.536 192.022 816.002 191.336L816.205 193.266ZM823.873 193.266H826.971L828.431 185.928L828.71 184.532L829.002 185.928L830.513 193.266H833.61L836.073 179.53H832.836L831.82 187.629L831.643 188.962L831.401 187.655L829.916 179.53H827.555L826.069 187.693L825.828 189L825.663 187.693L824.635 179.53H821.41L823.873 193.266ZM847.055 193.266H850.635V193.05C850.457 192.703 850.322 192.289 850.229 191.806C850.135 191.324 850.089 190.714 850.089 189.978V184.087C850.089 183.292 849.941 182.594 849.645 181.993C849.348 181.383 848.938 180.88 848.413 180.482C847.888 180.084 847.266 179.784 846.547 179.581C845.836 179.377 845.066 179.276 844.236 179.276C843.314 179.276 842.493 179.394 841.773 179.631C841.062 179.86 840.462 180.173 839.971 180.571C839.471 180.969 839.09 181.43 838.828 181.955C838.574 182.479 838.447 183.034 838.447 183.618H841.977C841.977 183.372 842.01 183.148 842.078 182.945C842.154 182.742 842.269 182.568 842.421 182.424C842.59 182.264 842.81 182.141 843.081 182.056C843.352 181.963 843.674 181.917 844.046 181.917C844.469 181.917 844.837 181.972 845.15 182.082C845.472 182.183 845.739 182.331 845.95 182.526C846.153 182.712 846.306 182.936 846.407 183.199C846.509 183.453 846.56 183.74 846.56 184.062V184.875H844.592C843.576 184.875 842.675 184.968 841.888 185.154C841.109 185.332 840.453 185.594 839.92 185.941C839.327 186.322 838.883 186.808 838.587 187.401C838.291 187.985 838.143 188.658 838.143 189.419C838.143 190.012 838.261 190.562 838.498 191.07C838.735 191.569 839.065 192.001 839.488 192.365C839.911 192.729 840.415 193.012 840.999 193.215C841.591 193.418 842.239 193.52 842.941 193.52C843.373 193.52 843.775 193.478 844.147 193.393C844.52 193.317 844.863 193.207 845.176 193.063C845.48 192.928 845.76 192.767 846.014 192.581C846.268 192.394 846.492 192.195 846.687 191.984C846.729 192.229 846.78 192.462 846.839 192.682C846.898 192.902 846.97 193.097 847.055 193.266ZM843.69 190.791C843.36 190.791 843.068 190.752 842.814 190.676C842.569 190.592 842.362 190.482 842.192 190.346C842.023 190.202 841.892 190.029 841.799 189.826C841.714 189.614 841.672 189.386 841.672 189.14C841.672 188.827 841.731 188.539 841.85 188.277C841.968 188.006 842.15 187.773 842.396 187.579C842.641 187.392 842.958 187.249 843.348 187.147C843.737 187.037 844.207 186.982 844.757 186.982H846.56V189.343C846.458 189.521 846.318 189.699 846.141 189.876C845.963 190.046 845.751 190.198 845.506 190.333C845.26 190.469 844.985 190.579 844.681 190.664C844.376 190.748 844.046 190.791 843.69 190.791ZM857.617 181.421V173.766H854.088V193.266H857.617V183.351C857.753 183.173 857.901 183.013 858.062 182.869C858.231 182.725 858.417 182.602 858.62 182.5C858.84 182.382 859.086 182.293 859.356 182.234C859.627 182.175 859.919 182.145 860.232 182.145C860.639 182.145 861.003 182.2 861.324 182.31C861.646 182.412 861.921 182.572 862.149 182.792C862.378 183.013 862.551 183.3 862.67 183.656C862.797 184.011 862.86 184.434 862.86 184.925V193.266H866.39V184.951C866.39 183.944 866.267 183.084 866.021 182.374C865.785 181.654 865.45 181.066 865.019 180.609C864.587 180.152 864.071 179.818 863.47 179.606C862.869 179.386 862.209 179.276 861.489 179.276C860.998 179.276 860.533 179.348 860.093 179.492C859.653 179.636 859.251 179.839 858.887 180.101C858.65 180.27 858.421 180.469 858.201 180.698C857.99 180.918 857.795 181.159 857.617 181.421ZM878.285 193.266H881.865V193.05C881.688 192.703 881.552 192.289 881.459 191.806C881.366 191.324 881.319 190.714 881.319 189.978V184.087C881.319 183.292 881.171 182.594 880.875 181.993C880.579 181.383 880.168 180.88 879.644 180.482C879.119 180.084 878.497 179.784 877.777 179.581C877.066 179.377 876.296 179.276 875.467 179.276C874.544 179.276 873.723 179.394 873.004 179.631C872.293 179.86 871.692 180.173 871.201 180.571C870.702 180.969 870.321 181.43 870.059 181.955C869.805 182.479 869.678 183.034 869.678 183.618H873.207C873.207 183.372 873.241 183.148 873.309 182.945C873.385 182.742 873.499 182.568 873.651 182.424C873.821 182.264 874.041 182.141 874.312 182.056C874.582 181.963 874.904 181.917 875.276 181.917C875.7 181.917 876.068 181.972 876.381 182.082C876.702 182.183 876.969 182.331 877.181 182.526C877.384 182.712 877.536 182.936 877.638 183.199C877.739 183.453 877.79 183.74 877.79 184.062V184.875H875.822C874.807 184.875 873.905 184.968 873.118 185.154C872.34 185.332 871.684 185.594 871.15 185.941C870.558 186.322 870.114 186.808 869.817 187.401C869.521 187.985 869.373 188.658 869.373 189.419C869.373 190.012 869.492 190.562 869.729 191.07C869.965 191.569 870.296 192.001 870.719 192.365C871.142 192.729 871.646 193.012 872.229 193.215C872.822 193.418 873.469 193.52 874.172 193.52C874.604 193.52 875.006 193.478 875.378 193.393C875.75 193.317 876.093 193.207 876.406 193.063C876.711 192.928 876.99 192.767 877.244 192.581C877.498 192.394 877.722 192.195 877.917 191.984C877.959 192.229 878.01 192.462 878.069 192.682C878.129 192.902 878.201 193.097 878.285 193.266ZM874.921 190.791C874.591 190.791 874.299 190.752 874.045 190.676C873.799 190.592 873.592 190.482 873.423 190.346C873.254 190.202 873.122 190.029 873.029 189.826C872.945 189.614 872.902 189.386 872.902 189.14C872.902 188.827 872.962 188.539 873.08 188.277C873.199 188.006 873.381 187.773 873.626 187.579C873.871 187.392 874.189 187.249 874.578 187.147C874.967 187.037 875.437 186.982 875.987 186.982H877.79V189.343C877.688 189.521 877.549 189.699 877.371 189.876C877.193 190.046 876.982 190.198 876.736 190.333C876.491 190.469 876.216 190.579 875.911 190.664C875.606 190.748 875.276 190.791 874.921 190.791ZM891.793 176.166H888.264V179.53H885.128V182.132H888.264V188.378C888.264 189.284 888.382 190.063 888.619 190.714C888.856 191.358 889.195 191.887 889.635 192.301C890.066 192.724 890.587 193.038 891.196 193.241C891.814 193.435 892.5 193.533 893.253 193.533C893.642 193.533 894.036 193.512 894.434 193.469C894.84 193.435 895.229 193.385 895.602 193.317C895.974 193.249 896.325 193.165 896.655 193.063C896.985 192.953 897.273 192.826 897.519 192.682L897.176 190.257C897.015 190.3 896.82 190.342 896.592 190.384C896.372 190.427 896.135 190.465 895.881 190.499C895.618 190.541 895.343 190.575 895.056 190.6C894.776 190.625 894.501 190.638 894.23 190.638C893.858 190.638 893.52 190.596 893.215 190.511C892.919 190.427 892.665 190.283 892.453 190.08C892.242 189.885 892.076 189.623 891.958 189.292C891.848 188.954 891.793 188.535 891.793 188.036V182.132H896.922V179.53H891.793V176.166ZM901.873 179.53V182.412H905.783V190.397H901.873V193.266H913.07V190.397H909.351V179.53H901.873ZM905.529 176.013C905.529 176.284 905.576 176.538 905.669 176.775C905.771 177.003 905.91 177.198 906.088 177.359C906.266 177.528 906.477 177.659 906.723 177.752C906.977 177.846 907.256 177.892 907.561 177.892C908.187 177.892 908.682 177.719 909.046 177.372C909.418 177.016 909.604 176.563 909.604 176.013C909.604 175.463 909.418 175.014 909.046 174.667C908.682 174.312 908.187 174.134 907.561 174.134C907.256 174.134 906.977 174.181 906.723 174.274C906.477 174.367 906.266 174.494 906.088 174.655C905.91 174.824 905.771 175.027 905.669 175.264C905.576 175.493 905.529 175.742 905.529 176.013Z" fill="#51FB81"/>
</svg>
