<svg width="139" height="154" viewBox="0 0 139 154" fill="none" xmlns="http://www.w3.org/2000/svg">
<path d="M3.96159 136.74V147.518C3.96159 148.834 4.26355 149.833 4.86748 150.515C5.4869 151.18 6.39279 151.513 7.58516 151.513C8.77753 151.513 9.67568 151.18 10.2796 150.515C10.899 149.833 11.2087 148.834 11.2087 147.518V136.74H13.1599V147.518C13.1599 149.407 12.6644 150.848 11.6733 151.839C10.6822 152.83 9.31952 153.325 7.58516 153.325C5.8508 153.325 4.48809 152.83 3.49703 151.839C2.50597 150.848 2.01044 149.407 2.01044 147.518V136.74H3.96159ZM15.9311 136.74H21.2735C23.2866 136.74 24.7577 137.22 25.6869 138.181C26.616 139.141 27.0806 140.674 27.0806 142.78V146.961C27.0806 149.067 26.616 150.6 25.6869 151.56C24.7577 152.52 23.2866 153 21.2735 153H15.9311V151.165H17.3248V138.552H15.9311V136.74ZM20.9948 151.188C21.7071 151.188 22.3188 151.119 22.8298 150.979C23.3563 150.84 23.7899 150.608 24.1306 150.282C24.4713 149.942 24.719 149.493 24.8739 148.935C25.0442 148.378 25.1294 147.673 25.1294 146.821V142.919C25.1294 142.067 25.0442 141.363 24.8739 140.805C24.719 140.248 24.4713 139.806 24.1306 139.481C23.7899 139.141 23.3563 138.901 22.8298 138.761C22.3188 138.622 21.7071 138.552 20.9948 138.552H19.2759V151.188H20.9948ZM33.545 145.195H40.7922V153H38.9804V151.049H38.7016C38.4384 151.73 37.9738 152.28 37.308 152.698C36.6421 153.116 35.8678 153.325 34.9852 153.325C33.2353 153.325 31.8571 152.76 30.8506 151.63C29.8595 150.499 29.364 148.85 29.364 146.682V143.058C29.364 140.952 29.8672 139.319 30.8738 138.157C31.8803 136.996 33.2818 136.415 35.0781 136.415C36.0072 136.415 36.8279 136.57 37.5402 136.88C38.2526 137.174 38.8488 137.592 39.3288 138.134C39.8088 138.661 40.1727 139.288 40.4205 140.016C40.6683 140.728 40.7922 141.494 40.7922 142.315V142.594H38.841V142.315C38.841 141.789 38.7636 141.278 38.6087 140.782C38.4694 140.287 38.2448 139.853 37.9351 139.481C37.6409 139.094 37.2538 138.792 36.7737 138.575C36.3092 138.343 35.7439 138.227 35.0781 138.227C33.8238 138.227 32.8791 138.684 32.2442 139.597C31.6248 140.511 31.3151 141.711 31.3151 143.198V146.543C31.3151 148.138 31.6248 149.369 32.2442 150.236C32.8791 151.088 33.8392 151.513 35.1245 151.513C36.2859 151.513 37.1918 151.142 37.8422 150.398C38.5081 149.655 38.841 148.618 38.841 147.286V147.007H33.545V145.195ZM52.3436 148.958H45.3752L44.1905 153H42.1L47.0243 136.74H50.6944L55.6187 153H53.5282L52.3436 148.958ZM48.72 137.577L45.9094 147.147H51.8093L48.9987 137.577H48.72ZM56.5781 136.74H60.2946L62.4781 152.164H62.7568L64.9402 136.74H68.6567V153H66.8449V137.577H66.5662L64.3828 153H60.8521L58.6687 137.577H58.3899V153H56.5781V136.74ZM95.6618 151.188V153H84.6517V150.213C84.6517 149.469 84.7756 148.827 85.0234 148.285C85.2712 147.727 85.6196 147.255 86.0687 146.868C86.5332 146.465 87.0907 146.132 87.7411 145.869C88.3915 145.606 89.127 145.381 89.9477 145.195C91.3259 144.886 92.317 144.444 92.9209 143.871C93.5403 143.298 93.85 142.594 93.85 141.758V141.618C93.85 141.2 93.7804 140.79 93.641 140.387C93.5016 139.985 93.2848 139.621 92.9906 139.295C92.6964 138.97 92.317 138.715 91.8524 138.529C91.4034 138.328 90.8614 138.227 90.2265 138.227C89.0341 138.227 88.105 138.591 87.4391 139.319C86.7887 140.047 86.4635 141.014 86.4635 142.222V143.244H84.5124V142.083C84.5124 141.34 84.6363 140.627 84.884 139.946C85.1318 139.264 85.4957 138.661 85.9757 138.134C86.4558 137.608 87.052 137.189 87.7643 136.88C88.4766 136.57 89.2974 136.415 90.2265 136.415C91.1711 136.415 91.9918 136.562 92.6886 136.857C93.3855 137.135 93.9662 137.515 94.4307 137.995C94.8953 138.459 95.236 138.994 95.4528 139.597C95.6851 140.186 95.8012 140.79 95.8012 141.409V141.827C95.8012 143.066 95.4141 144.127 94.6398 145.01C93.8655 145.877 92.6267 146.496 90.9233 146.868C89.4367 147.193 88.345 147.627 87.6482 148.169C86.9513 148.695 86.6029 149.469 86.6029 150.491V151.188H95.6618ZM98.1775 143.058C98.1775 140.952 98.6808 139.319 99.6874 138.157C100.694 136.996 102.095 136.415 103.892 136.415C105.688 136.415 107.089 136.996 108.096 138.157C109.102 139.319 109.606 140.952 109.606 143.058V146.682C109.606 148.85 109.102 150.499 108.096 151.63C107.089 152.76 105.688 153.325 103.892 153.325C102.095 153.325 100.694 152.76 99.6874 151.63C98.6808 150.499 98.1775 148.85 98.1775 146.682V143.058ZM103.892 151.56C105.146 151.56 106.083 151.126 106.702 150.259C107.337 149.376 107.655 148.138 107.655 146.543V143.198C107.655 142.454 107.577 141.781 107.422 141.177C107.267 140.558 107.027 140.031 106.702 139.597C106.393 139.148 105.998 138.8 105.518 138.552C105.053 138.304 104.511 138.181 103.892 138.181C103.257 138.181 102.707 138.304 102.242 138.552C101.778 138.8 101.383 139.148 101.058 139.597C100.748 140.031 100.516 140.558 100.361 141.177C100.206 141.781 100.129 142.454 100.129 143.198V146.543C100.129 148.138 100.438 149.376 101.058 150.259C101.693 151.126 102.637 151.56 103.892 151.56ZM102.405 144.87C102.405 144.468 102.552 144.119 102.846 143.825C103.141 143.531 103.489 143.384 103.892 143.384C104.294 143.384 104.643 143.531 104.937 143.825C105.231 144.119 105.378 144.468 105.378 144.87C105.378 145.273 105.231 145.621 104.937 145.915C104.643 146.21 104.294 146.357 103.892 146.357C103.489 146.357 103.141 146.21 102.846 145.915C102.552 145.621 102.405 145.273 102.405 144.87ZM123.178 151.188V153H112.168V150.213C112.168 149.469 112.292 148.827 112.54 148.285C112.787 147.727 113.136 147.255 113.585 146.868C114.049 146.465 114.607 146.132 115.257 145.869C115.908 145.606 116.643 145.381 117.464 145.195C118.842 144.886 119.833 144.444 120.437 143.871C121.056 143.298 121.366 142.594 121.366 141.758V141.618C121.366 141.2 121.296 140.79 121.157 140.387C121.018 139.985 120.801 139.621 120.507 139.295C120.213 138.97 119.833 138.715 119.369 138.529C118.919 138.328 118.378 138.227 117.743 138.227C116.55 138.227 115.621 138.591 114.955 139.319C114.305 140.047 113.98 141.014 113.98 142.222V143.244H112.029V142.083C112.029 141.34 112.152 140.627 112.4 139.946C112.648 139.264 113.012 138.661 113.492 138.134C113.972 137.608 114.568 137.189 115.28 136.88C115.993 136.57 116.813 136.415 117.743 136.415C118.687 136.415 119.508 136.562 120.205 136.857C120.902 137.135 121.482 137.515 121.947 137.995C122.411 138.459 122.752 138.994 122.969 139.597C123.201 140.186 123.317 140.79 123.317 141.409V141.827C123.317 143.066 122.93 144.127 122.156 145.01C121.382 145.877 120.143 146.496 118.439 146.868C116.953 147.193 115.861 147.627 115.164 148.169C114.467 148.695 114.119 149.469 114.119 150.491V151.188H123.178ZM130.548 151.188V137.6H130.27L127.598 143.709H125.67V143.569L128.713 136.74H132.499V151.188H137.099V153H125.949V151.188H130.548Z" fill="black"/>
<path d="M59.4768 41.3776L72.8383 2.90659L90.1817 47.2741L59.4768 41.3776Z" stroke="black" stroke-width="2.01258"/>
<path d="M54.1114 103.386L90.8479 58.142L68.1818 125.484L54.1114 103.386Z" stroke="black" stroke-width="2.01258"/>
<path d="M54.1554 53.4073L55.6814 49.7587C58.0966 59.9574 60.3768 69.5858 62.7994 79.8202L35.4454 67.5407C40.0342 59.2112 44.5155 51.0761 49.3538 42.2851C50.4344 46.3755 51.3346 49.7882 52.254 53.2756L53.0104 56.1449L54.1554 53.4073Z" stroke="black" stroke-width="2.01258"/>
<path d="M59.9097 46.7115L89.6899 52.3116L67.6389 79.6779C66.9583 76.7747 66.288 73.9156 65.6228 71.0778C63.7202 62.9616 61.8582 55.0188 59.9097 46.7115Z" stroke="black" stroke-width="2.01258"/>
<path d="M62.5237 85.5104L51.6935 99.0764C49.9731 96.235 48.2809 93.4387 46.6078 90.6739C43.1733 84.9986 39.8189 79.4553 36.464 73.9248L62.5237 85.5104Z" stroke="black" stroke-width="2.01258"/>
</svg>
